<svg width="16" height="16" viewBox="0 0 16 16" fill="none" xmlns="http://www.w3.org/2000/svg">
<path fill-rule="evenodd" clip-rule="evenodd" d="M0 2C0 0.895431 0.895431 0 2 0H14C15.1046 0 16 0.895431 16 2V14C16 15.1046 15.1046 16 14 16H2C0.895431 16 0 15.1046 0 14V2ZM12 13H10V3H12V13ZM3.22836 11.1481C3.0776 10.7841 3 10.394 3 10V6C3 5.60603 3.0776 5.21593 3.22836 4.85195C3.37913 4.48797 3.6001 4.15725 3.87868 3.87868C4.15726 3.6001 4.48797 3.37913 4.85195 3.22836C5.21593 3.0776 5.60604 3 6 3C6.39397 3 6.78407 3.0776 7.14805 3.22836C7.51203 3.37913 7.84275 3.6001 8.12132 3.87868C8.3999 4.15726 8.62088 4.48797 8.77164 4.85195C8.9224 5.21593 9 5.60604 9 6V10C9 10.394 8.9224 10.7841 8.77164 11.148C8.62088 11.512 8.3999 11.8427 8.12132 12.1213C7.84275 12.3999 7.51203 12.6209 7.14805 12.7716C6.78407 12.9224 6.39397 13 6 13C5.60604 13 5.21593 12.9224 4.85195 12.7716C4.48797 12.6209 4.15726 12.3999 3.87868 12.1213C3.6001 11.8427 3.37913 11.512 3.22836 11.1481ZM7 10C7 10.128 6.94978 10.2548 6.90078 10.3731C6.85178 10.4914 6.77997 10.5989 6.68943 10.6894C6.59889 10.78 6.49141 10.8518 6.37312 10.9008C6.25482 10.9498 6.12804 10.975 6 10.975C5.87196 10.975 5.74518 10.9498 5.62688 10.9008C5.50859 10.8518 5.40111 10.78 5.31057 10.6894C5.22003 10.5989 5.14822 10.4914 5.09922 10.3731C5.05022 10.2548 5 10.128 5 10V6C5 5.87196 5.05022 5.74518 5.09922 5.62688C5.14822 5.50859 5.22003 5.40111 5.31057 5.31057C5.40111 5.22003 5.50859 5.14822 5.62688 5.09922C5.74518 5.05022 5.87196 5.025 6 5.025C6.12804 5.025 6.25482 5.05022 6.37312 5.09922C6.49141 5.14822 6.59889 5.22003 6.68943 5.31057C6.77997 5.40111 6.85178 5.50859 6.90078 5.62688C6.94978 5.74518 7 5.87196 7 6V10Z" fill="#808080"/>
</svg>
