<svg width="16" height="16" viewBox="0 0 16 16" fill="none" xmlns="http://www.w3.org/2000/svg">
<path fill-rule="evenodd" clip-rule="evenodd" d="M9 2C9 0.895431 8.10457 0 7 0C5.89543 0 5 0.895431 5 2H2C0.895431 2 0 2.89543 0 4V7C1.10457 7 2 7.89543 2 9C2 10.1046 1.10457 11 0 11V14C0 15.1046 0.89543 16 2 16H5C5 14.8954 5.89543 14 7 14C8.10457 14 9 14.8954 9 16H12C13.1046 16 14 15.1046 14 14V11C15.1046 11 16 10.1046 16 9C16 7.89543 15.1046 7 14 7V4C14 2.89543 13.1046 2 12 2H9Z" fill="#808080"/>
</svg>
