<svg width="16" height="16" viewBox="0 0 16 16" fill="none" xmlns="http://www.w3.org/2000/svg">
<path d="M14.1707 8C14.1707 7.816 14.1625 7.64 14.1461 7.456L15.6764 6.328C16.0055 6.088 16.096 5.64 15.8903 5.288L14.3518 2.704C14.1461 2.352 13.7018 2.208 13.3233 2.368L11.5543 3.096C11.2499 2.888 10.929 2.704 10.5917 2.552L10.3531 0.704C10.3037 0.304 9.94996 0 9.53857 0H6.46966C6.05004 0 5.69626 0.304 5.64689 0.704L5.40829 2.552C5.07095 2.704 4.75007 2.888 4.44565 3.096L2.6767 2.368C2.29823 2.208 1.85394 2.352 1.64825 2.704L0.109673 5.296C-0.0960185 5.648 -0.00551423 6.088 0.323592 6.336L1.85394 7.464C1.83748 7.64 1.82925 7.816 1.82925 8C1.82925 8.184 1.83748 8.36 1.85394 8.544L0.323592 9.672C-0.00551423 9.912 -0.0960185 10.36 0.109673 10.712L1.64825 13.296C1.85394 13.648 2.29823 13.792 2.6767 13.632L4.44565 12.904C4.75007 13.112 5.07095 13.296 5.40829 13.448L5.64689 15.296C5.69626 15.696 6.05004 16 6.46143 16H9.53034C9.94173 16 10.2955 15.696 10.3449 15.296L10.5835 13.448C10.9208 13.296 11.2417 13.112 11.5461 12.904L13.3151 13.632C13.6935 13.792 14.1378 13.648 14.3435 13.296L15.8821 10.712C16.0878 10.36 15.9973 9.92 15.6682 9.672L14.1378 8.544C14.1625 8.36 14.1707 8.184 14.1707 8ZM8.03291 10.8C6.44497 10.8 5.15323 9.544 5.15323 8C5.15323 6.456 6.44497 5.2 8.03291 5.2C9.62085 5.2 10.9126 6.456 10.9126 8C10.9126 9.544 9.62085 10.8 8.03291 10.8Z" fill="#808080"/>
</svg>
