<svg width="16" height="16" viewBox="0 0 16 16" fill="none" xmlns="http://www.w3.org/2000/svg">
<path fill-rule="evenodd" clip-rule="evenodd" d="M8 2C9.10457 2 10 1.10457 10 0H14C15.1046 0 16 0.895431 16 2V14C16 15.1046 15.1046 16 14 16H2C0.895431 16 0 15.1046 0 14V2C0 0.895431 0.895431 0 2 0H6C6 1.10457 6.89543 2 8 2ZM10.8284 4.75735L12.2426 6.17157L9.41421 9L12.2426 11.8284L10.8284 13.2426L8 10.4142L5.17157 13.2426L3.75736 11.8284L6.58578 9L3.75736 6.17157L5.17157 4.75736L8 7.58578L10.8284 4.75735Z" fill="#6C7780"/>
</svg>
