<svg width="16" height="16" viewBox="0 0 16 16" fill="none" xmlns="http://www.w3.org/2000/svg">
<g clip-path="url(#clip0)">
<path d="M14.6569 13.6569C13.538 14.7757 12.1126 15.5376 10.5607 15.8463C9.00887 16.155 7.40034 15.9965 5.93853 15.391C4.47672 14.7855 3.22729 13.7602 2.34824 12.4446C1.46919 11.129 1 9.58225 1 8C1 6.41775 1.46919 4.87103 2.34824 3.55544C3.22729 2.23985 4.47672 1.21447 5.93853 0.608964C7.40034 0.00346286 9.00887 -0.154964 10.5607 0.153718C12.1126 0.462399 13.538 1.22433 14.6569 2.34314L12.3941 4.60589C11.7228 3.93459 10.8675 3.47744 9.93643 3.29223C9.00532 3.10702 8.0402 3.20208 7.16312 3.56538C6.28603 3.92868 5.53638 4.54391 5.00895 5.33326C4.48151 6.12262 4.2 7.05065 4.2 8C4.2 8.94935 4.48151 9.87738 5.00895 10.6667C5.53638 11.4561 6.28603 12.0713 7.16312 12.4346C8.0402 12.7979 9.00532 12.893 9.93643 12.7078C10.8675 12.5226 11.7228 12.0654 12.3941 11.3941L14.6569 13.6569Z" fill="#42A5F5"/>
</g>
<defs>
<clipPath id="clip0">
<rect width="16" height="16" fill="white"/>
</clipPath>
</defs>
</svg>
