<svg width="16" height="16" viewBox="0 0 16 16" fill="none" xmlns="http://www.w3.org/2000/svg">
<path d="M13.6569 13.6569C12.538 14.7757 11.1126 15.5376 9.56072 15.8463C8.00887 16.155 6.40034 15.9965 4.93853 15.391C3.47672 14.7855 2.22729 13.7602 1.34824 12.4446C0.469192 11.129 9.7449e-08 9.58225 0 8C-9.74489e-08 6.41775 0.469192 4.87103 1.34824 3.55544C2.22729 2.23985 3.47672 1.21447 4.93853 0.608964C6.40034 0.00346286 8.00887 -0.154964 9.56072 0.153718C11.1126 0.462399 12.538 1.22433 13.6569 2.34314L12.5255 3.47452C11.6304 2.57946 10.4901 1.96992 9.24858 1.72297C8.0071 1.47603 6.72027 1.60277 5.55083 2.08717C4.38138 2.57157 3.38183 3.39188 2.67859 4.44435C1.97535 5.49683 1.6 6.7342 1.6 8C1.6 9.2658 1.97535 10.5032 2.67859 11.5556C3.38184 12.6081 4.38138 13.4284 5.55083 13.9128C6.72027 14.3972 8.0071 14.524 9.24858 14.277C10.4901 14.0301 11.6304 13.4205 12.5255 12.5255L13.6569 13.6569Z" fill="#42A5F5"/>
<path fill-rule="evenodd" clip-rule="evenodd" d="M12 5H14V7H16V9H14V11H12V9H10V7H12V5Z" fill="#42A5F5"/>
<path fill-rule="evenodd" clip-rule="evenodd" d="M5 5H7V7H9V9H7V11H5V9H3V7H5V5Z" fill="#42A5F5"/>
</svg>
