<svg width="16" height="16" viewBox="0 0 16 16" fill="none" xmlns="http://www.w3.org/2000/svg">
<path d="M8.53553 11.5355C7.83627 12.2348 6.94536 12.711 5.97545 12.9039C5.00555 13.0969 4.00021 12.9978 3.08658 12.6194C2.17295 12.241 1.39206 11.6001 0.842652 10.7779C0.293245 9.95561 6.09056e-08 8.98891 0 8C-6.09056e-08 7.01109 0.293245 6.04439 0.842652 5.22215C1.39206 4.3999 2.17295 3.75904 3.08658 3.3806C4.00021 3.00216 5.00555 2.90315 5.97545 3.09607C6.94536 3.289 7.83627 3.7652 8.53553 4.46447L7.12132 5.87868C6.70176 5.45912 6.16721 5.1734 5.58527 5.05764C5.00333 4.94189 4.40013 5.0013 3.85195 5.22836C3.30377 5.45542 2.83524 5.83994 2.50559 6.33329C2.17595 6.82664 2 7.40666 2 8C2 8.59334 2.17595 9.17336 2.50559 9.66671C2.83524 10.1601 3.30377 10.5446 3.85195 10.7716C4.40013 10.9987 5.00333 11.0581 5.58527 10.9424C6.16721 10.8266 6.70176 10.5409 7.12132 10.1213L8.53553 11.5355Z" fill="#42A5F5"/>
<path fill-rule="evenodd" clip-rule="evenodd" d="M11 4H10V6H8V7H10V9H8V10H10V12H11V10H13V12H14V10H16V9H14V7H16V6H14V4H13V6H11V4ZM11 7V9H13V7H11Z" fill="#42A5F5"/>
</svg>
