<svg width="16" height="16" viewBox="0 0 16 16" fill="none" xmlns="http://www.w3.org/2000/svg">
<path fill-rule="evenodd" clip-rule="evenodd" d="M2 14L8 16L14 14L15 0H1L2 14ZM12.3891 11.3891C11.6199 12.1583 10.6399 12.6821 9.573 12.8943C8.5061 13.1065 7.40023 12.9976 6.39524 12.5813C5.39025 12.1651 4.53127 11.4601 3.92692 10.5556C3.32257 9.65117 3 8.5878 3 7.5C3 6.4122 3.32257 5.34883 3.92692 4.44436C4.53126 3.53989 5.39025 2.83494 6.39524 2.41866C7.40023 2.00238 8.5061 1.89346 9.573 2.10568C10.6399 2.3179 11.6199 2.84172 12.3891 3.61091L10.989 5.01098C10.4967 4.5187 9.86953 4.18346 9.18672 4.04764C8.5039 3.91182 7.79615 3.98152 7.15295 4.24794C6.50976 4.51436 5.96001 4.96553 5.57323 5.54439C5.18644 6.12325 4.98 6.80381 4.98 7.5C4.98 8.19619 5.18644 8.87675 5.57323 9.45561C5.96001 10.0345 6.50976 10.4856 7.15295 10.7521C7.79615 11.0185 8.5039 11.0882 9.18672 10.9524C9.86953 10.8165 10.4967 10.4813 10.989 9.98902L12.3891 11.3891ZM7 5H8V6H9V5H10V6H11V7H10V8H11V9H10V10H9V9H8V10H7V9H6V8H7V7H6V6H7V5ZM9 8H8V7H9V8Z" fill="#EF652F"/>
</svg>
