<svg width="16" height="16" viewBox="0 0 16 16" fill="none" xmlns="http://www.w3.org/2000/svg">
<g filter="url(#filter0_i_409_100)">
<path d="M1.40171 8.33049L4 4H5V13L1.55209 9.55209C1.22762 9.22762 1.16562 8.72397 1.40171 8.33049Z" fill="#42A5F5"/>
</g>
<path d="M8.33049 1.40171L4 4V5H13L12 4L9.55209 1.55209C9.22762 1.22762 8.72397 1.16562 8.33049 1.40171Z" fill="#42A5F5"/>
<path d="M4 11.5858V4L12 12V15H7L4.29289 12.2929C4.10536 12.1054 4 11.851 4 11.5858Z" fill="#42A5F5"/>
<g filter="url(#filter1_i_409_100)">
<path d="M12.2929 4.29289C12.1054 4.10536 11.851 4 11.5858 4H4L12 12H15V7L12.2929 4.29289Z" fill="#42A5F5"/>
</g>
<defs>
<filter id="filter0_i_409_100" x="1.25918" y="4" width="3.74082" height="9" filterUnits="userSpaceOnUse" color-interpolation-filters="sRGB">
<feFlood flood-opacity="0" result="BackgroundImageFix"/>
<feBlend mode="normal" in="SourceGraphic" in2="BackgroundImageFix" result="shape"/>
<feColorMatrix in="SourceAlpha" type="matrix" values="0 0 0 0 0 0 0 0 0 0 0 0 0 0 0 0 0 0 127 0" result="hardAlpha"/>
<feOffset dy="16"/>
<feComposite in2="hardAlpha" operator="arithmetic" k2="-1" k3="1"/>
<feColorMatrix type="matrix" values="0 0 0 0 0 0 0 0 0 0 0 0 0 0 0 0 0 0 0.35 0"/>
<feBlend mode="normal" in2="shape" result="effect1_innerShadow_409_100"/>
</filter>
<filter id="filter1_i_409_100" x="4" y="4" width="11" height="8" filterUnits="userSpaceOnUse" color-interpolation-filters="sRGB">
<feFlood flood-opacity="0" result="BackgroundImageFix"/>
<feBlend mode="normal" in="SourceGraphic" in2="BackgroundImageFix" result="shape"/>
<feColorMatrix in="SourceAlpha" type="matrix" values="0 0 0 0 0 0 0 0 0 0 0 0 0 0 0 0 0 0 127 0" result="hardAlpha"/>
<feOffset dy="16"/>
<feComposite in2="hardAlpha" operator="arithmetic" k2="-1" k3="1"/>
<feColorMatrix type="matrix" values="0 0 0 0 0 0 0 0 0 0 0 0 0 0 0 0 0 0 0.35 0"/>
<feBlend mode="normal" in2="shape" result="effect1_innerShadow_409_100"/>
</filter>
</defs>
</svg>
