<svg width="16" height="16" viewBox="0 0 16 16" fill="none" xmlns="http://www.w3.org/2000/svg">
<path fill-rule="evenodd" clip-rule="evenodd" d="M2 2C2 0.895431 2.89543 0 4 0H10L14 4V14C14 15.1046 13.1046 16 12 16H4C2.89543 16 2 15.1046 2 14V2ZM6.04983 5.72027C5.65421 6.05902 5.3478 6.49897 5.17071 7H4V8H5V9H4V10H5V11H4V12H5H5.17071C5.58254 13.1652 6.69378 14 8 14C9.30622 14 10.4175 13.1652 10.8293 12H11H12V11H11V10H12V9H11V8H12V7H10.8293C10.6522 6.49897 10.3458 6.05902 9.95018 5.72027L10.683 4.45096L9.81699 3.95096L9.09282 5.20526C8.75419 5.07274 8.38559 5 8 5C7.61441 5 7.24582 5.07274 6.90719 5.20526L6.18301 3.95095L5.31699 4.45096L6.04983 5.72027ZM10 9V8H6V9H10ZM10 10V11H6V10H10Z" fill="#8BC34A"/>
</svg>
