<svg width="16" height="16" viewBox="0 0 16 16" fill="none" xmlns="http://www.w3.org/2000/svg">
<path fill-rule="evenodd" clip-rule="evenodd" d="M10 0H6V1H10V0ZM6 2H10V4.34141C12.3304 5.16508 14 7.38756 14 10C14 13.3137 11.3137 16 8 16C4.68629 16 2 13.3137 2 10C2 7.38756 3.66962 5.16508 6 4.34141V2ZM12.5 10C12.5 12.4853 10.4853 14.5 8 14.5C5.51472 14.5 3.5 12.4853 3.5 10C3.5 7.51472 5.51472 5.5 8 5.5C10.4853 5.5 12.5 7.51472 12.5 10ZM11.5 10C11.5 11.933 9.93299 13.5 8 13.5C6.067 13.5 4.5 11.933 4.5 10H11.5Z" fill="#A56FFF"/>
</svg>
