<svg width="16" height="16" viewBox="0 0 16 16" fill="none" xmlns="http://www.w3.org/2000/svg">
<path fill-rule="evenodd" clip-rule="evenodd" d="M10 0H6V1H10V0ZM6 2H10V4.34141C12.3304 5.16509 14 7.38756 14 10C14 13.3137 11.3137 16 8 16C4.68629 16 2 13.3137 2 10C2 7.38756 3.66962 5.16509 6 4.34141V2ZM13 10C13 12.7614 10.7614 15 8 15C5.23858 15 3 12.7614 3 10C3 7.23858 5.23858 5 8 5C10.7614 5 13 7.23858 13 10ZM12.2394 10.1038C12.2394 12.4434 10.331 14.3399 7.97683 14.3399C5.62269 14.3399 3.71429 12.4434 3.71429 10.1038C3.71429 10.0691 3.71471 10.0345 3.71554 10H12.2381C12.239 10.0345 12.2394 10.0691 12.2394 10.1038Z" fill="#A56FFF"/>
</svg>
