<svg width="16" height="16" viewBox="0 0 16 16" fill="none" xmlns="http://www.w3.org/2000/svg">
<g clip-path="url(#clip0_44_123)">
<path fill-rule="evenodd" clip-rule="evenodd" d="M2 0C0.895431 0 0 0.895431 0 2V14C0 15.1046 0.895431 16 2 16H14C15.1046 16 16 15.1046 16 14V2C16 0.895431 15.1046 0 14 0H2ZM14 4C14 4.93192 13.3626 5.71497 12.5 5.93699V8.5C12.5 10.7091 10.7091 12.5 8.5 12.5H5.93699C5.71497 13.3626 4.93192 14 4 14C2.89543 14 2 13.1046 2 12C2 11.0681 2.63739 10.285 3.5 10.063V5.93699C2.63739 5.71497 2 4.93192 2 4C2 2.89543 2.89543 2 4 2C5.10457 2 6 2.89543 6 4C6 4.93192 5.36261 5.71497 4.5 5.93699V10.063C5.2028 10.2439 5.7561 10.7972 5.93699 11.5H8.5C10.1569 11.5 11.5 10.1569 11.5 8.5V5.93699C10.6374 5.71497 10 4.93192 10 4C10 2.89543 10.8954 2 12 2C13.1046 2 14 2.89543 14 4Z" fill="#EF652F"/>
</g>
<defs>
<clipPath id="clip0_44_123">
<rect width="16" height="16" fill="white"/>
</clipPath>
</defs>
</svg>
