<svg width="16" height="16" viewBox="0 0 16 16" fill="none" xmlns="http://www.w3.org/2000/svg">
<path d="M16 7.5C16 9.98528 13.9853 12 11.5 12C9.01472 12 7 9.98528 7 7.5C7 5.01472 9.01472 3 11.5 3C13.9853 3 16 5.01472 16 7.5ZM9.025 7.5C9.025 8.8669 10.1331 9.975 11.5 9.975C12.8669 9.975 13.975 8.8669 13.975 7.5C13.975 6.1331 12.8669 5.025 11.5 5.025C10.1331 5.025 9.025 6.1331 9.025 7.5Z" fill="#42A5F5"/>
<path fill-rule="evenodd" clip-rule="evenodd" d="M5.95088 3.24031C6.51939 3.43395 7.03851 3.73765 7.48125 4.12922C7.36134 4.27929 7.24929 4.43595 7.14568 4.59858C6.86036 5.04644 6.64319 5.53311 6.50039 6.04257C6.20158 5.63243 5.78238 5.32216 5.29798 5.15717C4.72947 4.96353 4.10995 4.98322 3.55488 5.21256C2.99982 5.4419 2.54708 5.86525 2.28105 6.4037C2.01502 6.94215 1.95386 7.55896 2.10896 8.13917C2.26406 8.71938 2.62484 9.2234 3.12406 9.55728C3.62327 9.89117 4.22686 10.0321 4.82233 9.95392C5.4178 9.87571 5.96451 9.58364 6.36056 9.13216C6.39822 9.08924 6.43426 9.04515 6.46867 9H5V7H9L9 7.5C9 7.50098 9 7.50196 9 7.50293V8L8.9674 8.04074C8.85902 8.93627 8.4832 9.78318 7.88284 10.4676C7.16274 11.2884 6.16872 11.8195 5.08605 11.9617C4.00339 12.1039 2.90595 11.8476 1.99828 11.2405C1.09062 10.6334 0.434652 9.71705 0.152653 8.66212C-0.129347 7.6072 -0.0181399 6.48573 0.465546 5.50673C0.949231 4.52773 1.77239 3.75801 2.78161 3.34102C3.79082 2.92404 4.91722 2.88824 5.95088 3.24031Z" fill="#42A5F5"/>
</svg>
