<svg width="16" height="16" viewBox="0 0 16 16" fill="none" xmlns="http://www.w3.org/2000/svg">
<g clip-path="url(#clip0_821_1224)">
<path fill-rule="evenodd" clip-rule="evenodd" d="M0 4C0 1.79086 1.79086 0 4 0H12C14.2091 0 16 1.79086 16 4V12C16 14.2091 14.2091 16 12 16H4C1.79086 16 0 14.2091 0 12V4ZM5 7V3H7V7H5ZM11 7V3H9V7H11ZM13.5433 10.2961C13.8448 9.56815 14 8.78793 14 8H12.0002C12.0002 8.52531 11.8967 9.04548 11.6957 9.53081C11.4947 10.0161 11.2 10.4571 10.8286 10.8286C10.4571 11.2 10.0161 11.4947 9.53081 11.6957C9.04548 11.8967 8.52531 12.0002 8 12.0002L8 14C8.78793 14 9.56815 13.8448 10.2961 13.5433C11.0241 13.2417 11.6855 12.7998 12.2426 12.2426C12.7998 11.6855 13.2417 11.0241 13.5433 10.2961Z" fill="#FFCC4A"/>
</g>
<defs>
<clipPath id="clip0_821_1224">
<rect width="16" height="16" fill="white"/>
</clipPath>
</defs>
</svg>
