<svg width="16" height="16" viewBox="0 0 16 16" fill="none" xmlns="http://www.w3.org/2000/svg">
<path fill-rule="evenodd" clip-rule="evenodd" d="M16 0H0V16H16V0ZM9.87868 14.1213C9.31607 13.5587 9 12.7956 9 12H11.0001C11.0001 12.2652 11.1054 12.5195 11.293 12.707C11.4805 12.8946 11.7348 12.9999 12 12.9999C12.2652 12.9999 12.5195 12.8946 12.707 12.707C12.8946 12.5195 12.9999 12.2652 12.9999 12C12.9999 11.8687 12.974 11.7387 12.9238 11.6174C12.8735 11.496 12.7999 11.3858 12.707 11.293C12.6142 11.2001 12.504 11.1265 12.3826 11.0762C12.2613 11.026 12.1313 11.0001 12 11.0001V11C11.606 11 11.2159 10.9224 10.8519 10.7716C10.488 10.6209 10.1573 10.3999 9.87868 10.1213C9.6001 9.84274 9.37913 9.51203 9.22836 9.14805C9.0776 8.78407 9 8.39396 9 8C9 7.20435 9.31607 6.44129 9.87868 5.87868C10.4413 5.31607 11.2043 5 12 5C12.7956 5 13.5587 5.31607 14.1213 5.87868C14.6839 6.44129 15 7.20435 15 8L12.9999 8C12.9999 7.73481 12.8946 7.48048 12.707 7.29296C12.5195 7.10545 12.2652 7.0001 12 7.0001C11.7348 7.0001 11.4805 7.10545 11.293 7.29296C11.1054 7.48048 11.0001 7.73481 11.0001 8C11.0001 8.13131 11.026 8.26133 11.0762 8.38264C11.1265 8.50396 11.2001 8.61419 11.293 8.70704C11.3858 8.79988 11.496 8.87354 11.6174 8.92379C11.7387 8.97404 11.8687 8.9999 12 8.9999V9C12.394 9 12.7841 9.0776 13.1481 9.22836C13.512 9.37913 13.8427 9.6001 14.1213 9.87868C14.3999 10.1573 14.6209 10.488 14.7716 10.8519C14.9224 11.2159 15 11.606 15 12C15 12.7957 14.6839 13.5587 14.1213 14.1213C13.5587 14.6839 12.7956 15 12 15C11.2043 15 10.4413 14.6839 9.87868 14.1213ZM8 5H4V7H6V12H5.9999C5.9999 12.2652 5.89455 12.5195 5.70704 12.707C5.51952 12.8946 5.26519 12.9999 5 12.9999C4.73481 12.9999 4.48048 12.8946 4.29296 12.707C4.10545 12.5195 4.0001 12.2652 4.0001 12H2C2 12.7956 2.31607 13.5587 2.87868 14.1213C3.44129 14.6839 4.20435 15 5 15C5.79565 15 6.55871 14.6839 7.12132 14.1213C7.68393 13.5587 8 12.7957 8 12V7V5Z" fill="#FFCC4A"/>
</svg>
