<svg width="16" height="16" viewBox="0 0 16 16" fill="none" xmlns="http://www.w3.org/2000/svg">
<g clip-path="url(#clip0_821_825)">
<path d="M11 0H13C14.1046 0 15 0.89543 15 2V6L16 7.5V8.5L15 10V14C15 15.1046 14.1046 16 13 16H11V14H13V10L14 8.5V7.5L13 6V2H11V0Z" fill="#FFCC4A"/>
<rect x="4" y="7" width="2" height="2" fill="#FFCC4A"/>
<rect x="7" y="7" width="2" height="2" fill="#FFCC4A"/>
<rect x="10" y="7" width="2" height="2" fill="#FFCC4A"/>
<path d="M5 0H3C1.89543 0 1 0.89543 1 2V6L0 7.5V8.5L1 10V14C1 15.1046 1.89543 16 3 16H5V14H3V10L2 8.5V7.5L3 6V2H5V0Z" fill="#FFCC4A"/>
</g>
<defs>
<clipPath id="clip0_821_825">
<rect width="16" height="16" fill="white"/>
</clipPath>
</defs>
</svg>
