<svg width="16" height="16" viewBox="0 0 16 16" fill="none" xmlns="http://www.w3.org/2000/svg">
<g clip-path="url(#clip0_821_1094)">
<path fill-rule="evenodd" clip-rule="evenodd" d="M11.3586 13.5902L11.3599 13.59L11.3601 13.5899C11.36 13.5897 11.3568 13.5896 11.3509 13.5904C11.3546 13.5905 11.3571 13.5904 11.3586 13.5902ZM11.2274 13.4993C11.2224 13.5234 11.2175 13.545 11.2126 13.5643C11.1934 13.5589 11.1722 13.5524 11.1488 13.5446C10.8716 13.4522 10.4601 13.2256 9.94429 12.8013C9.63663 12.5481 9.31449 12.2434 8.98617 11.8921C9.22472 11.5892 9.46111 11.2688 9.6932 10.9327C10.1004 10.8998 10.496 10.8552 10.8775 10.8001C11.0177 11.2601 11.1205 11.6914 11.1859 12.0844C11.2955 12.7434 11.2859 13.213 11.2274 13.4993ZM12 14.9282C11.0872 15.4552 9.55955 14.6634 8 13.0324C6.44045 14.6634 4.91282 15.4552 4 14.9282C3.08718 14.4012 3.00909 12.6823 3.64186 10.5162C1.44954 9.98109 0 9.05402 0 7.99998C0 6.94595 1.44954 6.01888 3.64185 5.48381C3.00908 3.31768 3.08718 1.59881 4 1.07179C4.91282 0.544776 6.44046 1.33658 8.00001 2.96765C9.55955 1.33659 11.0872 0.544784 12 1.0718C12.9128 1.59881 12.9909 3.31768 12.3581 5.48381C14.5505 6.01888 16 6.94595 16 7.99998C16 9.05402 14.5505 9.98108 12.3581 10.5162C12.9909 12.6823 12.9128 14.4012 12 14.9282ZM6.05571 12.8013C6.36338 12.5482 6.68551 12.2434 7.01383 11.8921C6.77528 11.5892 6.53889 11.2688 6.30681 10.9327C5.89964 10.8998 5.504 10.8552 5.12247 10.8001C4.98234 11.2601 4.8795 11.6914 4.81413 12.0844C4.70452 12.7434 4.71407 13.213 4.77262 13.4993C4.77756 13.5234 4.78254 13.5451 4.78743 13.5643C4.80657 13.5589 4.82778 13.5524 4.85117 13.5446C5.12836 13.4522 5.53986 13.2257 6.05571 12.8013ZM11.1859 3.91556C11.1205 4.30856 11.0177 4.73989 10.8775 5.19991C10.496 5.14473 10.1004 5.10021 9.69317 5.06731C9.4611 4.73114 9.22472 4.41077 8.98617 4.10794C9.3145 3.75658 9.63663 3.45185 9.94429 3.19873C10.4601 2.77435 10.8716 2.54779 11.1488 2.45537C11.1722 2.44757 11.1934 2.44108 11.2126 2.43568C11.2175 2.45495 11.2224 2.47656 11.2274 2.50071C11.2859 2.78698 11.2955 3.25663 11.1859 3.91556ZM4.1363 9.09197C4.27929 8.73397 4.43855 8.36907 4.61364 8C4.43854 7.63092 4.27927 7.26601 4.13629 6.908C3.66784 7.01666 3.24287 7.14327 2.86983 7.28316C2.24438 7.5177 1.84243 7.76079 1.62379 7.95464C1.60534 7.97099 1.58912 7.98611 1.57487 7.99998C1.58912 8.01386 1.60534 8.02898 1.62379 8.04533C1.84243 8.23917 2.24438 8.48227 2.86983 8.71681C3.24287 8.8567 3.66785 8.98331 4.1363 9.09197ZM6.30683 5.0673C6.53891 4.73114 6.77529 4.41076 7.01383 4.10794C6.68551 3.75657 6.36338 3.45184 6.05571 3.19872C5.53986 2.77434 5.12836 2.54778 4.85117 2.45536C4.82778 2.44756 4.80657 2.44107 4.78743 2.43567C4.78254 2.45494 4.77756 2.47655 4.77262 2.50071C4.71407 2.78698 4.70452 3.25662 4.81413 3.91555C4.8795 4.30856 4.98233 4.73989 5.12246 5.19991C5.504 5.14473 5.89965 5.10021 6.30683 5.0673ZM11.8637 9.09197C11.7207 8.73397 11.5615 8.36907 11.3864 8C11.5615 7.63092 11.7207 7.26601 11.8637 6.908C12.3322 7.01666 12.7571 7.14327 13.1302 7.28316C13.7556 7.5177 14.1576 7.76079 14.3762 7.95464C14.3947 7.97099 14.4109 7.98611 14.4251 7.99999C14.4109 8.01386 14.3947 8.02898 14.3762 8.04533C14.1576 8.23917 13.7556 8.48227 13.1302 8.71681C12.7571 8.8567 12.3322 8.98331 11.8637 9.09197ZM4.83904 2.29513C4.83917 2.29534 4.83762 2.29811 4.83401 2.3028C4.8371 2.29725 4.8389 2.29491 4.83904 2.29513ZM4.63992 2.41008C4.6398 2.40986 4.64273 2.40947 4.64908 2.40957C4.64321 2.41036 4.64004 2.41031 4.63992 2.41008ZM11.166 13.6972C11.1629 13.7027 11.1611 13.7051 11.161 13.7049C11.1608 13.7046 11.1624 13.7019 11.166 13.6972ZM14.521 7.88503C14.5213 7.88503 14.5202 7.88777 14.5169 7.89321C14.5192 7.88774 14.5208 7.88502 14.521 7.88503ZM1.47896 7.88503C1.47921 7.88502 1.48084 7.88774 1.48309 7.89321C1.47983 7.88777 1.4787 7.88503 1.47896 7.88503ZM1.47896 8.11494C1.4787 8.11494 1.47983 8.1122 1.48309 8.10676C1.48084 8.11223 1.47921 8.11495 1.47896 8.11494ZM14.5169 8.10676C14.5202 8.1122 14.5213 8.11494 14.521 8.11494C14.5208 8.11495 14.5192 8.11223 14.5169 8.10676ZM11.161 2.29513C11.1611 2.29492 11.1629 2.29726 11.166 2.3028C11.1624 2.29812 11.1608 2.29535 11.161 2.29513ZM4.63992 13.5899C4.64004 13.5897 4.64321 13.5896 4.64908 13.5904C4.64273 13.5905 4.6398 13.5901 4.63992 13.5899ZM4.83904 13.7049C4.8389 13.7051 4.8371 13.7027 4.83401 13.6972C4.83762 13.7019 4.83917 13.7047 4.83904 13.7049ZM11.3509 2.40957C11.3573 2.40948 11.3602 2.40987 11.3601 2.41009C11.36 2.41031 11.3568 2.41036 11.3509 2.40957ZM8 10C9.10457 10 10 9.10457 10 8C10 6.89543 9.10457 6 8 6C6.89543 6 6 6.89543 6 8C6 9.10457 6.89543 10 8 10Z" fill="#42A5F5"/>
<circle cx="8" cy="8" r="1" fill="#42A5F5"/>
</g>
<defs>
<clipPath id="clip0_821_1094">
<rect width="16" height="16" fill="white"/>
</clipPath>
</defs>
</svg>
