<svg width="16" height="16" viewBox="0 0 16 16" fill="none" xmlns="http://www.w3.org/2000/svg">
<g clip-path="url(#clip0_821_755)">
<path fill-rule="evenodd" clip-rule="evenodd" d="M2.45672 3.7039C2.15519 4.43185 2 5.21207 2 6V8C0.895431 8 0 8.89543 0 10V14C0 15.1046 0.895431 16 2 16H14C15.1046 16 16 15.1046 16 14V10C16 8.89543 15.1046 8 14 8V6C14 5.21207 13.8448 4.43185 13.5433 3.7039C13.2417 2.97595 12.7998 2.31451 12.2426 1.75736C11.6855 1.20021 11.0241 0.758251 10.2961 0.456723C9.56815 0.155195 8.78793 0 8 0C7.21207 0 6.43185 0.155194 5.7039 0.456723C4.97595 0.758251 4.31451 1.20021 3.75736 1.75736C3.20021 2.31451 2.75825 2.97595 2.45672 3.7039ZM12.0002 6C12.0002 5.47469 11.8967 4.95452 11.6957 4.46919C11.4947 3.98386 11.2 3.54288 10.8286 3.17143C10.4571 2.79998 10.0161 2.50533 9.53081 2.3043C9.04548 2.10327 8.52531 1.9998 8 1.9998C7.47469 1.9998 6.95452 2.10327 6.46919 2.3043C5.98386 2.50533 5.54288 2.79998 5.17143 3.17143C4.79998 3.54288 4.50533 3.98386 4.3043 4.46919C4.10327 4.95452 3.9998 5.47469 3.9998 6L4 6V8H12V6L12.0002 6ZM7 10H9V14H7V10Z" fill="#6C7780"/>
</g>
<defs>
<clipPath id="clip0_821_755">
<rect width="16" height="16" fill="white"/>
</clipPath>
</defs>
</svg>
