<svg width="16" height="16" viewBox="0 0 16 16" fill="none" xmlns="http://www.w3.org/2000/svg">
<path d="M15 11.6C15 11.904 14.8367 12.168 14.5878 12.304L8.44333 15.856C8.31889 15.952 8.16333 16 8 16C7.83667 16 7.68111 15.952 7.55667 15.856L1.41223 12.304C1.28753 12.2366 1.18318 12.1353 1.1105 12.0112C1.03783 11.8871 0.999612 11.7449 1 11.6V4.4C1 4.096 1.16334 3.832 1.41223 3.696L7.55667 0.144C7.68111 0.0480001 7.83667 0 8 0C8.16333 0 8.31889 0.0480001 8.44333 0.144L14.5878 3.696C14.8367 3.832 15 4.096 15 4.4V11.6ZM8 1.72L3.36445 4.4L8 7.08L12.6356 4.4L8 1.72ZM2.55556 11.128L7.22222 13.832V8.464L2.55556 5.768V11.128Z" fill="#42A5F5"/>
</svg>
