<svg width="16" height="16" viewBox="0 0 16 16" fill="none" xmlns="http://www.w3.org/2000/svg">
<g clip-path="url(#clip0_821_1124)">
<path fill-rule="evenodd" clip-rule="evenodd" d="M4.27245 3.96153L0.754519 9.99226C-0.023247 11.3256 0.938497 13 2.48208 13H6.29456C5.47464 12.0757 5.23397 10.6664 5.95992 9.45651L8.42754 5.34381C8.44546 5.31395 8.46376 5.28455 8.48245 5.25561L7.72756 3.96152C6.9558 2.63851 5.0442 2.63852 4.27245 3.96153ZM9.05635 6.23945L6.81742 9.97101C6.01759 11.3041 6.97781 13 8.5324 13H9.51793C11.0615 13 12.0233 11.3256 11.2455 9.99226L9.05635 6.23945Z" fill="#8BC34A"/>
<path d="M6.81741 9.97101L9.28503 5.85831C10.0618 4.56363 11.9382 4.56363 12.715 5.85831L15.1826 9.97101C15.9824 11.3041 15.0222 13 13.4676 13H8.5324C6.97781 13 6.01758 11.3041 6.81741 9.97101Z" fill="#8BC34A"/>
</g>
<defs>
<clipPath id="clip0_821_1124">
<rect width="16" height="16" fill="white"/>
</clipPath>
</defs>
</svg>
