<svg width="16" height="16" viewBox="0 0 16 16" fill="none" xmlns="http://www.w3.org/2000/svg">
<g clip-path="url(#clip0_901_81)">
<mask id="path-1-inside-1_901_81" fill="white">
<path fill-rule="evenodd" clip-rule="evenodd" d="M8 16C12.4183 16 16 12.4183 16 8C16 5.53627 14.8863 3.33266 13.1348 1.86515L1.86515 13.1348C3.33266 14.8863 5.53627 16 8 16ZM1.04463 11.9554L11.9554 1.04463C10.7888 0.379808 9.43876 0 8 0C3.58172 0 0 3.58172 0 8C0 9.43876 0.379808 10.7888 1.04463 11.9554Z"/>
</mask>
<path d="M13.1348 1.86515L14.4193 0.332147L13.0156 -0.844024L11.7206 0.450938L13.1348 1.86515ZM1.86515 13.1348L0.450938 11.7206L-0.844024 13.0156L0.332147 14.4193L1.86515 13.1348ZM1.04463 11.9554L-0.692995 12.9456L0.605077 15.2234L2.45884 13.3696L1.04463 11.9554ZM11.9554 1.04463L13.3696 2.45884L15.2234 0.605077L12.9456 -0.692995L11.9554 1.04463ZM14 8C14 11.3137 11.3137 14 8 14V18C13.5228 18 18 13.5228 18 8H14ZM11.8504 3.39816C13.1677 4.50193 14 6.15282 14 8H18C18 4.91972 16.6049 2.16339 14.4193 0.332147L11.8504 3.39816ZM11.7206 0.450938L0.450938 11.7206L3.27936 14.5491L14.5491 3.27936L11.7206 0.450938ZM8 14C6.15282 14 4.50193 13.1677 3.39816 11.8504L0.332147 14.4193C2.16339 16.6049 4.91972 18 8 18V14ZM2.45884 13.3696L13.3696 2.45884L10.5412 -0.369582L-0.369582 10.5412L2.45884 13.3696ZM8 2C9.08243 2 10.0923 2.28484 10.9651 2.78226L12.9456 -0.692995C11.4853 -1.52523 9.79509 -2 8 -2V2ZM2 8C2 4.68629 4.68629 2 8 2V-2C2.47715 -2 -2 2.47715 -2 8H2ZM2.78226 10.9651C2.28484 10.0923 2 9.08243 2 8H-2C-2 9.79509 -1.52523 11.4853 -0.692995 12.9456L2.78226 10.9651Z" fill="#42A5F5" mask="url(#path-1-inside-1_901_81)"/>
</g>
<defs>
<clipPath id="clip0_901_81">
<rect width="16" height="16" fill="white"/>
</clipPath>
</defs>
</svg>
