<svg width="16" height="16" viewBox="0 0 16 16" fill="none" xmlns="http://www.w3.org/2000/svg">
<path fill-rule="evenodd" clip-rule="evenodd" d="M8 13C12.4183 13 16 10.3137 16 7C16 3.68629 12.4183 1 8 1C3.58172 1 0 3.68629 0 7C0 10.3137 3.58172 13 8 13ZM3 10H4V8C4.26264 8 4.52271 7.94827 4.76536 7.84776C5.00801 7.74725 5.22849 7.59993 5.41421 7.41422C5.59993 7.2285 5.74725 7.00802 5.84776 6.76537C5.94827 6.52272 6 6.26265 6 6C6 5.73736 5.94827 5.47729 5.84776 5.23463C5.74725 4.99198 5.59993 4.7715 5.41421 4.58579C5.2285 4.40007 5.00802 4.25275 4.76537 4.15224C4.52272 4.05173 4.26264 4 4 4H3V10ZM4.38268 6.92388C4.26136 6.97413 4.13132 7 4 7L4 5C4.13132 5 4.26136 5.02587 4.38268 5.07612C4.50401 5.12638 4.61425 5.20004 4.70711 5.29289C4.79997 5.38575 4.87363 5.49599 4.92388 5.61732C4.97413 5.73864 5 5.86868 5 6C5 6.13132 4.97413 6.26136 4.92388 6.38269C4.87362 6.50401 4.79996 6.61425 4.70711 6.70711C4.61425 6.79997 4.50401 6.87363 4.38268 6.92388ZM8 4H7V10H8V7H9V10H10V4H9V6H8V4ZM11 4H12C12.2626 4 12.5227 4.05173 12.7654 4.15224C13.008 4.25275 13.2285 4.40007 13.4142 4.58579C13.5999 4.7715 13.7473 4.99198 13.8478 5.23463C13.9483 5.47729 14 5.73736 14 6C14 6.26265 13.9483 6.52272 13.8478 6.76537C13.7472 7.00802 13.5999 7.2285 13.4142 7.41422C13.2285 7.59993 13.008 7.74725 12.7654 7.84776C12.5227 7.94827 12.2626 8 12 8L12 10H11V4ZM12 7C12.1313 7 12.2614 6.97413 12.3827 6.92388C12.504 6.87363 12.6142 6.79997 12.7071 6.70711C12.8 6.61425 12.8736 6.50401 12.9239 6.38269C12.9741 6.26136 13 6.13132 13 6C13 5.86868 12.9741 5.73864 12.9239 5.61732C12.8736 5.49599 12.8 5.38575 12.7071 5.29289C12.6142 5.20004 12.504 5.12638 12.3827 5.07612C12.2614 5.02587 12.1313 5 12 5L12 7Z" fill="#42A5F5"/>
</svg>
