<svg width="16" height="16" viewBox="0 0 16 16" fill="none" xmlns="http://www.w3.org/2000/svg">
<path fill-rule="evenodd" clip-rule="evenodd" d="M12 13C12 14.6569 10.6569 16 9 16H7C5.34315 16 4 14.6569 4 13V11.5C4 9.84315 5.34315 8.5 7 8.5H9C11.2091 8.5 13 6.70914 13 4.5V4C14.6569 4 16 5.34315 16 7V7.5C16 9.70914 14.2091 11.5 12 11.5H8C8 12.0523 8.44772 12.5 9 12.5H12V13ZM9.5 15C9.77614 15 10 14.7761 10 14.5C10 14.2239 9.77614 14 9.5 14C9.22386 14 9 14.2239 9 14.5C9 14.7761 9.22386 15 9.5 15Z" fill="#FFCC4A"/>
<path fill-rule="evenodd" clip-rule="evenodd" d="M7 0H9C10.6569 0 12 1.34315 12 3V4.5C12 6.15685 10.6569 7.5 9 7.5H7C4.79086 7.5 3 9.29086 3 11.5V12C1.34315 12 0 10.6569 0 9V8.5C0 6.29086 1.79086 4.5 4 4.5H8C8 3.94772 7.55228 3.5 7 3.5H4V3C4 1.34315 5.34315 0 7 0ZM6.5 2C6.77614 2 7 1.77614 7 1.5C7 1.22386 6.77614 1 6.5 1C6.22386 1 6 1.22386 6 1.5C6 1.77614 6.22386 2 6.5 2Z" fill="#42A5F5"/>
</svg>
