<svg width="16" height="16" viewBox="0 0 16 16" fill="none" xmlns="http://www.w3.org/2000/svg">
<path fill-rule="evenodd" clip-rule="evenodd" d="M12.3801 10.9004C13.9775 9.98404 15 8.57732 15 7C15 4.23858 11.866 2 8 2C4.13401 2 1 4.23858 1 7C1 8.99457 2.63505 10.7164 5 11.5188V4H10C11.6569 4 13 5.34315 13 7C13 7.86907 12.6305 8.65182 12.0399 9.19971L12.3801 10.9004ZM10.5325 11.6627L10.1987 9.99352C10.133 9.99782 10.0668 10 10 10H7V11.9494C7.3266 11.9827 7.66048 12 8 12C8.89312 12 9.74718 11.8805 10.5325 11.6627ZM10 8H7V6H10C10.5523 6 11 6.44772 11 7C11 7.55228 10.5523 8 10 8Z" fill="#42A5F5"/>
<path fill-rule="evenodd" clip-rule="evenodd" d="M12.3801 10.9005C11.827 11.2178 11.2049 11.4763 10.5325 11.6627L11 14H13L12.3801 10.9005ZM7 11.9494C6.29385 11.8772 5.62171 11.7298 5 11.5188V14H7V11.9494Z" fill="#42A5F5"/>
</svg>
