<svg width="16" height="16" viewBox="0 0 16 16" fill="none" xmlns="http://www.w3.org/2000/svg">
<path fill-rule="evenodd" clip-rule="evenodd" d="M8 9V16H2C0.895431 16 0 15.1046 0 14V2C0 0.895431 0.895431 0 2 0H8V3H4V13H6V9H8ZM8 5V7H6V5H8Z" fill="#FF5252"/>
<path fill-rule="evenodd" clip-rule="evenodd" d="M8 9H9C9.06677 9 9.13303 8.99782 9.19871 8.99352L10 13H12L11.0399 8.19971C11.6305 7.65182 12 6.86907 12 6C12 4.34315 10.6569 3 9 3H8V5H9C9.55228 5 10 5.44772 10 6C10 6.55228 9.55228 7 9 7H8V9Z" fill="#FF5252"/>
</svg>
