<svg width="16" height="16" viewBox="0 0 16 16" fill="none" xmlns="http://www.w3.org/2000/svg">
<path fill-rule="evenodd" clip-rule="evenodd" d="M2 2C2 0.895431 2.89543 0 4 0H10L14 4V14C14 15.1046 13.1046 16 12 16H4C2.89543 16 2 15.1046 2 14V2ZM11.7644 11.0309C11.9067 10.9531 12 10.8023 12 10.6286V6.51429C12 6.34057 11.9067 6.18971 11.7644 6.112L8.25333 4.08229C8.18222 4.02743 8.09333 4 8 4C7.90667 4 7.81778 4.02743 7.74667 4.08229L4.23556 6.112C4.09333 6.18971 4 6.34057 4 6.51429V10.6286C3.99978 10.7114 4.02162 10.7926 4.06315 10.8636C4.10467 10.9345 4.1643 10.9923 4.23556 11.0309L7.74667 13.0606C7.81778 13.1154 7.90667 13.1429 8 13.1429C8.09333 13.1429 8.18222 13.1154 8.25333 13.0606L11.7644 11.0309ZM5.35111 6.51429L8 4.98286L10.6489 6.51429L8 8.04571L5.35111 6.51429ZM7.55556 11.904L4.88889 10.3589V7.296L7.55556 8.83657V11.904Z" fill="url(#paint0_linear_437_83)"/>
<defs>
<linearGradient id="paint0_linear_437_83" x1="8" y1="0" x2="8" y2="16" gradientUnits="userSpaceOnUse">
<stop stop-color="#FF5252"/>
<stop offset="0.187433" stop-color="#FF9800"/>
<stop offset="0.375377" stop-color="#FFCC4A"/>
<stop offset="0.625204" stop-color="#8BC34A"/>
<stop offset="0.812451" stop-color="#42A5F5"/>
<stop offset="1" stop-color="#A56FFF"/>
</linearGradient>
</defs>
</svg>
