<svg width="16" height="16" viewBox="0 0 16 16" fill="none" xmlns="http://www.w3.org/2000/svg">
<path fill-rule="evenodd" clip-rule="evenodd" d="M2 2C2 0.895431 2.89543 0 4 0H12C13.1046 0 14 0.895431 14 2V14C14 15.1046 13.1046 16 12 16H4C2.89543 16 2 15.1046 2 14V2ZM5 10C5 10.7956 5.31607 11.5587 5.87868 12.1213C6.44129 12.6839 7.20435 13 8 13C8.79565 13 9.55871 12.6839 10.1213 12.1213C10.6839 11.5587 11 10.7957 11 10C11 9.60604 10.9224 9.21593 10.7716 8.85195C10.6209 8.48797 10.3999 8.15726 10.1213 7.87868C9.84274 7.6001 9.51203 7.37913 9.14805 7.22836C8.78407 7.0776 8.39397 7 8 7V6.9999C7.86869 6.9999 7.73867 6.97404 7.61735 6.92379C7.49604 6.87354 7.38581 6.79989 7.29296 6.70704C7.20011 6.61419 7.12646 6.50396 7.07621 6.38265C7.02596 6.26133 7.0001 6.13131 7.0001 6C7.0001 5.73481 7.10545 5.48048 7.29296 5.29296C7.48048 5.10545 7.73481 5.0001 8 5.0001C8.26519 5.0001 8.51952 5.10545 8.70704 5.29296C8.89455 5.48048 8.9999 5.73481 8.9999 6L11 6C11 5.20435 10.6839 4.44129 10.1213 3.87868C9.55871 3.31607 8.79565 3 8 3C7.20435 3 6.44129 3.31607 5.87868 3.87868C5.31607 4.44129 5 5.20435 5 6C5 6.39397 5.0776 6.78407 5.22836 7.14805C5.37913 7.51203 5.6001 7.84274 5.87868 8.12132C6.15726 8.3999 6.48797 8.62087 6.85195 8.77164C7.21593 8.9224 7.60603 9 8 9V9.0001C8.13131 9.0001 8.26133 9.02596 8.38265 9.07621C8.50396 9.12646 8.61419 9.20012 8.70704 9.29296C8.79989 9.38581 8.87354 9.49604 8.92379 9.61736C8.97404 9.73867 8.9999 9.86869 8.9999 10C8.9999 10.2652 8.89455 10.5195 8.70704 10.707C8.51952 10.8946 8.26519 10.9999 8 10.9999C7.73481 10.9999 7.48048 10.8946 7.29296 10.707C7.10545 10.5195 7.0001 10.2652 7.0001 10H5Z" fill="url(#paint0_linear_60_60)"/>
<defs>
<linearGradient id="paint0_linear_60_60" x1="8" y1="0" x2="8" y2="16" gradientUnits="userSpaceOnUse">
<stop stop-color="#FF5252"/>
<stop offset="0.187433" stop-color="#FF9800"/>
<stop offset="0.375377" stop-color="#FFCC4A"/>
<stop offset="0.625204" stop-color="#8BC34A"/>
<stop offset="0.812451" stop-color="#42A5F5"/>
<stop offset="1" stop-color="#A56FFF"/>
</linearGradient>
</defs>
</svg>
