<svg width="16" height="16" viewBox="0 0 16 16" fill="none" xmlns="http://www.w3.org/2000/svg">
<path fill-rule="evenodd" clip-rule="evenodd" d="M2 2C2 0.895431 2.89543 0 4 0H10L14 4V14C14 15.1046 13.1046 16 12 16H4C2.89543 16 2 15.1046 2 14V2ZM5 7C5 6.20435 5.31607 5.44129 5.87868 4.87868C6.44129 4.31607 7.20435 4 8 4C8.79565 4 9.55871 4.31607 10.1213 4.87868C10.6839 5.44129 11 6.20435 11 7L8.9999 7C8.9999 6.73481 8.89455 6.48048 8.70704 6.29296C8.51952 6.10545 8.26519 6.0001 8 6.0001C7.73481 6.0001 7.48048 6.10545 7.29296 6.29296C7.10545 6.48048 7.0001 6.73481 7.0001 7C7.0001 7.13131 7.02596 7.26133 7.07621 7.38265C7.12646 7.50396 7.20011 7.61419 7.29296 7.70704C7.38581 7.79989 7.49604 7.87354 7.61735 7.92379C7.73867 7.97404 7.86869 7.9999 8 7.9999V8C8.39397 8 8.78407 8.0776 9.14805 8.22836C9.51203 8.37913 9.84274 8.6001 10.1213 8.87868C10.3999 9.15726 10.6209 9.48797 10.7716 9.85195C10.9224 10.2159 11 10.606 11 11C11 11.7957 10.6839 12.5587 10.1213 13.1213C9.55871 13.6839 8.79565 14 8 14C7.20435 14 6.44129 13.6839 5.87868 13.1213C5.31607 12.5587 5 11.7956 5 11H7.0001C7.0001 11.2652 7.10545 11.5195 7.29296 11.707C7.48048 11.8946 7.73481 11.9999 8 11.9999C8.26519 11.9999 8.51952 11.8946 8.70704 11.707C8.89455 11.5195 8.9999 11.2652 8.9999 11C8.9999 10.8687 8.97404 10.7387 8.92379 10.6174C8.87354 10.496 8.79989 10.3858 8.70704 10.293C8.61419 10.2001 8.50396 10.1265 8.38265 10.0762C8.26133 10.026 8.13131 10.0001 8 10.0001V10C7.60603 10 7.21593 9.9224 6.85195 9.77164C6.48797 9.62087 6.15726 9.3999 5.87868 9.12132C5.6001 8.84274 5.37913 8.51203 5.22836 8.14805C5.0776 7.78407 5 7.39397 5 7Z" fill="url(#paint0_linear_821_1167)"/>
<defs>
<linearGradient id="paint0_linear_821_1167" x1="8" y1="0" x2="8" y2="16" gradientUnits="userSpaceOnUse">
<stop stop-color="#FF5252"/>
<stop offset="0.187433" stop-color="#FF9800"/>
<stop offset="0.375377" stop-color="#FFCC4A"/>
<stop offset="0.625204" stop-color="#8BC34A"/>
<stop offset="0.812451" stop-color="#42A5F5"/>
<stop offset="1" stop-color="#A56FFF"/>
</linearGradient>
</defs>
</svg>
