<svg width="16" height="16" viewBox="0 0 16 16" fill="none" xmlns="http://www.w3.org/2000/svg">
<rect x="2" y="1" width="12" height="6" rx="3" fill="#4AC390"/>
<path fill-rule="evenodd" clip-rule="evenodd" d="M2.21831 6.87442C2.07753 7.22199 2 7.60195 2 8.00001C2 9.65687 3.34315 11 5 11H11C12.6569 11 14 9.65687 14 8.00001C14 7.60195 13.9225 7.22199 13.7817 6.87442C13.0618 7.57121 12.081 8.00001 11 8.00001H5C3.91901 8.00001 2.93818 7.57121 2.21831 6.87442Z" fill="#4AC390"/>
<path fill-rule="evenodd" clip-rule="evenodd" d="M2.21831 10.8744C2.07753 11.222 2 11.6019 2 12C2 13.6569 3.34315 15 5 15H11C12.6569 15 14 13.6569 14 12C14 11.6019 13.9225 11.222 13.7817 10.8744C13.0618 11.5712 12.081 12 11 12H5C3.91901 12 2.93817 11.5712 2.21831 10.8744Z" fill="#4AC390"/>
</svg>
