<svg width="16" height="16" viewBox="0 0 16 16" fill="none" xmlns="http://www.w3.org/2000/svg">
<path fill-rule="evenodd" clip-rule="evenodd" d="M2 16V2L10 0.666667V3H12V0.333333L14 0V16H2ZM5.87868 4.87868C5.31607 5.44129 5 6.20435 5 7C5 7.39397 5.0776 7.78407 5.22836 8.14805C5.37913 8.51203 5.6001 8.84274 5.87868 9.12132C6.15726 9.3999 6.48797 9.62087 6.85195 9.77164C7.21593 9.9224 7.60603 10 8 10V10.0001C8.13131 10.0001 8.26133 10.026 8.38265 10.0762C8.50396 10.1265 8.61419 10.2001 8.70704 10.293C8.79989 10.3858 8.87354 10.496 8.92379 10.6174C8.97404 10.7387 8.9999 10.8687 8.9999 11C8.9999 11.2652 8.89455 11.5195 8.70704 11.707C8.51952 11.8946 8.26519 11.9999 8 11.9999C7.73481 11.9999 7.48048 11.8946 7.29296 11.707C7.10545 11.5195 7.0001 11.2652 7.0001 11H5C5 11.7956 5.31607 12.5587 5.87868 13.1213C6.44129 13.6839 7.20435 14 8 14C8.79565 14 9.55871 13.6839 10.1213 13.1213C10.6839 12.5587 11 11.7957 11 11C11 10.606 10.9224 10.2159 10.7716 9.85195C10.6209 9.48797 10.3999 9.15726 10.1213 8.87868C9.84274 8.6001 9.51203 8.37913 9.14805 8.22836C8.78407 8.0776 8.39397 8 8 8V7.9999C7.86869 7.9999 7.73867 7.97404 7.61735 7.92379C7.49604 7.87354 7.38581 7.79989 7.29296 7.70704C7.20011 7.61419 7.12646 7.50396 7.07621 7.38265C7.02596 7.26133 7.0001 7.13131 7.0001 7C7.0001 6.73481 7.10545 6.48048 7.29296 6.29296C7.48048 6.10545 7.73481 6.0001 8 6.0001C8.26519 6.0001 8.51952 6.10545 8.70704 6.29296C8.89455 6.48048 8.9999 6.73481 8.9999 7L11 7C11 6.20435 10.6839 5.44129 10.1213 4.87868C9.55871 4.31607 8.79565 4 8 4C7.20435 4 6.44129 4.31607 5.87868 4.87868Z" fill="#FF5252"/>
</svg>
