<svg width="16" height="16" viewBox="0 0 16 16" fill="none" xmlns="http://www.w3.org/2000/svg">
<g clip-path="url(#clip0_821_1129)">
<path fill-rule="evenodd" clip-rule="evenodd" d="M6.89543 -2.40033e-05C5.65254 -2.3919e-05 4.46056 0.49371 3.58171 1.37256L5.79097 3.58182C6.08389 3.2889 6.48118 3.12434 6.89543 3.12433C7.30968 3.12433 7.70697 3.2889 7.99989 3.58182C8.01294 3.59487 8.02574 3.60812 8.03827 3.62158C8.93532 2.94876 9.99212 2.58774 11.0606 2.53852C10.8407 2.11209 10.5547 1.71812 10.2091 1.37256C9.33029 0.49371 8.13831 -2.3919e-05 6.89543 -2.40033e-05ZM10.2092 8.00011L10.2091 8L9.59695 7.3878L7.99999 5.79085C8.43515 5.35569 8.95177 5.0105 9.52034 4.77499C10.0889 4.53948 10.6983 4.41826 11.3137 4.41827C11.9291 4.41827 12.5385 4.53948 13.1071 4.77499C13.6756 5.0105 14.1923 5.35569 14.6274 5.79086C15.0626 6.22602 15.4078 6.74264 15.6433 7.3112C15.8788 7.87977 16 8.48916 16 9.10458C16 9.71999 15.8788 10.3294 15.6433 10.8979C15.4078 11.4665 15.0626 11.9831 14.6274 12.4183L14.6274 12.4183L12.4183 14.6274C11.5395 15.5063 10.3475 16 9.10459 16C7.8617 16 6.66972 15.5063 5.79087 14.6274C5.44533 14.2819 5.15933 13.888 4.93946 13.4616C6.00794 13.4123 7.06474 13.0513 7.96179 12.3785C7.97431 12.3919 7.98709 12.4052 8.00013 12.4182C8.29305 12.7111 8.69033 12.8757 9.10459 12.8757C9.51884 12.8757 9.91613 12.7111 10.209 12.4182L10.2092 12.4183L12.4183 10.2092L12.4182 10.209C12.5632 10.064 12.6783 9.89181 12.7568 9.7023C12.8352 9.5128 12.8757 9.30969 12.8757 9.10457C12.8757 8.89945 12.8353 8.69635 12.7568 8.50684C12.6783 8.31734 12.5632 8.14515 12.4182 8.00011C12.2731 7.85507 12.1009 7.74002 11.9114 7.66152C11.7219 7.58303 11.5188 7.54262 11.3137 7.54262C11.1086 7.54262 10.9055 7.58302 10.716 7.66152C10.5265 7.74002 10.3543 7.85507 10.2092 8.00011ZM6.47967 11.225C7.04822 10.9895 7.56483 10.6443 7.99998 10.2092L7.99999 10.2092L10.2091 8.00003L7.99999 5.79088L5.79087 8.00001L5.79076 7.99988C5.64572 8.14492 5.47353 8.25997 5.28403 8.33846C5.09452 8.41696 4.89141 8.45736 4.68629 8.45736C4.48118 8.45736 4.27807 8.41696 4.08856 8.33846C3.89906 8.25997 3.72687 8.14492 3.58183 7.99988C3.43679 7.85484 3.32174 7.68265 3.24325 7.49314C3.16475 7.30364 3.12435 7.10053 3.12435 6.89541C3.12435 6.6903 3.16475 6.48719 3.24325 6.29768C3.32174 6.10818 3.43679 5.93599 3.58183 5.79095L3.58172 5.79084L5.79085 3.58172L3.5817 1.37257L1.37258 3.58169C1.37257 3.5817 1.37257 3.58171 1.37256 3.58172C0.937405 4.01688 0.592222 4.53348 0.356717 5.10204C0.121207 5.67061 -8.22706e-06 6.27999 -8.89956e-06 6.89541C-9.57206e-06 7.51082 0.121205 8.12021 0.356713 8.68878C0.592221 9.25735 0.937412 9.77396 1.37258 10.2091C1.80774 10.6443 2.32435 10.9895 2.89292 11.225C3.46149 11.4605 4.07088 11.5817 4.68629 11.5817C5.30171 11.5817 5.9111 11.4605 6.47967 11.225Z" fill="#EF652F"/>
</g>
<defs>
<clipPath id="clip0_821_1129">
<rect width="16" height="16" fill="white"/>
</clipPath>
</defs>
</svg>
