<svg width="16" height="16" viewBox="0 0 16 16" fill="none" xmlns="http://www.w3.org/2000/svg">
<g clip-path="url(#clip0_821_1129)">
<path fill-rule="evenodd" clip-rule="evenodd" d="M6.91187 0.705096C9.02713 -0.637277 11.9695 -0.0135479 13.4475 2.11527C14.1661 3.1051 14.4509 4.35255 14.2203 5.57289C14.1254 6.14238 13.9085 6.68476 13.5831 7.17289C14.0576 8.05425 14.2068 9.0712 14.0305 10.061C13.8271 11.2407 13.122 12.2848 12.1051 12.922L8.37628 15.2949C6.26102 16.6373 3.33221 16.0136 1.84069 13.8848C1.1356 12.8949 0.850855 11.6475 1.0678 10.4407C1.16272 9.8712 1.37967 9.32882 1.70509 8.84069C1.23052 7.95933 1.08136 6.94238 1.25763 5.95255C1.46102 4.77289 2.16611 3.72882 3.18306 3.09154L6.91187 0.705096ZM3.37288 12.9085C4.07797 13.9254 5.33899 14.4 6.54577 14.0881C6.81695 14.0068 7.07458 13.8983 7.30509 13.7491L11.0339 11.3763C11.6441 10.9966 12.078 10.3593 12.2 9.65423C12.322 8.92203 12.1593 8.17626 11.7254 7.57965C11.0203 6.56271 9.75933 6.08813 8.55255 6.39999C8.28136 6.48135 8.02373 6.58982 7.79322 6.73898L6.36949 7.64745C6.3017 7.68813 6.22034 7.71525 6.13899 7.74236L6.13899 7.74237C5.77288 7.83728 5.39322 7.70169 5.17627 7.38982C5.05424 7.21355 5 6.98304 5.04068 6.76609C5.08136 6.54915 5.20339 6.37287 5.39322 6.25084L9.10848 3.87796C9.17627 3.83728 9.25763 3.81016 9.33899 3.78304C9.70509 3.68813 10.0847 3.82372 10.3017 4.13559C10.4102 4.2983 10.4644 4.50169 10.4508 4.69152L10.4373 4.82711L10.5729 4.86779C11.1017 5.0305 11.5898 5.27457 12.0373 5.59999L12.2271 5.73559L12.2949 5.51864C12.3356 5.3966 12.3627 5.28813 12.3898 5.16609C12.5119 4.43389 12.3492 3.68813 11.9153 3.09152C11.2102 2.07457 9.94915 1.59999 8.74238 1.91186C8.47119 1.99321 8.21356 2.10169 7.98305 2.25084L4.25424 4.62372C3.64407 5.00338 3.21017 5.64067 3.08814 6.34576C2.95254 7.07796 3.12882 7.82372 3.54915 8.42033C4.25424 9.43728 5.51526 9.91186 6.72204 9.59999C6.99322 9.5322 7.25085 9.42372 7.48136 9.27457L8.90509 8.36609C8.97288 8.32542 9.05424 8.2983 9.1356 8.27118C9.5017 8.17626 9.88136 8.31186 10.0983 8.62372C10.2203 8.79999 10.2746 9.0305 10.2339 9.24745C10.1932 9.4644 10.0712 9.64067 9.88136 9.7627L6.1661 12.1356C6.09831 12.1763 6.01696 12.2034 5.93561 12.2305L5.9356 12.2305C5.56949 12.3254 5.18983 12.1763 4.97288 11.8644C4.86441 11.7017 4.81017 11.4983 4.82373 11.3085L4.83729 11.1729L4.7017 11.1322C4.17288 10.9695 3.68475 10.7254 3.23729 10.4L3.04746 10.2644L2.97966 10.4813C2.9661 10.5424 2.95255 10.6 2.93899 10.6576C2.92543 10.7152 2.91187 10.7729 2.89831 10.8339C2.77627 11.5661 2.93899 12.3119 3.37288 12.9085Z" fill="#EF652F"/>
</g>
<defs>
<clipPath id="clip0_821_1129">
<rect width="16" height="16" fill="white"/>
</clipPath>
</defs>
</svg>
