<svg width="16" height="16" viewBox="0 0 16 16" fill="none" xmlns="http://www.w3.org/2000/svg">
<path fill-rule="evenodd" clip-rule="evenodd" d="M2 1C0.895431 1 0 1.89543 0 3V13C0 14.1046 0.895431 15 2 15H14C15.1046 15 16 14.1046 16 13V3C16 1.89543 15.1046 1 14 1H2ZM4 6C4.55228 6 5 5.55228 5 5C5 4.44772 4.55228 4 4 4C3.44772 4 3 4.44772 3 5C3 5.55228 3.44772 6 4 6ZM4 7C5.10457 7 6 6.10457 6 5C6 3.89543 5.10457 3 4 3C2.89543 3 2 3.89543 2 5C2 6.10457 2.89543 7 4 7ZM8.29289 9.29289L7.70711 8.70711L7 8L6.29289 8.70711L3 12L2 13H3.41421H13H14V12V6.41421V5L13 6L9.70711 9.29289L9 10L8.29289 9.29289ZM13 7.41421L9.70711 10.7071L9 11.4142L8.29289 10.7071L7 9.41421L4.41421 12H13V7.41421Z" fill="#FFCC4A"/>
</svg>
