<svg width="16" height="16" viewBox="0 0 16 16" fill="none" xmlns="http://www.w3.org/2000/svg">
<path fill-rule="evenodd" clip-rule="evenodd" d="M0 2C0 0.895431 0.895431 0 2 0H14C15.1046 0 16 0.895431 16 2V14C16 15.1046 15.1046 16 14 16H2C0.895431 16 0 15.1046 0 14V2ZM9.87868 4.87868C9.31607 5.44129 9 6.20435 9 7C9 7.39397 9.0776 7.78407 9.22836 8.14805C9.37913 8.51203 9.6001 8.84274 9.87868 9.12132C10.1573 9.3999 10.488 9.62087 10.8519 9.77164C11.2159 9.9224 11.606 10 12 10V10.0001C12.1313 10.0001 12.2613 10.026 12.3826 10.0762C12.504 10.1265 12.6142 10.2001 12.707 10.293C12.7999 10.3858 12.8735 10.496 12.9238 10.6174C12.974 10.7387 12.9999 10.8687 12.9999 11C12.9999 11.2652 12.8946 11.5195 12.707 11.707C12.5195 11.8946 12.2652 11.9999 12 11.9999C11.7348 11.9999 11.4805 11.8946 11.293 11.707C11.1054 11.5195 11.0001 11.2652 11.0001 11H9C9 11.7956 9.31607 12.5587 9.87868 13.1213C10.4413 13.6839 11.2043 14 12 14C12.7956 14 13.5587 13.6839 14.1213 13.1213C14.6839 12.5587 15 11.7957 15 11C15 10.606 14.9224 10.2159 14.7716 9.85195C14.6209 9.48797 14.3999 9.15726 14.1213 8.87868C13.8427 8.6001 13.512 8.37913 13.1481 8.22836C12.7841 8.0776 12.394 8 12 8V7.9999C11.8687 7.9999 11.7387 7.97404 11.6174 7.92379C11.496 7.87354 11.3858 7.79989 11.293 7.70704C11.2001 7.61419 11.1265 7.50396 11.0762 7.38265C11.026 7.26133 11.0001 7.13131 11.0001 7C11.0001 6.73481 11.1054 6.48048 11.293 6.29296C11.4805 6.10545 11.7348 6.0001 12 6.0001C12.2652 6.0001 12.5195 6.10545 12.707 6.29296C12.8946 6.48048 12.9999 6.73481 12.9999 7L15 7C15 6.20435 14.6839 5.44129 14.1213 4.87868C13.5587 4.31607 12.7956 4 12 4C11.2043 4 10.4413 4.31607 9.87868 4.87868ZM2 4H8V6H6V14H4V6H2V4Z" fill="#42A5F5"/>
</svg>
