<svg width="16" height="16" viewBox="0 0 16 16" fill="none" xmlns="http://www.w3.org/2000/svg">
<path fill-rule="evenodd" clip-rule="evenodd" d="M0 0H16V16H0V0ZM9 12C9 12.7956 9.31607 13.5587 9.87868 14.1213C10.4413 14.6839 11.2043 15 12 15C12.7956 15 13.5587 14.6839 14.1213 14.1213C14.6839 13.5587 15 12.7957 15 12C15 11.606 14.9224 11.2159 14.7716 10.8519C14.6209 10.488 14.3999 10.1573 14.1213 9.87868C13.8427 9.6001 13.512 9.37913 13.1481 9.22836C12.7841 9.0776 12.394 9 12 9V8.9999C11.8687 8.9999 11.7387 8.97404 11.6174 8.92379C11.496 8.87354 11.3858 8.79988 11.293 8.70704C11.2001 8.61419 11.1265 8.50396 11.0762 8.38264C11.026 8.26133 11.0001 8.13131 11.0001 8C11.0001 7.73481 11.1054 7.48048 11.293 7.29296C11.4805 7.10545 11.7348 7.0001 12 7.0001C12.2652 7.0001 12.5195 7.10545 12.707 7.29296C12.8946 7.48048 12.9999 7.73481 12.9999 8L15 8C15 7.20435 14.6839 6.44129 14.1213 5.87868C13.5587 5.31607 12.7956 5 12 5C11.2043 5 10.4413 5.31607 9.87868 5.87868C9.31607 6.44129 9 7.20435 9 8C9 8.39396 9.0776 8.78407 9.22836 9.14805C9.37913 9.51203 9.6001 9.84274 9.87868 10.1213C10.1573 10.3999 10.488 10.6209 10.8519 10.7716C11.2159 10.9224 11.606 11 12 11V11.0001C12.1313 11.0001 12.2613 11.026 12.3826 11.0762C12.504 11.1265 12.6142 11.2001 12.707 11.293C12.7999 11.3858 12.8735 11.496 12.9238 11.6174C12.974 11.7387 12.9999 11.8687 12.9999 12C12.9999 12.2652 12.8946 12.5195 12.707 12.707C12.5195 12.8946 12.2652 12.9999 12 12.9999C11.7348 12.9999 11.4805 12.8946 11.293 12.707C11.1054 12.5195 11.0001 12.2652 11.0001 12H9ZM4 15V7H2V5H8V7H6V15H4Z" fill="#42A5F5"/>
</svg>
