<svg width="16" height="16" viewBox="0 0 16 16" fill="none" xmlns="http://www.w3.org/2000/svg">
<g clip-path="url(#clip0_821_910)">
<path fill-rule="evenodd" clip-rule="evenodd" d="M8 2C9.10457 2 10 1.10457 10 0H14C15.1046 0 16 0.895431 16 2V14C16 15.1046 15.1046 16 14 16H2C0.895431 16 0 15.1046 0 14V2C0 0.895431 0.895431 0 2 0H6C6 1.10457 6.89543 2 8 2ZM12.9 8C12.4367 5.71776 10.419 4 8 4L7.29288 4.70711C7.10535 4.89464 6.99999 5.149 6.99999 5.41421V6.29289C6.99999 6.68342 7.31658 7 7.7071 7C7.89464 7 8.0745 7.0745 8.20711 7.20711L9.70711 8.70711C9.89464 8.89464 10.149 9 10.4142 9H10.5858C10.851 9 11.1053 8.89464 11.2929 8.70711L11.7071 8.29289C11.8946 8.10536 12.149 8 12.4142 8H12.9ZM3 9C3 11.0478 4.23104 12.808 5.99345 13.5811C5.99775 13.5547 6 13.5276 6 13.5C6 13.2239 6.22386 13 6.5 13H7C7.55228 13 8 12.5523 8 12V11.4142C8 11.149 7.89464 10.8946 7.70711 10.7071L6.29289 9.29289C6.10536 9.10535 5.851 9 5.58578 9L3 9ZM8 15C11.3137 15 14 12.3137 14 9C14 5.68629 11.3137 3 8 3C4.68629 3 2 5.68629 2 9C2 12.3137 4.68629 15 8 15Z" fill="#6C7780"/>
</g>
<defs>
<clipPath id="clip0_821_910">
<rect width="16" height="16" fill="white"/>
</clipPath>
</defs>
</svg>
