<svg width="16" height="16" viewBox="0 0 16 16" fill="none" xmlns="http://www.w3.org/2000/svg">
<path fill-rule="evenodd" clip-rule="evenodd" d="M8 2C9.10457 2 10 1.10457 10 0H14C15.1046 0 16 0.895431 16 2V14C16 15.1046 15.1046 16 14 16H2C0.895431 16 0 15.1046 0 14V2C0 0.895431 0.895431 0 2 0H6C6 1.10457 6.89543 2 8 2ZM5 6H3V14H5L6.5 12L8 14H10V6H8V11L6.5 9L5 11V6ZM13.8858 5.07403C13.8208 5.23092 13.7301 5.37476 13.618 5.5C13.7301 5.62524 13.8208 5.76908 13.8858 5.92597C13.9994 6.20006 14.0291 6.50166 13.9712 6.79264C13.9133 7.08361 13.7704 7.35088 13.5607 7.56066C13.3509 7.77044 13.0836 7.9133 12.7926 7.97118C12.5017 8.02906 12.2001 7.99935 11.926 7.88582C11.6519 7.77229 11.4176 7.58003 11.2528 7.33336C11.088 7.08668 11 6.79667 11 6.5H12C12 6.59888 12.0294 6.69554 12.0843 6.77776C12.1392 6.85997 12.2173 6.92405 12.3087 6.96189C12.4 6.99973 12.5006 7.00963 12.5975 6.99034C12.6945 6.97105 12.7836 6.92344 12.8535 6.85352C12.9234 6.7836 12.9711 6.69452 12.9903 6.59754C13.0096 6.50055 12.9997 6.40003 12.9619 6.30868C12.9241 6.21732 12.86 6.13924 12.7778 6.08431C12.6955 6.02937 12.5989 6.00005 12.5 6.00005V6H12V5H12.5V4.99995C12.5989 4.99995 12.6955 4.97063 12.7778 4.91569C12.86 4.86076 12.9241 4.78268 12.9619 4.69132C12.9997 4.59997 13.0096 4.49945 12.9903 4.40246C12.9711 4.30548 12.9234 4.2164 12.8535 4.14648C12.7836 4.07656 12.6945 4.02895 12.5975 4.00966C12.5006 3.99037 12.4 4.00027 12.3087 4.03811C12.2173 4.07595 12.1392 4.14003 12.0843 4.22224C12.0294 4.30446 12 4.40112 12 4.5H11C11 4.20333 11.088 3.91332 11.2528 3.66664C11.4176 3.41997 11.6519 3.22771 11.926 3.11418C12.2001 3.00065 12.5017 2.97094 12.7926 3.02882C13.0836 3.0867 13.3509 3.22956 13.5607 3.43934C13.7704 3.64912 13.9133 3.91639 13.9712 4.20736C14.0291 4.49834 13.9994 4.79994 13.8858 5.07403Z" fill="#6C7780"/>
</svg>
