<svg width="16" height="16" viewBox="0 0 16 16" fill="none" xmlns="http://www.w3.org/2000/svg">
<path fill-rule="evenodd" clip-rule="evenodd" d="M10 0C10 1.10457 9.10457 2 8 2C6.89543 2 6 1.10457 6 0H2C0.895431 0 0 0.895431 0 2V14C0 15.1046 0.895431 16 2 16H14C15.1046 16 16 15.1046 16 14V2C16 0.895431 15.1046 0 14 0H10ZM10.7002 8.99968C10.7002 9.40759 10.664 9.80321 10.6161 10.1995H12.6443C12.7451 9.80743 12.7974 9.40448 12.8001 8.99968C12.8001 8.5853 12.7399 8.18386 12.6443 7.79987H10.6161C10.664 8.1955 10.7002 8.59177 10.7002 8.99968ZM10.3821 11.3993C10.1901 12.1492 9.91401 12.8693 9.5539 13.5352C10.6485 13.1585 11.5709 12.4003 12.1523 11.3993H10.3821ZM6.59674 10.1995H9.40391H9.40456C9.45887 9.80321 9.50089 9.40759 9.50089 8.99968C9.50089 8.59177 9.45887 8.18968 9.40456 7.79987H6.59674C6.53661 8.18968 6.5004 8.59177 6.5004 8.99968C6.5004 9.40759 6.53661 9.80321 6.59674 10.1995ZM8.00065 13.7745C7.50298 13.0551 7.10032 12.2569 6.8547 11.3993H9.1466C8.90097 12.2569 8.49896 13.0551 8.00065 13.7745ZM3.84839 6.59942H5.60045C5.81057 5.84954 6.08081 5.1294 6.44092 4.46356C5.34559 4.83632 4.42382 5.59572 3.84839 6.59942ZM5.60045 11.3993H3.84839C4.42747 12.3999 5.34792 13.1582 6.44092 13.5352C6.08081 12.8693 5.81057 12.1492 5.60045 11.3993ZM3.19994 8.99968C3.20278 9.40451 3.25532 9.80746 3.35639 10.1995H5.38387C5.33603 9.80321 5.29982 9.40759 5.29982 8.99968C5.29982 8.59177 5.33603 8.1955 5.38387 7.79922H3.35575C3.26006 8.18321 3.19994 8.58595 3.19994 8.99968ZM8 4.21837C7.50169 4.9384 7.09967 5.74177 6.85405 6.59942H9.14595C8.90033 5.74177 8.49767 4.93775 8 4.21837ZM10.3821 6.59942H12.1523C11.5729 5.59704 10.6501 4.83832 9.55455 4.46356C9.91655 5.13907 10.1945 5.85636 10.3821 6.59942ZM2 8.99968C2 5.70021 4.68175 3.00065 7.99968 3.00065L8.00032 3C8.78827 3 9.56849 3.15519 10.2964 3.45671C11.0244 3.75823 11.6858 4.20017 12.243 4.7573C12.8001 5.31443 13.242 5.97584 13.5435 6.70375C13.845 7.43166 14.0001 8.21182 14 8.99968C14.0002 9.78764 13.8451 10.5679 13.5436 11.296C13.2421 12.024 12.8002 12.6855 12.243 13.2427C11.6858 13.7999 11.0242 14.2419 10.2962 14.5434C9.56808 14.8449 8.78773 15.0001 7.99968 15C7.21168 15 6.4314 14.8448 5.7034 14.5432C4.9754 14.2417 4.31395 13.7997 3.75681 13.2425C3.19967 12.6853 2.75776 12.0238 2.45633 11.2958C2.15489 10.5678 1.99983 9.78759 2 8.99968Z" fill="#808080"/>
</svg>
