<svg width="226" height="142" viewBox="0 0 226 142" fill="none" xmlns="http://www.w3.org/2000/svg">
<path fill-rule="evenodd" clip-rule="evenodd" d="M8 16C12.4183 16 16 12.4183 16 8C16 3.58172 12.4183 0 8 0C3.58172 0 0 3.58172 0 8C0 12.4183 3.58172 16 8 16ZM8 14C11.3137 14 14 11.3137 14 8C14 4.68629 11.3137 2 8 2C4.68629 2 2 4.68629 2 8C2 11.3137 4.68629 14 8 14Z" fill="#C4C4C4"/>
<circle cx="8" cy="8" r="4" fill="#C4C4C4"/>
<path fill-rule="evenodd" clip-rule="evenodd" d="M29 16C33.4183 16 37 12.4183 37 8C37 3.58172 33.4183 0 29 0C24.5817 0 21 3.58172 21 8C21 12.4183 24.5817 16 29 16ZM29 14C32.3137 14 35 11.3137 35 8C35 4.68629 32.3137 2 29 2C25.6863 2 23 4.68629 23 8C23 11.3137 25.6863 14 29 14Z" fill="#C4C4C4"/>
<path d="M56 15H44C42.8954 15 42 14.1046 42 13V3C42 1.89543 42.8954 1 44 1H48L50 3H56C57.1046 3 58 3.89543 58 5V13C58 14.1046 57.1046 15 56 15Z" fill="#C4C4C4"/>
<path fill-rule="evenodd" clip-rule="evenodd" d="M65 15H77C78.1046 15 79 14.1046 79 13V5C79 3.89543 78.1046 3 77 3H71L69 1H65C63.8954 1 63 1.89543 63 3V13C63 14.1046 63.8954 15 65 15ZM77 13H65V3H68L70 5H77V13Z" fill="#C4C4C4"/>
<path fill-rule="evenodd" clip-rule="evenodd" d="M88 16C86.8954 16 86 15.1046 86 14V2C86 0.895431 86.8954 0 88 0H94L98 4V14C98 15.1046 97.1046 16 96 16H88ZM88 2V14H96V7H93C91.8954 7 91 6.10457 91 5V2H88ZM93 5V2L96 5H93Z" fill="#42A5F5"/>
<path fill-rule="evenodd" clip-rule="evenodd" d="M2 23C0.895431 23 0 23.8954 0 25V33C0 34.1046 0.895431 35 2 35H14C15.1046 35 16 34.1046 16 33V25C16 23.8954 15.1046 23 14 23H2ZM2 33H14V25L9 30L7 28L2 33ZM5 26.5C5 27.3284 4.32843 28 3.5 28C2.67157 28 2 27.3284 2 26.5C2 25.6716 2.67157 25 3.5 25C4.32843 25 5 25.6716 5 26.5Z" fill="#8BC34A"/>
<path fill-rule="evenodd" clip-rule="evenodd" d="M23 21C21.8954 21 21 21.8954 21 23V35C21 36.1046 21.8954 37 23 37H35C36.1046 37 37 36.1046 37 35V23C37 21.8954 36.1046 21 35 21H23ZM33 24H36V27H33V26.946L31 28.2823V31H27V30.9551L25 32.2914V34H22V31H25V31.0887L27 29.7524V27H31V27.0797L33 25.7433V24Z" fill="#FFCC4A"/>
<path fill-rule="evenodd" clip-rule="evenodd" d="M50 37C54.4183 37 58 33.4183 58 29C58 24.5817 54.4183 21 50 21C45.5817 21 42 24.5817 42 29C42 33.4183 45.5817 37 50 37ZM51 25H50V29.2676C49.7058 29.0974 49.3643 29 49 29C47.8954 29 47 29.8954 47 31C47 32.1046 47.8954 33 49 33C50.1046 33 51 32.1046 51 31V27H53V25H51Z" fill="#FF5252"/>
<path fill-rule="evenodd" clip-rule="evenodd" d="M65 22C63.8954 22 63 22.8954 63 24V34C63 35.1046 63.8954 36 65 36H77C78.1046 36 79 35.1046 79 34V24C79 22.8954 78.1046 22 77 22H65ZM75 24H77V26H75V24ZM77 28H75V30H77V28ZM77 32H75V34H77V32ZM67 32H65V34H67V32ZM65 28H67V30H65V28ZM67 24H65V26H67V24ZM69 26L73 29L69 32V26Z" fill="#FF9800"/>
<path d="M99 32.6C99 32.904 98.8367 33.168 98.5878 33.304L92.4433 36.856C92.3189 36.952 92.1633 37 92 37C91.8367 37 91.6811 36.952 91.5567 36.856L85.4122 33.304C85.2875 33.2366 85.1832 33.1353 85.1105 33.0112C85.0378 32.8871 84.9996 32.7449 85 32.6V25.4C85 25.096 85.1633 24.832 85.4122 24.696L91.5567 21.144C91.6811 21.048 91.8367 21 92 21C92.1633 21 92.3189 21.048 92.4433 21.144L98.5878 24.696C98.8367 24.832 99 25.096 99 25.4V32.6ZM92 22.72L87.3644 25.4L92 28.08L96.6356 25.4L92 22.72ZM86.5556 32.128L91.2222 34.832V29.464L86.5556 26.768V32.128Z" fill="#42A5F5"/>
<path d="M119.171 29C119.171 28.816 119.163 28.64 119.146 28.456L120.676 27.328C121.006 27.088 121.096 26.64 120.89 26.288L119.352 23.704C119.146 23.352 118.702 23.208 118.323 23.368L116.554 24.096C116.25 23.888 115.929 23.704 115.592 23.552L115.353 21.704C115.304 21.304 114.95 21 114.539 21H111.47C111.05 21 110.696 21.304 110.647 21.704L110.408 23.552C110.071 23.704 109.75 23.888 109.446 24.096L107.677 23.368C107.298 23.208 106.854 23.352 106.648 23.704L105.11 26.296C104.904 26.648 104.994 27.088 105.324 27.336L106.854 28.464C106.837 28.64 106.829 28.816 106.829 29C106.829 29.184 106.837 29.36 106.854 29.544L105.324 30.672C104.994 30.912 104.904 31.36 105.11 31.712L106.648 34.296C106.854 34.648 107.298 34.792 107.677 34.632L109.446 33.904C109.75 34.112 110.071 34.296 110.408 34.448L110.647 36.296C110.696 36.696 111.05 37 111.461 37H114.53C114.942 37 115.296 36.696 115.345 36.296L115.583 34.448C115.921 34.296 116.242 34.112 116.546 33.904L118.315 34.632C118.694 34.792 119.138 34.648 119.344 34.296L120.882 31.712C121.088 31.36 120.997 30.92 120.668 30.672L119.138 29.544C119.163 29.36 119.171 29.184 119.171 29ZM113.033 31.8C111.445 31.8 110.153 30.544 110.153 29C110.153 27.456 111.445 26.2 113.033 26.2C114.621 26.2 115.913 27.456 115.913 29C115.913 30.544 114.621 31.8 113.033 31.8Z" fill="#808080"/>
<path fill-rule="evenodd" clip-rule="evenodd" d="M136 21C136 22.1046 135.105 23 134 23C132.895 23 132 22.1046 132 21H128C126.895 21 126 21.8954 126 23V35C126 36.1046 126.895 37 128 37H140C141.105 37 142 36.1046 142 35V23C142 21.8954 141.105 21 140 21H136ZM132 24H134V26H132V24ZM134 28V26H136V28H134ZM134 30H132V28H134V30ZM134 30H136V32H134V30Z" fill="#8BC34A"/>
<path fill-rule="evenodd" clip-rule="evenodd" d="M156 23C156 21.8954 155.105 21 154 21C152.895 21 152 21.8954 152 23H149C147.895 23 147 23.8954 147 25V28C148.105 28 149 28.8954 149 30C149 31.1046 148.105 32 147 32V35C147 36.1046 147.895 37 149 37H152C152 35.8954 152.895 35 154 35C155.105 35 156 35.8954 156 37H159C160.105 37 161 36.1046 161 35V32C162.105 32 163 31.1046 163 30C163 28.8954 162.105 28 161 28V25C161 23.8954 160.105 23 159 23H156Z" fill="#808080"/>
<path fill-rule="evenodd" clip-rule="evenodd" d="M168 23C168 21.8954 168.895 21 170 21H182C183.105 21 184 21.8954 184 23V35C184 36.1046 183.105 37 182 37H170C168.895 37 168 36.1046 168 35V23ZM180 34H178V24H180V34ZM171.228 32.1481C171.078 31.7841 171 31.394 171 31V27C171 26.606 171.078 26.2159 171.228 25.8519C171.379 25.488 171.6 25.1573 171.879 24.8787C172.157 24.6001 172.488 24.3791 172.852 24.2284C173.216 24.0776 173.606 24 174 24C174.394 24 174.784 24.0776 175.148 24.2284C175.512 24.3791 175.843 24.6001 176.121 24.8787C176.4 25.1573 176.621 25.488 176.772 25.852C176.922 26.2159 177 26.606 177 27V31C177 31.394 176.922 31.7841 176.772 32.148C176.621 32.512 176.4 32.8427 176.121 33.1213C175.843 33.3999 175.512 33.6209 175.148 33.7716C174.784 33.9224 174.394 34 174 34C173.606 34 173.216 33.9224 172.852 33.7716C172.488 33.6209 172.157 33.3999 171.879 33.1213C171.6 32.8427 171.379 32.512 171.228 32.1481ZM175 31C175 31.128 174.95 31.2548 174.901 31.3731C174.852 31.4914 174.78 31.5989 174.689 31.6894C174.599 31.78 174.491 31.8518 174.373 31.9008C174.255 31.9498 174.128 31.975 174 31.975C173.872 31.975 173.745 31.9498 173.627 31.9008C173.509 31.8518 173.401 31.78 173.311 31.6894C173.22 31.5989 173.148 31.4914 173.099 31.3731C173.05 31.2548 173 31.128 173 31V27C173 26.872 173.05 26.7452 173.099 26.6269C173.148 26.5086 173.22 26.4011 173.311 26.3106C173.401 26.22 173.509 26.1482 173.627 26.0992C173.745 26.0502 173.872 26.025 174 26.025C174.128 26.025 174.255 26.0502 174.373 26.0992C174.491 26.1482 174.599 26.22 174.689 26.3106C174.78 26.4011 174.852 26.5086 174.901 26.6269C174.95 26.7452 175 26.872 175 27V31Z" fill="#808080"/>
<path fill-rule="evenodd" clip-rule="evenodd" d="M203 22C204.105 22 205 22.8954 205 24V34C205 35.1046 204.105 36 203 36H191C189.895 36 189 35.1046 189 34V24C189 22.8954 189.895 22 191 22H203ZM191 26V34H203V26H191ZM192 25C192.552 25 193 24.5523 193 24C193 23.4477 192.552 23 192 23C191.448 23 191 23.4477 191 24C191 24.5523 191.448 25 192 25ZM195 25C195.552 25 196 24.5523 196 24C196 23.4477 195.552 23 195 23C194.448 23 194 23.4477 194 24C194 24.5523 194.448 25 195 25ZM199 24C199 24.5523 198.552 25 198 25C197.448 25 197 24.5523 197 24C197 23.4477 197.448 23 198 23C198.552 23 199 23.4477 199 24Z" fill="#EF652F"/>
<path fill-rule="evenodd" clip-rule="evenodd" d="M226 24C226 22.8954 225.105 22 224 22H212C210.895 22 210 22.8954 210 24V34C210 35.1046 210.895 36 212 36H224C225.105 36 226 35.1046 226 34V24ZM212 34V26H224V34H212ZM218 32H222V33H218V32ZM214 27L217 30L214 33V31L215 30L214 29V27Z" fill="#EF652F"/>
<path fill-rule="evenodd" clip-rule="evenodd" d="M4 58C2.89543 58 2 57.1046 2 56V44C2 42.8954 2.89543 42 4 42H10L14 46V56C14 57.1046 13.1046 58 12 58H4ZM4 44V56H12V49H9C7.89543 49 7 48.1046 7 47V44H4ZM9 47V44L12 47H9Z" fill="#42A5F5"/>
<rect x="5" y="53" width="6" height="2" fill="#42A5F5"/>
<rect x="5" y="50" width="6" height="2" fill="#42A5F5"/>
<path fill-rule="evenodd" clip-rule="evenodd" d="M25 58C23.8954 58 23 57.1046 23 56V44C23 42.8954 23.8954 42 25 42H31L35 46V56C35 57.1046 34.1046 58 33 58H25ZM25 44V56H33V49H30C28.8954 49 28 48.1046 28 47V44H25ZM30 47V44L33 47H30Z" fill="#42A5F5"/>
<rect x="26" y="53" width="6" height="2" fill="#42A5F5"/>
<rect x="26" y="50" width="3" height="2" fill="#42A5F5"/>
<rect x="30" y="50" width="2" height="2" fill="#42A5F5"/>
<path fill-rule="evenodd" clip-rule="evenodd" d="M46 58C44.8954 58 44 57.1046 44 56V44C44 42.8954 44.8954 42 46 42H52L56 46V56C56 57.1046 55.1046 58 54 58H46ZM46 44V56H54V49H51C49.8954 49 49 48.1046 49 47V44H46ZM51 47V44L54 47H51Z" fill="#8BC34A"/>
<path fill-rule="evenodd" clip-rule="evenodd" d="M47 50H49V52H47V50ZM50 50H53V52H50V50ZM47 53H49V55H47V53ZM50 53H53V55H50V53Z" fill="#8BC34A"/>
<path d="M11 63H13C14.1046 63 15 63.8954 15 65V69L16 70.5V71.5L15 73V77C15 78.1046 14.1046 79 13 79H11V77H13V73L14 71.5V70.5L13 69V65H11V63Z" fill="#FFCC4A"/>
<circle cx="11" cy="71" r="1" fill="#FFCC4A"/>
<circle cx="11" cy="71" r="1" fill="#FFCC4A"/>
<circle cx="11" cy="71" r="1" fill="#FFCC4A"/>
<circle cx="8" cy="71" r="1" fill="#FFCC4A"/>
<circle cx="8" cy="71" r="1" fill="#FFCC4A"/>
<circle cx="8" cy="71" r="1" fill="#FFCC4A"/>
<circle cx="5" cy="71" r="1" fill="#FFCC4A"/>
<circle cx="5" cy="71" r="1" fill="#FFCC4A"/>
<circle cx="5" cy="71" r="1" fill="#FFCC4A"/>
<path d="M5 63H3C1.89543 63 1 63.8954 1 65V69L0 70.5V71.5L1 73V77C1 78.1046 1.89543 79 3 79H5V77H3V73L2 71.5V70.5L3 69V65H5V63Z" fill="#FFCC4A"/>
<path d="M33 63H35C36.1046 63 37 63.8954 37 65V77C37 78.1046 36.1046 79 35 79H33V77H35V65H33V63Z" fill="#42A5F5"/>
<circle cx="32" cy="74" r="1" fill="#42A5F5"/>
<circle cx="32" cy="74" r="1" fill="#42A5F5"/>
<circle cx="32" cy="74" r="1" fill="#42A5F5"/>
<circle cx="29" cy="74" r="1" fill="#42A5F5"/>
<circle cx="29" cy="74" r="1" fill="#42A5F5"/>
<circle cx="29" cy="74" r="1" fill="#42A5F5"/>
<circle cx="26" cy="74" r="1" fill="#42A5F5"/>
<circle cx="26" cy="74" r="1" fill="#42A5F5"/>
<circle cx="26" cy="74" r="1" fill="#42A5F5"/>
<path d="M25 63H23C21.8954 63 21 63.8954 21 65V77C21 78.1046 21.8954 79 23 79H25V77H23V65H25V63Z" fill="#42A5F5"/>
<path d="M58 71L53.5 66.5L52 68L55 71L52 74L53.5 75.5L58 71Z" fill="#8BC34A"/>
<path d="M50 77H48L50 65H52L50 77Z" fill="#8BC34A"/>
<path d="M42 71L46.5 66.5L48 68L45 71L48 74L46.5 75.5L42 71Z" fill="#8BC34A"/>
<path d="M73 69L76 63H79L76 69H73Z" fill="#FF5252"/>
<path d="M66 79H63L67 71L63 63H66L68.5 68L71 63H74L66 79Z" fill="#FF5252"/>
<path fill-rule="evenodd" clip-rule="evenodd" d="M86 65C84.8954 65 84 65.8954 84 67V75C84 76.1046 84.8954 77 86 77H98C99.1046 77 100 76.1046 100 75V67C100 65.8954 99.1046 65 98 65H86ZM88 75H86V67H88L89 69L90 67H92V75H90V71L89 73L88 71V75ZM95 72V67H97V72H99L96 75L93 72H95Z" fill="#42A5F5"/>
<path fill-rule="evenodd" clip-rule="evenodd" d="M8 100L2 98L1 84H15L14 98L8 100ZM12 86H4V92H10V95L8 95.5L6 95V94H4V96L8 97.5L12 96V90H6V88H12V86Z" fill="#EF652F"/>
<path d="M36 84H22V87H33V89H22V92H33V95.5L29 97L25 96V94H22V98L29 100L36 98V84Z" fill="#42A5F5"/>
<path d="M50 100L57 98V92L56 91H46V88L50 87L54 88V89H57V86L50 84L43 86V92L44 93H54V96L50 97L46 96V95H43V98L50 100Z" fill="#FF5252"/>
<path fill-rule="evenodd" clip-rule="evenodd" d="M65 84C63.8954 84 63 84.8954 63 86V98C63 99.1046 63.8954 100 65 100H77C78.1046 100 79 99.1046 79 98V86C79 84.8954 78.1046 84 77 84H65ZM72.8787 98.1213C72.3161 97.5587 72 96.7956 72 96H74.0001C74.0001 96.2652 74.1054 96.5195 74.293 96.707C74.4805 96.8946 74.7348 96.9999 75 96.9999C75.2652 96.9999 75.5195 96.8946 75.707 96.707C75.8946 96.5195 75.9999 96.2652 75.9999 96C75.9999 95.8687 75.974 95.7387 75.9238 95.6174C75.8735 95.496 75.7999 95.3858 75.707 95.293C75.6142 95.2001 75.504 95.1265 75.3826 95.0762C75.2613 95.026 75.1313 95.0001 75 95.0001V95C74.606 95 74.2159 94.9224 73.8519 94.7716C73.488 94.6209 73.1573 94.3999 72.8787 94.1213C72.6001 93.8427 72.3791 93.512 72.2284 93.1481C72.0776 92.7841 72 92.394 72 92C72 91.2044 72.3161 90.4413 72.8787 89.8787C73.4413 89.3161 74.2044 89 75 89C75.7956 89 76.5587 89.3161 77.1213 89.8787C77.6839 90.4413 78 91.2043 78 92L75.9999 92C75.9999 91.7348 75.8946 91.4805 75.707 91.293C75.5195 91.1054 75.2652 91.0001 75 91.0001C74.7348 91.0001 74.4805 91.1054 74.293 91.293C74.1054 91.4805 74.0001 91.7348 74.0001 92C74.0001 92.1313 74.026 92.2613 74.0762 92.3826C74.1265 92.504 74.2001 92.6142 74.293 92.707C74.3858 92.7999 74.496 92.8735 74.6174 92.9238C74.7387 92.974 74.8687 92.9999 75 92.9999V93C75.394 93 75.7841 93.0776 76.1481 93.2284C76.512 93.3791 76.8427 93.6001 77.1213 93.8787C77.3999 94.1573 77.6209 94.488 77.7716 94.8519C77.9224 95.2159 78 95.606 78 96C78 96.7957 77.6839 97.5587 77.1213 98.1213C76.5587 98.6839 75.7956 99 75 99C74.2044 99 73.4413 98.6839 72.8787 98.1213ZM71 89H67V91H69V96H68.9999C68.9999 96.2652 68.8946 96.5195 68.707 96.707C68.5195 96.8946 68.2652 96.9999 68 96.9999C67.7348 96.9999 67.4805 96.8946 67.293 96.707C67.1054 96.5195 67.0001 96.2652 67.0001 96H65C65 96.7956 65.3161 97.5587 65.8787 98.1213C66.4413 98.6839 67.2043 99 68 99C68.7956 99 69.5587 98.6839 70.1213 98.1213C70.6839 97.5587 71 96.7957 71 96V91V89Z" fill="#FFCC4A"/>
<path fill-rule="evenodd" clip-rule="evenodd" d="M84 86C84 84.8954 84.8954 84 86 84H98C99.1046 84 100 84.8954 100 86V98C100 99.1046 99.1046 100 98 100H86C84.8954 100 84 99.1046 84 98V86ZM93 96C93 96.7956 93.3161 97.5587 93.8787 98.1213C94.4413 98.6839 95.2044 99 96 99C96.7956 99 97.5587 98.6839 98.1213 98.1213C98.6839 97.5587 99 96.7957 99 96C99 95.606 98.9224 95.2159 98.7716 94.8519C98.6209 94.488 98.3999 94.1573 98.1213 93.8787C97.8427 93.6001 97.512 93.3791 97.1481 93.2284C96.7841 93.0776 96.394 93 96 93V92.9999C95.8687 92.9999 95.7387 92.974 95.6174 92.9238C95.496 92.8735 95.3858 92.7999 95.293 92.707C95.2001 92.6142 95.1265 92.504 95.0762 92.3826C95.026 92.2613 95.0001 92.1313 95.0001 92C95.0001 91.7348 95.1054 91.4805 95.293 91.293C95.4805 91.1054 95.7348 91.0001 96 91.0001C96.2652 91.0001 96.5195 91.1054 96.707 91.293C96.8946 91.4805 96.9999 91.7348 96.9999 92L99 92C99 91.2043 98.6839 90.4413 98.1213 89.8787C97.5587 89.3161 96.7956 89 96 89C95.2044 89 94.4413 89.3161 93.8787 89.8787C93.3161 90.4413 93 91.2044 93 92C93 92.394 93.0776 92.7841 93.2284 93.1481C93.3791 93.512 93.6001 93.8427 93.8787 94.1213C94.1573 94.3999 94.488 94.6209 94.8519 94.7716C95.2159 94.9224 95.606 95 96 95V95.0001C96.1313 95.0001 96.2613 95.026 96.3826 95.0762C96.504 95.1265 96.6142 95.2001 96.707 95.293C96.7999 95.3858 96.8735 95.496 96.9238 95.6174C96.974 95.7387 96.9999 95.8687 96.9999 96C96.9999 96.2652 96.8946 96.5195 96.707 96.707C96.5195 96.8946 96.2652 96.9999 96 96.9999C95.7348 96.9999 95.4805 96.8946 95.293 96.707C95.1054 96.5195 95.0001 96.2652 95.0001 96H93ZM88 99V91H86V89H92V91H90V99H88Z" fill="#42A5F5"/>
<path fill-rule="evenodd" clip-rule="evenodd" d="M115 84C115 85.1046 114.105 86 113 86C111.895 86 111 85.1046 111 84H107C105.895 84 105 84.8954 105 86V98C105 99.1046 105.895 100 107 100H119C120.105 100 121 99.1046 121 98V86C121 84.8954 120.105 84 119 84H115ZM115.7 92.9997C115.7 93.4076 115.664 93.8032 115.616 94.1995H117.644C117.745 93.8074 117.797 93.4045 117.8 92.9997C117.8 92.5853 117.74 92.1839 117.644 91.7999H115.616C115.664 92.1955 115.7 92.5918 115.7 92.9997ZM115.382 95.3993C115.19 96.1492 114.914 96.8693 114.554 97.5352C115.649 97.1585 116.571 96.4003 117.152 95.3993H115.382ZM111.597 94.1995H114.404H114.405C114.459 93.8032 114.501 93.4076 114.501 92.9997C114.501 92.5918 114.459 92.1897 114.405 91.7999H111.597C111.537 92.1897 111.5 92.5918 111.5 92.9997C111.5 93.4076 111.537 93.8032 111.597 94.1995ZM113.001 97.7745C112.503 97.0551 112.1 96.2569 111.855 95.3993H114.147C113.901 96.2569 113.499 97.0551 113.001 97.7745ZM108.848 90.5994H110.6C110.811 89.8495 111.081 89.1294 111.441 88.4636C110.346 88.8363 109.424 89.5957 108.848 90.5994ZM110.6 95.3993H108.848C109.427 96.3999 110.348 97.1582 111.441 97.5352C111.081 96.8693 110.811 96.1492 110.6 95.3993ZM108.2 92.9997C108.203 93.4045 108.255 93.8075 108.356 94.1995H110.384C110.336 93.8032 110.3 93.4076 110.3 92.9997C110.3 92.5918 110.336 92.1955 110.384 91.7992H108.356C108.26 92.1832 108.2 92.586 108.2 92.9997ZM113 88.2184C112.502 88.9384 112.1 89.7418 111.854 90.5994H114.146C113.9 89.7418 113.498 88.9378 113 88.2184ZM115.382 90.5994H117.152C116.573 89.597 115.65 88.8383 114.555 88.4636C114.917 89.1391 115.194 89.8564 115.382 90.5994ZM107 92.9997C107 89.7002 109.682 87.0006 113 87.0006L113 87C113.788 87 114.568 87.1552 115.296 87.4567C116.024 87.7582 116.686 88.2002 117.243 88.7573C117.8 89.3144 118.242 89.9758 118.543 90.7037C118.845 91.4317 119 92.2118 119 92.9997C119 93.7876 118.845 94.5679 118.544 95.296C118.242 96.024 117.8 96.6855 117.243 97.2427C116.686 97.7999 116.024 98.2419 115.296 98.5434C114.568 98.8449 113.788 99.0001 113 99C112.212 99 111.431 98.8448 110.703 98.5432C109.975 98.2417 109.314 97.7997 108.757 97.2425C108.2 96.6853 107.758 96.0238 107.456 95.2958C107.155 94.5678 107 93.7876 107 92.9997Z" fill="#808080"/>
<g clip-path="url(#clip0)">
<path d="M14.6569 118.657C13.538 119.776 12.1126 120.538 10.5607 120.846C9.00887 121.155 7.40034 120.997 5.93853 120.391C4.47672 119.786 3.22729 118.76 2.34824 117.445C1.46919 116.129 1 114.582 1 113C1 111.418 1.46919 109.871 2.34824 108.555C3.22729 107.24 4.47672 106.214 5.93853 105.609C7.40034 105.003 9.00887 104.845 10.5607 105.154C12.1126 105.462 13.538 106.224 14.6569 107.343L12.3941 109.606C11.7228 108.935 10.8675 108.477 9.93643 108.292C9.00532 108.107 8.0402 108.202 7.16312 108.565C6.28603 108.929 5.53638 109.544 5.00895 110.333C4.48151 111.123 4.2 112.051 4.2 113C4.2 113.949 4.48151 114.877 5.00895 115.667C5.53638 116.456 6.28603 117.071 7.16312 117.435C8.0402 117.798 9.00532 117.893 9.93643 117.708C10.8675 117.523 11.7228 117.065 12.3941 116.394L14.6569 118.657Z" fill="#42A5F5"/>
</g>
<path d="M34.6569 118.657C33.538 119.776 32.1126 120.538 30.5607 120.846C29.0089 121.155 27.4003 120.997 25.9385 120.391C24.4767 119.786 23.2273 118.76 22.3482 117.445C21.4692 116.129 21 114.582 21 113C21 111.418 21.4692 109.871 22.3482 108.555C23.2273 107.24 24.4767 106.214 25.9385 105.609C27.4003 105.003 29.0089 104.845 30.5607 105.154C32.1126 105.462 33.538 106.224 34.6569 107.343L33.5255 108.475C32.6304 107.579 31.4901 106.97 30.2486 106.723C29.0071 106.476 27.7203 106.603 26.5508 107.087C25.3814 107.572 24.3818 108.392 23.6786 109.444C22.9754 110.497 22.6 111.734 22.6 113C22.6 114.266 22.9754 115.503 23.6786 116.556C24.3818 117.608 25.3814 118.428 26.5508 118.913C27.7203 119.397 29.0071 119.524 30.2486 119.277C31.4901 119.03 32.6304 118.421 33.5255 117.525L34.6569 118.657Z" fill="#42A5F5"/>
<path fill-rule="evenodd" clip-rule="evenodd" d="M33 110H35V112H37V114H35V116H33V114H31V112H33V110Z" fill="#42A5F5"/>
<path fill-rule="evenodd" clip-rule="evenodd" d="M26 110H28V112H30V114H28V116H26V114H24V112H26V110Z" fill="#42A5F5"/>
<path d="M50.5355 116.536C49.8363 117.235 48.9454 117.711 47.9755 117.904C47.0055 118.097 46.0002 117.998 45.0866 117.619C44.173 117.241 43.3921 116.6 42.8427 115.778C42.2932 114.956 42 113.989 42 113C42 112.011 42.2932 111.044 42.8427 110.222C43.3921 109.4 44.173 108.759 45.0866 108.381C46.0002 108.002 47.0055 107.903 47.9755 108.096C48.9454 108.289 49.8363 108.765 50.5355 109.464L49.1213 110.879C48.7018 110.459 48.1672 110.173 47.5853 110.058C47.0033 109.942 46.4001 110.001 45.8519 110.228C45.3038 110.455 44.8352 110.84 44.5056 111.333C44.1759 111.827 44 112.407 44 113C44 113.593 44.1759 114.173 44.5056 114.667C44.8352 115.16 45.3038 115.545 45.8519 115.772C46.4001 115.999 47.0033 116.058 47.5853 115.942C48.1672 115.827 48.7018 115.541 49.1213 115.121L50.5355 116.536Z" fill="#42A5F5"/>
<path fill-rule="evenodd" clip-rule="evenodd" d="M53 109H52V111H50V112H52V114H50V115H52V117H53V115H55V117H56V115H58V114H56V112H58V111H56V109H55V111H53V109ZM53 112V114H55V112H53Z" fill="#42A5F5"/>
<path d="M78 121H63V106L67 110V117H74L78 121Z" fill="#42A5F5"/>
<path d="M64 105H79V120L75 116V109H68L64 105Z" fill="#42A5F5"/>
<path d="M68 116V111L73 116H68Z" fill="#42A5F5"/>
<path fill-rule="evenodd" clip-rule="evenodd" d="M12 139C12 140.657 10.6569 142 9 142H7C5.34315 142 4 140.657 4 139V137.5C4 135.843 5.34315 134.5 7 134.5H9C11.2091 134.5 13 132.709 13 130.5V130C14.6569 130 16 131.343 16 133V133.5C16 135.709 14.2091 137.5 12 137.5H8C8 138.052 8.44772 138.5 9 138.5H12V139ZM9.5 141C9.77614 141 10 140.776 10 140.5C10 140.224 9.77614 140 9.5 140C9.22386 140 9 140.224 9 140.5C9 140.776 9.22386 141 9.5 141Z" fill="#FFCC4A"/>
<path fill-rule="evenodd" clip-rule="evenodd" d="M7 126H9C10.6569 126 12 127.343 12 129V130.5C12 132.157 10.6569 133.5 9 133.5H7C4.79086 133.5 3 135.291 3 137.5V138C1.34315 138 0 136.657 0 135V134.5C0 132.291 1.79086 130.5 4 130.5H8C8 129.948 7.55228 129.5 7 129.5H4V129C4 127.343 5.34315 126 7 126ZM6.5 128C6.77614 128 7 127.776 7 127.5C7 127.224 6.77614 127 6.5 127C6.22386 127 6 127.224 6 127.5C6 127.776 6.22386 128 6.5 128Z" fill="#42A5F5"/>
<rect x="21" y="140" width="14" height="2" rx="1" fill="#FF5252"/>
<path fill-rule="evenodd" clip-rule="evenodd" d="M23 128V137C23 138.105 23.8954 139 25 139H31C32.1046 139 33 138.105 33 137V135H35C36.1046 135 37 134.105 37 133V130C37 128.895 36.1046 128 35 128H23ZM33 133V130H35V133H33Z" fill="#FF5252"/>
<path fill-rule="evenodd" clip-rule="evenodd" d="M48.5 142C52.0899 142 55 139.09 55 135.5C55 131.91 52.0899 129 48.5 129C44.9101 129 42 131.91 42 135.5C42 139.09 44.9101 142 48.5 142ZM51 135C52.1046 135 53 134.105 53 133C53 131.895 52.1046 131 51 131C49.8954 131 49 131.895 49 133C49 134.105 49.8954 135 51 135Z" fill="#A56FFF"/>
<circle cx="56" cy="128" r="2" fill="#A56FFF"/>
<path fill-rule="evenodd" clip-rule="evenodd" d="M71 142C75.4183 142 79 138.418 79 134C79 129.582 75.4183 126 71 126C66.5817 126 63 129.582 63 134C63 138.418 66.5817 142 71 142ZM72 129H68V139H70V135H71.8L73 139H75L73.6515 134.505C74.464 133.968 75 133.047 75 132C75 130.343 73.6569 129 72 129ZM70 133V131H72C72.5523 131 73 131.448 73 132C73 132.552 72.5523 133 72 133H70Z" fill="#FF5252"/>
<path fill-rule="evenodd" clip-rule="evenodd" d="M94 126H90V127H94V126ZM90 128H94V130.341C96.3304 131.165 98 133.388 98 136C98 139.314 95.3137 142 92 142C88.6863 142 86 139.314 86 136C86 133.388 87.6696 131.165 90 130.341V128ZM97 136C97 138.761 94.7614 141 92 141C89.2386 141 87 138.761 87 136C87 133.239 89.2386 131 92 131C94.7614 131 97 133.239 97 136ZM96.2394 136.104C96.2394 138.443 94.331 140.34 91.9768 140.34C89.6227 140.34 87.7143 138.443 87.7143 136.104C87.7143 136.069 87.7147 136.035 87.7155 136H96.2381C96.239 136.035 96.2394 136.069 96.2394 136.104Z" fill="#A56FFF"/>
<path fill-rule="evenodd" clip-rule="evenodd" d="M113 140.556L105 132.556L108.556 129H117.444L121 132.556L113 140.556ZM109.444 129.889L107.222 132.111H111.667L109.444 129.889ZM110.778 129.889L113 132.111L115.222 129.889H110.778ZM114.333 132.111L116.556 129.889L118.778 132.111H114.333ZM116.111 133L113.444 138.333L118.778 133H116.111ZM110.778 133H115.222L113 138.333L110.778 133ZM112.556 138.333L107.222 133H109.889L112.556 138.333Z" fill="#FF5252"/>
<path d="M142 133.5C142 135.985 139.985 138 137.5 138C135.015 138 133 135.985 133 133.5C133 131.015 135.015 129 137.5 129C139.985 129 142 131.015 142 133.5ZM135.025 133.5C135.025 134.867 136.133 135.975 137.5 135.975C138.867 135.975 139.975 134.867 139.975 133.5C139.975 132.133 138.867 131.025 137.5 131.025C136.133 131.025 135.025 132.133 135.025 133.5Z" fill="#42A5F5"/>
<path fill-rule="evenodd" clip-rule="evenodd" d="M131.951 129.24C132.519 129.434 133.039 129.738 133.481 130.129C133.361 130.279 133.249 130.436 133.146 130.599C132.86 131.046 132.643 131.533 132.5 132.043C132.202 131.632 131.782 131.322 131.298 131.157C130.729 130.964 130.11 130.983 129.555 131.213C129 131.442 128.547 131.865 128.281 132.404C128.015 132.942 127.954 133.559 128.109 134.139C128.264 134.719 128.625 135.223 129.124 135.557C129.623 135.891 130.227 136.032 130.822 135.954C131.418 135.876 131.965 135.584 132.361 135.132C132.398 135.089 132.434 135.045 132.469 135H131V133H135L135 133.5C135 133.501 135 133.502 135 133.503V134L134.967 134.041C134.859 134.936 134.483 135.783 133.883 136.468C133.163 137.288 132.169 137.819 131.086 137.962C130.003 138.104 128.906 137.848 127.998 137.241C127.091 136.633 126.435 135.717 126.153 134.662C125.871 133.607 125.982 132.486 126.466 131.507C126.949 130.528 127.772 129.758 128.782 129.341C129.791 128.924 130.917 128.888 131.951 129.24Z" fill="#42A5F5"/>
<defs>
<clipPath id="clip0">
<rect width="16" height="16" fill="white" transform="translate(0 105)"/>
</clipPath>
</defs>
</svg>
