<svg width="864" height="128" viewBox="0 0 864 128" fill="none" xmlns="http://www.w3.org/2000/svg">
  <svg width="16" height="16" viewBox="0 0 16 16" fill="none" x="8" y="8">
    <path fill-rule="evenodd" clip-rule="evenodd" d="M14 1C15.1046 1 16 1.89543 16 3V13C16 14.1046 15.1046 15 14 15H2C0.895431 15 0 14.1046 0 13V3C0 1.89543 0.895431 1 2 1H14ZM2 5V13H14V5H2ZM3 4C3.55228 4 4 3.55228 4 3C4 2.44772 3.55228 2 3 2C2.44772 2 2 2.44772 2 3C2 3.55228 2.44772 4 3 4ZM6 4C6.55228 4 7 3.55228 7 3C7 2.44772 6.55228 2 6 2C5.44772 2 5 2.44772 5 3C5 3.55228 5.44772 4 6 4ZM10 3C10 3.55228 9.55228 4 9 4C8.44772 4 8 3.55228 8 3C8 2.44772 8.44772 2 9 2C9.55228 2 10 2.44772 10 3Z" fill="#EF652F"/>
  </svg>
  <svg width="16" height="16" viewBox="0 0 16 16" fill="none" x="40" y="8">
    <g clip-path="url(#clip0_821_721)">
      <path fill-rule="evenodd" clip-rule="evenodd" d="M10 0C10 1.10457 9.10457 2 8 2C6.89543 2 6 1.10457 6 0H2C0.895431 0 0 0.895431 0 2V14C0 15.1046 0.895431 16 2 16H14C15.1046 16 16 15.1046 16 14V2C16 0.895431 15.1046 0 14 0H10ZM6 3H8V5H6V3ZM8 7V5H10V7H8ZM8 9H6V7H8V9ZM8 9H10V11H8V9Z" fill="#8BC34A"/>
    </g>
    <defs>
      <clipPath id="clip0_821_721">
        <rect width="16" height="16" fill="white"/>
      </clipPath>
    </defs>
  </svg>
  <svg width="16" height="16" viewBox="0 0 16 16" fill="none" x="72" y="8">
    <path fill-rule="evenodd" clip-rule="evenodd" d="M2 2C2 0.895431 2.89543 0 4 0H10L14 4V14C14 15.1046 13.1046 16 12 16H4C2.89543 16 2 15.1046 2 14V2ZM5 8V4H7V8H5ZM9 4V8H11V4H9ZM5 9V10H7V9H5ZM9 10V9H11V10H9Z" fill="#8BC34A"/>
  </svg>
  <svg width="16" height="16" viewBox="0 0 16 16" fill="none" x="104" y="8">
    <g clip-path="url(#clip0_821_926)">
      <path fill-rule="evenodd" clip-rule="evenodd" d="M8 2C9.10457 2 10 1.10457 10 0H14C15.1046 0 16 0.895431 16 2V14C16 15.1046 15.1046 16 14 16H2C0.895431 16 0 15.1046 0 14V2C0 0.895431 0.895431 0 2 0H6C6 1.10457 6.89543 2 8 2ZM10.8284 4.75735L12.2426 6.17157L9.41421 9L12.2426 11.8284L10.8284 13.2426L8 10.4142L5.17157 13.2426L3.75736 11.8284L6.58578 9L3.75736 6.17157L5.17157 4.75736L8 7.58578L10.8284 4.75735Z" fill="#6C7780"/>
    </g>
    <defs>
      <clipPath id="clip0_821_926">
        <rect width="16" height="16" fill="white"/>
      </clipPath>
    </defs>
  </svg>
  <svg width="16" height="16" viewBox="0 0 16 16" fill="none" x="136" y="8">
    <g clip-path="url(#clip0_821_695)">
      <path fill-rule="evenodd" clip-rule="evenodd" d="M8 16C12.4183 16 16 12.4183 16 8C16 3.58172 12.4183 0 8 0C3.58172 0 0 3.58172 0 8C0 12.4183 3.58172 16 8 16ZM9 4H8V8.26756C7.70583 8.09739 7.36429 8 7 8C5.89543 8 5 8.89543 5 10C5 11.1046 5.89543 12 7 12C8.10457 12 9 11.1046 9 10V6H11V4H9Z" fill="#FF5252"/>
    </g>
    <defs>
      <clipPath id="clip0_821_695">
        <rect width="16" height="16" fill="white"/>
      </clipPath>
    </defs>
  </svg>
  <svg width="16" height="16" viewBox="0 0 16 16" fill="none" x="168" y="8">
    <g clip-path="url(#clip0_821_739)">
      <path fill-rule="evenodd" clip-rule="evenodd" d="M0 2C0 0.895431 0.895431 0 2 0H14C15.1046 0 16 0.895431 16 2V14C16 15.1046 15.1046 16 14 16H2C0.895431 16 0 15.1046 0 14V2ZM13 13H11V3H13V13ZM3 13H9V3H3V13ZM7 11H5V5H7V11Z" fill="#6C7780"/>
    </g>
    <defs>
      <clipPath id="clip0_821_739">
        <rect width="16" height="16" fill="white"/>
      </clipPath>
    </defs>
  </svg>
  <svg width="16" height="16" viewBox="0 0 16 16" fill="none" x="200" y="8">
    <g clip-path="url(#clip0_821_931)">
      <path d="M14.6569 13.6569C13.538 14.7757 12.1126 15.5376 10.5607 15.8463C9.00887 16.155 7.40034 15.9965 5.93853 15.391C4.47672 14.7855 3.22729 13.7602 2.34824 12.4446C1.46919 11.129 1 9.58225 1 8C1 6.41775 1.46919 4.87103 2.34824 3.55544C3.22729 2.23985 4.47672 1.21447 5.93853 0.608964C7.40034 0.00346286 9.00887 -0.154964 10.5607 0.153718C12.1126 0.462399 13.538 1.22433 14.6569 2.34314L12.3941 4.60589C11.7228 3.93459 10.8675 3.47744 9.93643 3.29223C9.00532 3.10702 8.0402 3.20208 7.16312 3.56538C6.28603 3.92868 5.53638 4.54391 5.00895 5.33326C4.48151 6.12262 4.2 7.05065 4.2 8C4.2 8.94935 4.48151 9.87738 5.00895 10.6667C5.53638 11.4561 6.28603 12.0713 7.16312 12.4346C8.0402 12.7979 9.00532 12.893 9.93643 12.7078C10.8675 12.5226 11.7228 12.0654 12.3941 11.3941L14.6569 13.6569Z" fill="#42A5F5"/>
    </g>
    <defs>
      <clipPath id="clip0_821_931">
        <rect width="16" height="16" fill="white"/>
      </clipPath>
    </defs>
  </svg>
  <svg width="16" height="16" viewBox="0 0 16 16" fill="none" x="232" y="8">
    <g clip-path="url(#clip0_821_760)">
      <path d="M14.1707 8C14.1707 7.816 14.1625 7.64 14.1461 7.456L15.6764 6.328C16.0055 6.088 16.096 5.64 15.8903 5.288L14.3518 2.704C14.1461 2.352 13.7018 2.208 13.3233 2.368L11.5543 3.096C11.2499 2.888 10.929 2.704 10.5917 2.552L10.3531 0.704C10.3037 0.304 9.94996 0 9.53857 0H6.46966C6.05004 0 5.69626 0.304 5.64689 0.704L5.40829 2.552C5.07095 2.704 4.75007 2.888 4.44565 3.096L2.6767 2.368C2.29823 2.208 1.85394 2.352 1.64825 2.704L0.109673 5.296C-0.0960185 5.648 -0.00551423 6.088 0.323592 6.336L1.85394 7.464C1.83748 7.64 1.82925 7.816 1.82925 8C1.82925 8.184 1.83748 8.36 1.85394 8.544L0.323592 9.672C-0.00551423 9.912 -0.0960185 10.36 0.109673 10.712L1.64825 13.296C1.85394 13.648 2.29823 13.792 2.6767 13.632L4.44565 12.904C4.75007 13.112 5.07095 13.296 5.40829 13.448L5.64689 15.296C5.69626 15.696 6.05004 16 6.46143 16H9.53034C9.94173 16 10.2955 15.696 10.3449 15.296L10.5835 13.448C10.9208 13.296 11.2417 13.112 11.5461 12.904L13.3151 13.632C13.6935 13.792 14.1378 13.648 14.3435 13.296L15.8821 10.712C16.0878 10.36 15.9973 9.92 15.6682 9.672L14.1378 8.544C14.1625 8.36 14.1707 8.184 14.1707 8ZM8.03291 10.8C6.44497 10.8 5.15323 9.544 5.15323 8C5.15323 6.456 6.44497 5.2 8.03291 5.2C9.62085 5.2 10.9126 6.456 10.9126 8C10.9126 9.544 9.62085 10.8 8.03291 10.8Z" fill="#6C7780"/>
    </g>
    <defs>
      <clipPath id="clip0_821_760">
        <rect width="16" height="16" fill="white"/>
      </clipPath>
    </defs>
  </svg>
  <svg width="16" height="16" viewBox="0 0 16 16" fill="none" x="264" y="8">
    <g clip-path="url(#clip0_821_935)">
      <path d="M13.6569 13.6569C12.538 14.7757 11.1126 15.5376 9.56072 15.8463C8.00887 16.155 6.40034 15.9965 4.93853 15.391C3.47672 14.7855 2.22729 13.7602 1.34824 12.4446C0.469192 11.129 9.7449e-08 9.58225 0 8C-9.74489e-08 6.41775 0.469192 4.87103 1.34824 3.55544C2.22729 2.23985 3.47672 1.21447 4.93853 0.608964C6.40034 0.00346286 8.00887 -0.154964 9.56072 0.153718C11.1126 0.462399 12.538 1.22433 13.6569 2.34314L12.5255 3.47452C11.6304 2.57946 10.4901 1.96992 9.24858 1.72297C8.0071 1.47603 6.72027 1.60277 5.55083 2.08717C4.38138 2.57157 3.38184 3.39188 2.67859 4.44435C1.97535 5.49683 1.6 6.7342 1.6 8C1.6 9.2658 1.97535 10.5032 2.67859 11.5556C3.38184 12.6081 4.38138 13.4284 5.55083 13.9128C6.72027 14.3972 8.0071 14.524 9.24858 14.277C10.4901 14.0301 11.6304 13.4205 12.5255 12.5255L13.6569 13.6569Z" fill="#42A5F5"/>
      <path fill-rule="evenodd" clip-rule="evenodd" d="M12 5H14V7H16V9H14V11H12V9H10V7H12V5Z" fill="#42A5F5"/>
      <path fill-rule="evenodd" clip-rule="evenodd" d="M5 5H7V7H9V9H7V11H5V9H3V7H5V5Z" fill="#42A5F5"/>
    </g>
    <defs>
      <clipPath id="clip0_821_935">
        <rect width="16" height="16" fill="white"/>
      </clipPath>
    </defs>
  </svg>
  <svg width="16" height="16" viewBox="0 0 16 16" fill="none" x="296" y="8">
    <path d="M8.53553 11.5355C7.83627 12.2348 6.94536 12.711 5.97545 12.9039C5.00555 13.0969 4.00021 12.9978 3.08658 12.6194C2.17295 12.241 1.39206 11.6001 0.842652 10.7779C0.293245 9.95561 6.09056e-08 8.98891 0 8C-6.09056e-08 7.01109 0.293245 6.04439 0.842652 5.22215C1.39206 4.3999 2.17295 3.75904 3.08658 3.3806C4.00021 3.00216 5.00555 2.90315 5.97545 3.09607C6.94536 3.289 7.83627 3.7652 8.53553 4.46447L7.12132 5.87868C6.70176 5.45912 6.16721 5.1734 5.58527 5.05764C5.00333 4.94189 4.40013 5.0013 3.85195 5.22836C3.30377 5.45542 2.83524 5.83994 2.50559 6.33329C2.17595 6.82664 2 7.40666 2 8C2 8.59334 2.17595 9.17336 2.50559 9.66671C2.83524 10.1601 3.30377 10.5446 3.85195 10.7716C4.40013 10.9987 5.00333 11.0581 5.58527 10.9424C6.16721 10.8266 6.70176 10.5409 7.12132 10.1213L8.53553 11.5355Z" fill="#42A5F5"/>
    <path fill-rule="evenodd" clip-rule="evenodd" d="M11 4H10V6H8V7H10V9H8V10H10V12H11V10H13V12H14V10H16V9H14V7H16V6H14V4H13V6H11V4ZM11 7V9H13V7H11Z" fill="#42A5F5"/>
  </svg>
  <svg width="16" height="16" viewBox="0 0 16 16" fill="none" x="328" y="8">
    <path fill-rule="evenodd" clip-rule="evenodd" d="M2 14L8 16L14 14L15 0H1L2 14ZM12.3891 11.3891C11.6199 12.1583 10.6399 12.6821 9.573 12.8943C8.5061 13.1065 7.40023 12.9976 6.39524 12.5813C5.39025 12.1651 4.53127 11.4601 3.92692 10.5556C3.32257 9.65117 3 8.5878 3 7.5C3 6.4122 3.32257 5.34883 3.92692 4.44436C4.53126 3.53989 5.39025 2.83494 6.39524 2.41866C7.40023 2.00238 8.5061 1.89346 9.573 2.10568C10.6399 2.3179 11.6199 2.84172 12.3891 3.61091L10.989 5.01098C10.4967 4.5187 9.86953 4.18346 9.18672 4.04764C8.5039 3.91182 7.79615 3.98152 7.15295 4.24794C6.50976 4.51436 5.96001 4.96553 5.57323 5.54439C5.18644 6.12325 4.98 6.80381 4.98 7.5C4.98 8.19619 5.18644 8.87675 5.57323 9.45561C5.96001 10.0345 6.50976 10.4856 7.15295 10.7521C7.79615 11.0185 8.5039 11.0882 9.18672 10.9524C9.86953 10.8165 10.4967 10.4813 10.989 9.98902L12.3891 11.3891ZM7 5H8V6H9V5H10V6H11V7H10V8H11V9H10V10H9V9H8V10H7V9H6V8H7V7H6V6H7V5ZM9 8H8V7H9V8Z" fill="#EF652F"/>
  </svg>
  <svg width="16" height="16" viewBox="0 0 16 16" fill="none" x="360" y="8">
    <path d="M15 0H1V3H12V5H1V8H12V11.5L8 13L4 12V10H1V14L8 16L15 14V0Z" fill="#42A5F5"/>
  </svg>
  <svg width="16" height="16" viewBox="0 0 16 16" fill="none" x="392" y="8">
    <path fill-rule="evenodd" clip-rule="evenodd" d="M4 5H0V9H2C2 10.1046 1.10457 11 0 11V13C2.20914 13 4 11.2091 4 9V5Z" fill="#A56FFF"/>
    <path d="M8 14H6L8 2H10L8 14Z" fill="#A56FFF"/>
    <path fill-rule="evenodd" clip-rule="evenodd" d="M16 5H12V9H14C14 10.1046 13.1046 11 12 11V13C14.2091 13 16 11.2091 16 9V5Z" fill="#A56FFF"/>
  </svg>
  <svg width="16" height="16" viewBox="0 0 16 16" fill="none" x="424" y="8">
    <g filter="url(#filter0_i_821_1112)">
      <path d="M1.40171 8.33049L4 4H5V13L1.55209 9.55209C1.22762 9.22762 1.16562 8.72397 1.40171 8.33049Z" fill="#42A5F5"/>
    </g>
    <path d="M8.33049 1.40171L4 4V5H13L12 4L9.55209 1.55209C9.22762 1.22762 8.72397 1.16562 8.33049 1.40171Z" fill="#42A5F5"/>
    <path d="M4 11.5858V4L12 12V15H7L4.29289 12.2929C4.10536 12.1054 4 11.851 4 11.5858Z" fill="#42A5F5"/>
    <g filter="url(#filter1_i_821_1112)">
      <path d="M12.2929 4.29289C12.1054 4.10536 11.851 4 11.5858 4H4L12 12H15V7L12.2929 4.29289Z" fill="#42A5F5"/>
    </g>
    <defs>
      <filter id="filter0_i_821_1112" x="1.25918" y="4" width="3.74082" height="9" filterUnits="userSpaceOnUse" color-interpolation-filters="sRGB">
        <feFlood flood-opacity="0" result="BackgroundImageFix"/>
        <feBlend mode="normal" in="SourceGraphic" in2="BackgroundImageFix" result="shape"/>
        <feColorMatrix in="SourceAlpha" type="matrix" values="0 0 0 0 0 0 0 0 0 0 0 0 0 0 0 0 0 0 127 0" result="hardAlpha"/>
        <feOffset dy="16"/>
        <feComposite in2="hardAlpha" operator="arithmetic" k2="-1" k3="1"/>
        <feColorMatrix type="matrix" values="0 0 0 0 0 0 0 0 0 0 0 0 0 0 0 0 0 0 0.35 0"/>
        <feBlend mode="normal" in2="shape" result="effect1_innerShadow_821_1112"/>
      </filter>
      <filter id="filter1_i_821_1112" x="4" y="4" width="11" height="8" filterUnits="userSpaceOnUse" color-interpolation-filters="sRGB">
        <feFlood flood-opacity="0" result="BackgroundImageFix"/>
        <feBlend mode="normal" in="SourceGraphic" in2="BackgroundImageFix" result="shape"/>
        <feColorMatrix in="SourceAlpha" type="matrix" values="0 0 0 0 0 0 0 0 0 0 0 0 0 0 0 0 0 0 127 0" result="hardAlpha"/>
        <feOffset dy="16"/>
        <feComposite in2="hardAlpha" operator="arithmetic" k2="-1" k3="1"/>
        <feColorMatrix type="matrix" values="0 0 0 0 0 0 0 0 0 0 0 0 0 0 0 0 0 0 0.35 0"/>
        <feBlend mode="normal" in2="shape" result="effect1_innerShadow_821_1112"/>
      </filter>
    </defs>
  </svg>
  <svg width="16" height="16" viewBox="0 0 16 16" fill="none" x="456" y="8">
    <g clip-path="url(#clip0_821_919)">
      <rect x="3" y="3" width="6" height="2" fill="#8BC34A"/>
      <rect x="11" y="3" width="2" height="2" fill="#8BC34A"/>
      <rect x="1" y="1" width="14" height="6" rx="1" stroke="#8BC34A" stroke-width="2"/>
      <rect x="3" y="11" width="6" height="2" fill="#8BC34A"/>
      <rect x="11" y="11" width="2" height="2" fill="#8BC34A"/>
      <rect x="1" y="9" width="14" height="6" rx="1" stroke="#8BC34A" stroke-width="2"/>
    </g>
    <defs>
      <clipPath id="clip0_821_919">
        <rect width="16" height="16" fill="white"/>
      </clipPath>
    </defs>
  </svg>
  <svg width="16" height="16" viewBox="0 0 16 16" fill="none" x="488" y="8">
    <path fill-rule="evenodd" clip-rule="evenodd" d="M2 2C2 0.895431 2.89543 0 4 0H10L14 4V14C14 15.1046 13.1046 16 12 16H4C2.89543 16 2 15.1046 2 14V2ZM6.04983 5.72027C5.65421 6.05902 5.3478 6.49897 5.17071 7H4V8H5V9H4V10H5V11H4V12H5H5.17071C5.58254 13.1652 6.69378 14 8 14C9.30622 14 10.4175 13.1652 10.8293 12H11H12V11H11V10H12V9H11V8H12V7H10.8293C10.6522 6.49897 10.3458 6.05902 9.95018 5.72027L10.683 4.45096L9.81699 3.95096L9.09282 5.20526C8.75419 5.07274 8.38559 5 8 5C7.61441 5 7.24582 5.07274 6.90719 5.20526L6.18301 3.95095L5.31699 4.45096L6.04983 5.72027ZM10 9V8H6V9H10ZM10 10V11H6V10H10Z" fill="#8BC34A"/>
  </svg>
  <svg width="16" height="16" viewBox="0 0 16 16" fill="none" x="520" y="8">
    <path fill-rule="evenodd" clip-rule="evenodd" d="M10 0H4C2.89543 0 2 0.895431 2 2V14L4 12V2H7V5C7 6.10457 7.89543 7 9 7L11 5H9V2L11.5 4.5L13 3L10 0Z" fill="#FF5252"/>
    <path fill-rule="evenodd" clip-rule="evenodd" d="M2 14C2 15.1046 2.89543 16 4 16H12C13.1046 16 14 15.1046 14 14V4L13 3L11.5 4.5L12 5H11L9 7H12V14H4V12L2 14Z" fill="#8BC34A"/>
    <rect x="5" y="11" width="6" height="2" fill="#8BC34A"/>
    <rect x="5" y="8" width="6" height="2" fill="#FF5252"/>
  </svg>
  <svg width="16" height="16" viewBox="0 0 16 16" fill="none" x="552" y="8">
    <path d="M12 8H0C0 12.4183 3.58172 16 8 16C12.4183 16 16 12.4183 16 8V4C13.7909 4 12 5.79086 12 8Z" fill="#42A5F5"/>
    <path d="M3 5V7H5V5H3Z" fill="#42A5F5"/>
    <path d="M0 7V5H2V7H0Z" fill="#42A5F5"/>
    <path d="M6 7V5H8V7H6Z" fill="#42A5F5"/>
    <path d="M3 2V4H5V2H3Z" fill="#42A5F5"/>
    <path d="M6 4V2H8V4H6Z" fill="#42A5F5"/>
    <path d="M9 7V5H11V7H9Z" fill="#42A5F5"/>
  </svg>
  <svg width="16" height="16" viewBox="0 0 16 16" fill="none" x="584" y="8">
    <path fill-rule="evenodd" clip-rule="evenodd" d="M0 13C0 14.1046 0.895431 15 2 15H14C15.1046 15 16 14.1046 16 13V5C16 3.89543 15.1046 3 14 3H9L7 1H2C0.89543 1 0 1.89543 0 3V13ZM8 11C9.10457 11 10 10.1046 10 9C10 7.89543 9.10457 7 8 7C6.89543 7 6 7.89543 6 9C6 10.1046 6.89543 11 8 11Z" fill="#6C7780"/>
  </svg>
  <svg width="16" height="16" viewBox="0 0 16 16" fill="none" x="616" y="8">
    <path fill-rule="evenodd" clip-rule="evenodd" d="M2 15H14C15.1046 15 16 14.1046 16 13V5C16 3.89543 15.1046 3 14 3H9L7 1L2 1C0.89543 1 0 1.89543 0 3V13C0 14.1046 0.895431 15 2 15ZM14 13H2V3H6L8 5H14V13Z" fill="#6C7780"/>
    <circle cx="8" cy="9" r="2" fill="#6C7780"/>
  </svg>
  <svg width="16" height="16" viewBox="0 0 16 16" fill="none" x="648" y="8">
    <path fill-rule="evenodd" clip-rule="evenodd" d="M10 0H6V1H10V0ZM6 2H10V4.34141C12.3304 5.16509 14 7.38756 14 10C14 13.3137 11.3137 16 8 16C4.68629 16 2 13.3137 2 10C2 7.38756 3.66962 5.16509 6 4.34141V2ZM13 10C13 12.7614 10.7614 15 8 15C5.23858 15 3 12.7614 3 10C3 7.23858 5.23858 5 8 5C10.7614 5 13 7.23858 13 10ZM12.2394 10.1038C12.2394 12.4434 10.331 14.3399 7.97683 14.3399C5.62269 14.3399 3.71429 12.4434 3.71429 10.1038C3.71429 10.0691 3.71471 10.0345 3.71554 10H12.2381C12.239 10.0345 12.2394 10.0691 12.2394 10.1038Z" fill="#A56FFF"/>
  </svg>
  <svg width="16" height="16" viewBox="0 0 16 16" fill="none" x="680" y="8">
    <path fill-rule="evenodd" clip-rule="evenodd" d="M4 16C2.89543 16 2 15.1046 2 14V2C2 0.895431 2.89543 0 4 0H10L14 4V14C14 15.1046 13.1046 16 12 16H4ZM4 2V14H12V7H9C7.89543 7 7 6.10457 7 5V2H4ZM9 5V2L12 5H9Z" fill="#42A5F5"/>
  </svg>
  <svg width="16" height="16" viewBox="0 0 16 16" fill="none" x="712" y="8">
    <path d="M14 15H2C0.895431 15 0 14.1046 0 13V3C0 1.89543 0.89543 1 2 1H7L9 3H14C15.1046 3 16 3.89543 16 5V13C16 14.1046 15.1046 15 14 15Z" fill="#A3B2BF"/>
  </svg>
  <svg width="16" height="16" viewBox="0 0 16 16" fill="none" x="744" y="8">
    <path fill-rule="evenodd" clip-rule="evenodd" d="M2 15H14C15.1046 15 16 14.1046 16 13V5C16 3.89543 15.1046 3 14 3H9L7 1L2 1C0.89543 1 0 1.89543 0 3V13C0 14.1046 0.895431 15 2 15ZM14 13H2V3H6L8 5H14V13Z" fill="#A3B2BF"/>
  </svg>
  <svg width="16" height="16" viewBox="0 0 16 16" fill="none" x="776" y="8">
    <g clip-path="url(#clip0_821_717)">
      <path fill-rule="evenodd" clip-rule="evenodd" d="M2 0C0.895431 0 0 0.895431 0 2V14C0 15.1046 0.895431 16 2 16H14C15.1046 16 16 15.1046 16 14V2C16 0.895431 15.1046 0 14 0H2ZM4 14H2L8 2L14 14H12L11 12H5L4 14ZM8 6L10 10H6L8 6Z" fill="#EF652F"/>
    </g>
    <defs>
      <clipPath id="clip0_821_717">
        <rect width="16" height="16" fill="white"/>
      </clipPath>
    </defs>
  </svg>
  <svg width="16" height="16" viewBox="0 0 16 16" fill="none" x="808" y="8">
    <g clip-path="url(#clip0_821_964)">
      <path d="M15 16H0V1L4 5V12H11L15 16Z" fill="#42A5F5"/>
      <path d="M1 0H16V15L12 11V4H5L1 0Z" fill="#42A5F5"/>
      <path d="M5 11V6L10 11H5Z" fill="#42A5F5"/>
    </g>
    <defs>
      <clipPath id="clip0_821_964">
        <rect width="16" height="16" fill="white"/>
      </clipPath>
    </defs>
  </svg>
  <svg width="16" height="16" viewBox="0 0 16 16" fill="none" x="840" y="8">
    <g clip-path="url(#clip0_821_789)">
      <path d="M3 16V7H5V16H3Z" fill="#EF652F"/>
      <path d="M9 5V3H11C12.1046 3 13 3.89543 13 5V9H11V5H9Z" fill="#EF652F"/>
      <circle cx="4" cy="4" r="3" stroke="#EF652F" stroke-width="2"/>
      <circle cx="12" cy="12" r="3" stroke="#EF652F" stroke-width="2"/>
    </g>
    <defs>
      <clipPath id="clip0_821_789">
        <rect width="16" height="16" fill="white"/>
      </clipPath>
    </defs>
  </svg>
  <svg width="16" height="16" viewBox="0 0 16 16" fill="none" x="8" y="40">
    <path d="M16 7.5C16 9.98528 13.9853 12 11.5 12C9.01472 12 7 9.98528 7 7.5C7 5.01472 9.01472 3 11.5 3C13.9853 3 16 5.01472 16 7.5ZM9.025 7.5C9.025 8.8669 10.1331 9.975 11.5 9.975C12.8669 9.975 13.975 8.8669 13.975 7.5C13.975 6.1331 12.8669 5.025 11.5 5.025C10.1331 5.025 9.025 6.1331 9.025 7.5Z" fill="#42A5F5"/>
    <path fill-rule="evenodd" clip-rule="evenodd" d="M5.95088 3.24031C6.51939 3.43395 7.03851 3.73765 7.48125 4.12922C7.36134 4.27929 7.24929 4.43595 7.14568 4.59858C6.86036 5.04644 6.64319 5.53311 6.50039 6.04258C6.20158 5.63243 5.78238 5.32216 5.29798 5.15717C4.72947 4.96353 4.10995 4.98322 3.55488 5.21256C2.99982 5.4419 2.54708 5.86525 2.28105 6.4037C2.01502 6.94215 1.95386 7.55896 2.10896 8.13917C2.26406 8.71938 2.62484 9.2234 3.12406 9.55728C3.62327 9.89117 4.22686 10.0321 4.82233 9.95392C5.4178 9.87571 5.96451 9.58364 6.36056 9.13216C6.39822 9.08924 6.43426 9.04515 6.46867 9H5V7H9L9 7.5C9 7.50098 9 7.50196 9 7.50293V8L8.9674 8.04074C8.85902 8.93627 8.4832 9.78318 7.88284 10.4676C7.16274 11.2884 6.16872 11.8195 5.08605 11.9617C4.00339 12.1039 2.90595 11.8476 1.99828 11.2405C1.09062 10.6334 0.434652 9.71705 0.152653 8.66212C-0.129347 7.6072 -0.0181399 6.48573 0.465546 5.50673C0.949231 4.52773 1.77239 3.75801 2.78161 3.34102C3.79082 2.92404 4.91722 2.88824 5.95088 3.24031Z" fill="#42A5F5"/>
  </svg>
  <svg width="16" height="16" viewBox="0 0 16 16" fill="none" x="40" y="40">
    <path d="M2 16H5V8H11V16H14V0H11V5H5V0H2V16Z" fill="#8BC34A"/>
  </svg>
  <svg width="16" height="16" viewBox="0 0 16 16" fill="none" x="72" y="40">
    <g clip-path="url(#clip0_821_1086)">
      <path d="M8 0H5L9 8L5 16H8L10.5 11L13 16H16L8 0Z" fill="#A56FFF"/>
      <path d="M3 0H0L4 8L0 16H3L7 8L3 0Z" fill="#A56FFF"/>
      <path fill-rule="evenodd" clip-rule="evenodd" d="M11 4L10 2H16V4H11ZM13 8L12 6H16V8H13Z" fill="#A56FFF"/>
    </g>
    <defs>
      <clipPath id="clip0_821_1086">
        <rect width="16" height="16" fill="white"/>
      </clipPath>
    </defs>
  </svg>
  <svg width="16" height="16" viewBox="0 0 16 16" fill="none" x="104" y="40">
    <g clip-path="url(#clip0_901_46)">
      <path d="M16 4V0H12L0 12V16H4L16 4Z" fill="#EF652F"/>
      <path d="M0 4V0H4L16 12V16H12L0 4Z" fill="#FFCC4A"/>
    </g>
    <defs>
      <clipPath id="clip0_901_46">
        <rect width="16" height="16" fill="white"/>
      </clipPath>
    </defs>
  </svg>
  <svg width="16" height="16" viewBox="0 0 16 16" fill="none" x="136" y="40">
    <g clip-path="url(#clip0_821_948)">
      <path d="M0 16H3V8H6V16H9V0H6V5H3V0H0V16Z" fill="#8BC34A"/>
      <path fill-rule="evenodd" clip-rule="evenodd" d="M12 9H14V11H16V13H14V15H12V13H10V11H12V9Z" fill="#8BC34A"/>
      <path fill-rule="evenodd" clip-rule="evenodd" d="M12 1H14V3H16V5H14V7H12V5H10V3H12V1Z" fill="#8BC34A"/>
    </g>
    <defs>
      <clipPath id="clip0_821_948">
        <rect width="16" height="16" fill="white"/>
      </clipPath>
    </defs>
  </svg>
  <svg width="16" height="16" viewBox="0 0 16 16" fill="none" x="168" y="40">
    <path fill-rule="evenodd" clip-rule="evenodd" d="M8 16L2 14L1 0H15L14 14L8 16ZM12 2H4V8H10V11L8 11.5L6 11V10H4V12L8 13.5L12 12V6H6V4H12V2Z" fill="#EF652F"/>
  </svg>
  <svg width="16" height="16" viewBox="0 0 16 16" fill="none" x="200" y="40">
    <g clip-path="url(#clip0_1001_36)">
      <path d="M12 4V6L6 12H4V10L10 4H12Z" fill="#EF652F"/>
      <path d="M4 4V6L10 12H12V10L6 4H4Z" fill="#FFCC4A"/>
      <path d="M11 0H14C15.1046 0 16 0.895431 16 2V14C16 15.1046 15.1046 16 14 16H11V14H14V2H11V0Z" fill="#FFCC4A"/>
      <path d="M5 0H2C0.895431 0 0 0.895431 0 2V14C0 15.1046 0.89543 16 2 16H5V14H2V2H5V0Z" fill="#EF652F"/>
    </g>
    <defs>
      <clipPath id="clip0_1001_36">
        <rect width="16" height="16" fill="white"/>
      </clipPath>
    </defs>
  </svg>
  <svg width="16" height="16" viewBox="0 0 16 16" fill="none" x="232" y="40">
    <g clip-path="url(#clip0_821_1224)">
      <path fill-rule="evenodd" clip-rule="evenodd" d="M0 4C0 1.79086 1.79086 0 4 0H12C14.2091 0 16 1.79086 16 4V12C16 14.2091 14.2091 16 12 16H4C1.79086 16 0 14.2091 0 12V4ZM5 7V3H7V7H5ZM11 7V3H9V7H11ZM13.5433 10.2961C13.8448 9.56815 14 8.78793 14 8H12.0002C12.0002 8.52531 11.8967 9.04548 11.6957 9.53081C11.4947 10.0161 11.2 10.4571 10.8286 10.8286C10.4571 11.2 10.0161 11.4947 9.53081 11.6957C9.04548 11.8967 8.52531 12.0002 8 12.0002L8 14C8.78793 14 9.56815 13.8448 10.2961 13.5433C11.0241 13.2417 11.6855 12.7998 12.2426 12.2426C12.7998 11.6855 13.2417 11.0241 13.5433 10.2961Z" fill="#FFCC4A"/>
    </g>
    <defs>
      <clipPath id="clip0_821_1224">
        <rect width="16" height="16" fill="white"/>
      </clipPath>
    </defs>
  </svg>
  <svg width="16" height="16" viewBox="0 0 16 16" fill="none" x="264" y="40">
    <path fill-rule="evenodd" clip-rule="evenodd" d="M2 1C0.895431 1 0 1.89543 0 3V13C0 14.1046 0.895431 15 2 15H14C15.1046 15 16 14.1046 16 13V3C16 1.89543 15.1046 1 14 1H2ZM6 5C6 6.10457 5.10457 7 4 7C2.89543 7 2 6.10457 2 5C2 3.89543 2.89543 3 4 3C5.10457 3 6 3.89543 6 5ZM2 13H14V5L9 10L7 8L2 13Z" fill="#8BC34A"/>
  </svg>
  <svg width="16" height="16" viewBox="0 0 16 16" fill="none" x="296" y="40">
    <path fill-rule="evenodd" clip-rule="evenodd" d="M9 4H7V6H9V4ZM9 8H7V13H9V8Z" fill="#42A5F5"/>
    <path fill-rule="evenodd" clip-rule="evenodd" d="M4 0C2.89543 0 2 0.895431 2 2V14C2 15.1046 2.89543 16 4 16H12C13.1046 16 14 15.1046 14 14V4L10 0H4ZM4 14V2H9L12 5V14H4Z" fill="#42A5F5"/>
  </svg>
  <svg width="16" height="16" viewBox="0 0 16 16" fill="none" x="328" y="40">
    <rect y="14" width="14" height="2" rx="1" fill="#EF652F"/>
    <path fill-rule="evenodd" clip-rule="evenodd" d="M2 2V11C2 12.1046 2.89543 13 4 13H10C11.1046 13 12 12.1046 12 11V9H14C15.1046 9 16 8.10457 16 7V4C16 2.89543 15.1046 2 14 2H2ZM12 7V4H14V7H12Z" fill="#EF652F"/>
  </svg>
  <svg width="16" height="16" viewBox="0 0 16 16" fill="none" x="360" y="40">
    <g clip-path="url(#clip0_821_887)">
      <path fill-rule="evenodd" clip-rule="evenodd" d="M0 2C0 0.895431 0.895431 0 2 0H14C15.1046 0 16 0.895431 16 2V14C16 15.1046 15.1046 16 14 16H2C0.895431 16 0 15.1046 0 14V2ZM9.87868 4.87868C9.31607 5.44129 9 6.20435 9 7C9 7.39397 9.0776 7.78407 9.22836 8.14805C9.37913 8.51203 9.6001 8.84274 9.87868 9.12132C10.1573 9.3999 10.488 9.62087 10.8519 9.77164C11.2159 9.9224 11.606 10 12 10V10.0001C12.1313 10.0001 12.2613 10.026 12.3826 10.0762C12.504 10.1265 12.6142 10.2001 12.707 10.293C12.7999 10.3858 12.8735 10.496 12.9238 10.6174C12.974 10.7387 12.9999 10.8687 12.9999 11C12.9999 11.2652 12.8946 11.5195 12.707 11.707C12.5195 11.8946 12.2652 11.9999 12 11.9999C11.7348 11.9999 11.4805 11.8946 11.293 11.707C11.1054 11.5195 11.0001 11.2652 11.0001 11H9C9 11.7956 9.31607 12.5587 9.87868 13.1213C10.4413 13.6839 11.2043 14 12 14C12.7956 14 13.5587 13.6839 14.1213 13.1213C14.6839 12.5587 15 11.7957 15 11C15 10.606 14.9224 10.2159 14.7716 9.85195C14.6209 9.48797 14.3999 9.15726 14.1213 8.87868C13.8427 8.6001 13.512 8.37913 13.1481 8.22836C12.7841 8.0776 12.394 8 12 8V7.9999C11.8687 7.9999 11.7387 7.97404 11.6174 7.92379C11.496 7.87354 11.3858 7.79989 11.293 7.70704C11.2001 7.61419 11.1265 7.50396 11.0762 7.38265C11.026 7.26133 11.0001 7.13131 11.0001 7C11.0001 6.73481 11.1054 6.48048 11.293 6.29296C11.4805 6.10545 11.7348 6.0001 12 6.0001C12.2652 6.0001 12.5195 6.10545 12.707 6.29296C12.8946 6.48048 12.9999 6.73481 12.9999 7L15 7C15 6.20435 14.6839 5.44129 14.1213 4.87868C13.5587 4.31607 12.7956 4 12 4C11.2043 4 10.4413 4.31607 9.87868 4.87868ZM8 4H4V6H6V11H5.9999C5.9999 11.2652 5.89455 11.5195 5.70704 11.707C5.51952 11.8946 5.26519 11.9999 5 11.9999C4.73481 11.9999 4.48048 11.8946 4.29296 11.707C4.10545 11.5195 4.0001 11.2652 4.0001 11H2C2 11.7956 2.31607 12.5587 2.87868 13.1213C3.44129 13.6839 4.20435 14 5 14C5.79565 14 6.55871 13.6839 7.12132 13.1213C7.68393 12.5587 8 11.7957 8 11V6V4Z" fill="#FFCC4A"/>
    </g>
    <defs>
      <clipPath id="clip0_821_887">
        <rect width="16" height="16" fill="white"/>
      </clipPath>
    </defs>
  </svg>
  <svg width="16" height="16" viewBox="0 0 16 16" fill="none" x="392" y="40">
    <g clip-path="url(#clip0_821_825)">
      <path d="M11 0H13C14.1046 0 15 0.89543 15 2V6L16 7.5V8.5L15 10V14C15 15.1046 14.1046 16 13 16H11V14H13V10L14 8.5V7.5L13 6V2H11V0Z" fill="#FFCC4A"/>
      <rect x="4" y="7" width="2" height="2" fill="#FFCC4A"/>
      <rect x="7" y="7" width="2" height="2" fill="#FFCC4A"/>
      <rect x="10" y="7" width="2" height="2" fill="#FFCC4A"/>
      <path d="M5 0H3C1.89543 0 1 0.89543 1 2V6L0 7.5V8.5L1 10V14C1 15.1046 1.89543 16 3 16H5V14H3V10L2 8.5V7.5L3 6V2H5V0Z" fill="#FFCC4A"/>
    </g>
    <defs>
      <clipPath id="clip0_821_825">
        <rect width="16" height="16" fill="white"/>
      </clipPath>
    </defs>
  </svg>
  <svg width="16" height="16" viewBox="0 0 16 16" fill="none" x="424" y="40">
    <g clip-path="url(#clip0_821_1094)">
      <path fill-rule="evenodd" clip-rule="evenodd" d="M11.3586 13.5902L11.3599 13.59L11.3601 13.5899C11.36 13.5897 11.3568 13.5896 11.3509 13.5904C11.3546 13.5905 11.3571 13.5904 11.3586 13.5902ZM11.2274 13.4993C11.2224 13.5234 11.2175 13.545 11.2126 13.5643C11.1934 13.5589 11.1722 13.5524 11.1488 13.5446C10.8716 13.4522 10.4601 13.2256 9.94429 12.8013C9.63663 12.5481 9.31449 12.2434 8.98617 11.8921C9.22472 11.5892 9.46111 11.2688 9.6932 10.9327C10.1004 10.8998 10.496 10.8552 10.8775 10.8001C11.0177 11.2601 11.1205 11.6914 11.1859 12.0844C11.2955 12.7434 11.2859 13.213 11.2274 13.4993ZM12 14.9282C11.0872 15.4552 9.55955 14.6634 8 13.0324C6.44045 14.6634 4.91282 15.4552 4 14.9282C3.08718 14.4012 3.00909 12.6823 3.64186 10.5162C1.44954 9.98109 0 9.05402 0 7.99998C0 6.94595 1.44954 6.01888 3.64185 5.48381C3.00908 3.31768 3.08718 1.59881 4 1.07179C4.91282 0.544776 6.44046 1.33658 8.00001 2.96765C9.55955 1.33659 11.0872 0.544784 12 1.0718C12.9128 1.59881 12.9909 3.31768 12.3581 5.48381C14.5505 6.01888 16 6.94595 16 7.99998C16 9.05402 14.5505 9.98108 12.3581 10.5162C12.9909 12.6823 12.9128 14.4012 12 14.9282ZM6.05571 12.8013C6.36338 12.5482 6.68551 12.2434 7.01383 11.8921C6.77528 11.5892 6.53889 11.2688 6.30681 10.9327C5.89964 10.8998 5.504 10.8552 5.12247 10.8001C4.98234 11.2601 4.8795 11.6914 4.81413 12.0844C4.70452 12.7434 4.71407 13.213 4.77262 13.4993C4.77756 13.5234 4.78254 13.5451 4.78743 13.5643C4.80657 13.5589 4.82778 13.5524 4.85117 13.5446C5.12836 13.4522 5.53986 13.2257 6.05571 12.8013ZM11.1859 3.91556C11.1205 4.30856 11.0177 4.73989 10.8775 5.19991C10.496 5.14473 10.1004 5.10021 9.69317 5.06731C9.4611 4.73114 9.22472 4.41077 8.98617 4.10794C9.3145 3.75658 9.63663 3.45185 9.94429 3.19873C10.4601 2.77435 10.8716 2.54779 11.1488 2.45537C11.1722 2.44757 11.1934 2.44108 11.2126 2.43568C11.2175 2.45495 11.2224 2.47656 11.2274 2.50071C11.2859 2.78698 11.2955 3.25663 11.1859 3.91556ZM4.1363 9.09197C4.27929 8.73397 4.43855 8.36907 4.61364 8C4.43854 7.63092 4.27927 7.26601 4.13629 6.908C3.66784 7.01666 3.24287 7.14327 2.86983 7.28316C2.24438 7.5177 1.84243 7.76079 1.62379 7.95464C1.60534 7.97099 1.58912 7.98611 1.57487 7.99998C1.58912 8.01386 1.60534 8.02898 1.62379 8.04533C1.84243 8.23917 2.24438 8.48227 2.86983 8.71681C3.24287 8.8567 3.66785 8.98331 4.1363 9.09197ZM6.30683 5.0673C6.53891 4.73114 6.77529 4.41076 7.01383 4.10794C6.68551 3.75657 6.36338 3.45184 6.05571 3.19872C5.53986 2.77434 5.12836 2.54778 4.85117 2.45536C4.82778 2.44756 4.80657 2.44107 4.78743 2.43567C4.78254 2.45494 4.77756 2.47655 4.77262 2.50071C4.71407 2.78698 4.70452 3.25662 4.81413 3.91555C4.8795 4.30856 4.98233 4.73989 5.12246 5.19991C5.504 5.14473 5.89965 5.10021 6.30683 5.0673ZM11.8637 9.09197C11.7207 8.73397 11.5615 8.36907 11.3864 8C11.5615 7.63092 11.7207 7.26601 11.8637 6.908C12.3322 7.01666 12.7571 7.14327 13.1302 7.28316C13.7556 7.5177 14.1576 7.76079 14.3762 7.95464C14.3947 7.97099 14.4109 7.98611 14.4251 7.99999C14.4109 8.01386 14.3947 8.02898 14.3762 8.04533C14.1576 8.23917 13.7556 8.48227 13.1302 8.71681C12.7571 8.8567 12.3322 8.98331 11.8637 9.09197ZM4.83904 2.29513C4.83917 2.29534 4.83762 2.29811 4.83401 2.3028C4.8371 2.29725 4.8389 2.29491 4.83904 2.29513ZM4.63992 2.41008C4.6398 2.40986 4.64273 2.40947 4.64908 2.40957C4.64321 2.41036 4.64004 2.41031 4.63992 2.41008ZM11.166 13.6972C11.1629 13.7027 11.1611 13.7051 11.161 13.7049C11.1608 13.7046 11.1624 13.7019 11.166 13.6972ZM14.521 7.88503C14.5213 7.88503 14.5202 7.88777 14.5169 7.89321C14.5192 7.88774 14.5208 7.88502 14.521 7.88503ZM1.47896 7.88503C1.47921 7.88502 1.48084 7.88774 1.48309 7.89321C1.47983 7.88777 1.4787 7.88503 1.47896 7.88503ZM1.47896 8.11494C1.4787 8.11494 1.47983 8.1122 1.48309 8.10676C1.48084 8.11223 1.47921 8.11495 1.47896 8.11494ZM14.5169 8.10676C14.5202 8.1122 14.5213 8.11494 14.521 8.11494C14.5208 8.11495 14.5192 8.11223 14.5169 8.10676ZM11.161 2.29513C11.1611 2.29492 11.1629 2.29726 11.166 2.3028C11.1624 2.29812 11.1608 2.29535 11.161 2.29513ZM4.63992 13.5899C4.64004 13.5897 4.64321 13.5896 4.64908 13.5904C4.64273 13.5905 4.6398 13.5901 4.63992 13.5899ZM4.83904 13.7049C4.8389 13.7051 4.8371 13.7027 4.83401 13.6972C4.83762 13.7019 4.83917 13.7047 4.83904 13.7049ZM11.3509 2.40957C11.3573 2.40948 11.3602 2.40987 11.3601 2.41009C11.36 2.41031 11.3568 2.41036 11.3509 2.40957ZM8 10C9.10457 10 10 9.10457 10 8C10 6.89543 9.10457 6 8 6C6.89543 6 6 6.89543 6 8C6 9.10457 6.89543 10 8 10Z" fill="#42A5F5"/>
      <circle cx="8" cy="8" r="1" fill="#42A5F5"/>
    </g>
    <defs>
      <clipPath id="clip0_821_1094">
        <rect width="16" height="16" fill="white"/>
      </clipPath>
    </defs>
  </svg>
  <svg width="16" height="16" viewBox="0 0 16 16" fill="none" x="456" y="40">
    <circle cx="4.5" cy="11" r="3" fill="#FF5252"/>
    <circle cx="11.5" cy="11" r="3" fill="#A56FFF"/>
    <circle cx="8" cy="5" r="3" fill="#8BC34A"/>
  </svg>
  <svg width="16" height="16" viewBox="0 0 16 16" fill="none" x="488" y="40">
    <g clip-path="url(#clip0_821_1005)">
      <path d="M0 14V2C0 0.895431 0.895431 0 2 0H16L8 8L16 16H2C0.895431 16 0 15.1046 0 14Z" fill="#A56FFF"/>
    </g>
    <defs>
      <clipPath id="clip0_821_1005">
        <rect width="16" height="16" fill="white"/>
      </clipPath>
    </defs>
  </svg>
  <svg width="16" height="16" viewBox="0 0 16 16" fill="none" x="520" y="40">
    <g clip-path="url(#clip0_821_883)">
      <path d="M11 0H13C14.1046 0 15 0.89543 15 2V6L16 7.5V8.5L15 10V14C15 15.1046 14.1046 16 13 16H11V14H13V10L14 8.5V7.5L13 6V2H11V0Z" fill="#42A5F5"/>
      <path d="M5 0H3C1.89543 0 1 0.89543 1 2V6L0 7.5V8.5L1 10V14C1 15.1046 1.89543 16 3 16H5V14H3V10L2 8.5V7.5L3 6V2H5V0Z" fill="#42A5F5"/>
      <path d="M5 2V0H7C8.10457 0 9 0.89543 9 2V14H11V16H9C7.89543 16 7 15.1046 7 14V2H5Z" fill="#42A5F5"/>
    </g>
    <defs>
      <clipPath id="clip0_821_883">
        <rect width="16" height="16" fill="white"/>
      </clipPath>
    </defs>
  </svg>
  <svg width="16" height="16" viewBox="0 0 16 16" fill="none" x="552" y="40">
    <path fill-rule="evenodd" clip-rule="evenodd" d="M2 1C0.895431 1 0 1.89543 0 3V13C0 14.1046 0.895431 15 2 15H14C15.1046 15 16 14.1046 16 13V3C16 1.89543 15.1046 1 14 1H2ZM11 2L12 4.26795L14.4641 4L13 6L14.4641 8L12 7.73205L11 10L10 7.73205L7.5359 8L9 6L7.5359 4L10 4.26795L11 2ZM6 3H2V5H6V3ZM2 7H6V9H2V7ZM2 11H14V13H2V11Z" fill="#EF652F"/>
  </svg>
  <svg width="16" height="16" viewBox="0 0 16 16" fill="none" x="584" y="40">
    <path fill-rule="evenodd" clip-rule="evenodd" d="M4 16C2.89543 16 2 15.1046 2 14V2C2 0.895431 2.89543 0 4 0H10L14 4V14C14 15.1046 13.1046 16 12 16H4ZM4 2V14H12V7H9C7.89543 7 7 6.10457 7 5V2H4ZM9 5V2L12 5H9Z" fill="#8BC34A"/>
    <path fill-rule="evenodd" clip-rule="evenodd" d="M5 8H7V10H5V8ZM8 8H11V10H8V8ZM5 11H7V13H5V11ZM8 11H11V13H8V11Z" fill="#8BC34A"/>
  </svg>
  <svg width="16" height="16" viewBox="0 0 16 16" fill="none" x="616" y="40">
    <g clip-path="url(#clip0_821_1061)">
      <path fill-rule="evenodd" clip-rule="evenodd" d="M6.5 16C10.0899 16 13 13.0899 13 9.5C13 5.91015 10.0899 3 6.5 3C2.91015 3 0 5.91015 0 9.5C0 13.0899 2.91015 16 6.5 16ZM9 9C10.1046 9 11 8.10457 11 7C11 5.89543 10.1046 5 9 5C7.89543 5 7 5.89543 7 7C7 8.10457 7.89543 9 9 9Z" fill="#A56FFF"/>
      <circle cx="14" cy="2" r="2" fill="#A56FFF"/>
    </g>
    <defs>
      <clipPath id="clip0_821_1061">
        <rect width="16" height="16" fill="white"/>
      </clipPath>
    </defs>
  </svg>
  <svg width="16" height="16" viewBox="0 0 16 16" fill="none" x="648" y="40">
    <g clip-path="url(#clip0_821_850)">
      <path fill-rule="evenodd" clip-rule="evenodd" d="M5 0H2C0.895431 0 0 0.895431 0 2V14C0 15.1046 0.89543 16 2 16H5V14H2V2H5V0ZM11 0H14C15.1046 0 16 0.895431 16 2V14C16 15.1046 15.1046 16 14 16H11V14H14V2H11V0ZM4.70711 5.29289L8 8.58579L11.2929 5.29289L12.7071 6.70711L8.70711 10.7071L8 11.4142L7.29289 10.7071L3.29289 6.70711L4.70711 5.29289Z" fill="#42A5F5"/>
    </g>
    <defs>
      <clipPath id="clip0_821_850">
        <rect width="16" height="16" fill="white"/>
      </clipPath>
    </defs>
  </svg>
  <svg width="16" height="16" viewBox="0 0 16 16" fill="none" x="680" y="40">
    <g clip-path="url(#clip0_1002_36)">
      <path d="M1.5 1.5L8 8L14.5 1.5" stroke="#42A5F5" stroke-width="3"/>
      <path d="M1.5 14.5L6 10M14.5 14.5L10 10" stroke="#6C7780" stroke-width="3"/>
    </g>
    <defs>
      <clipPath id="clip0_1002_36">
        <rect width="16" height="16" fill="white"/>
      </clipPath>
    </defs>
  </svg>
  <svg width="16" height="16" viewBox="0 0 16 16" fill="none" x="712" y="40">
    <g clip-path="url(#clip0_821_868)">
      <path d="M11 0H14C15.1046 0 16 0.895431 16 2V14C16 15.1046 15.1046 16 14 16H11V14H14V2H11V0Z" fill="#4AC390"/>
      <path d="M11 0H14C15.1046 0 16 0.895431 16 2V14C16 15.1046 15.1046 16 14 16H11V14H14V2H11V0Z" fill="#8BC34A"/>
      <path d="M5 0H2C0.895431 0 0 0.895431 0 2V14C0 15.1046 0.89543 16 2 16H5V14H2V2H5V0Z" fill="#4AC390"/>
      <path d="M5 0H2C0.895431 0 0 0.895431 0 2V14C0 15.1046 0.89543 16 2 16H5V14H2V2H5V0Z" fill="#8BC34A"/>
      <rect x="4" y="7" width="2" height="2" fill="#4AC390"/>
      <rect x="4" y="7" width="2" height="2" fill="#8BC34A"/>
      <rect x="7" y="7" width="2" height="2" fill="#4AC390"/>
      <rect x="7" y="7" width="2" height="2" fill="#8BC34A"/>
      <rect x="10" y="7" width="2" height="2" fill="#4AC390"/>
      <rect x="10" y="7" width="2" height="2" fill="#8BC34A"/>
    </g>
    <defs>
      <clipPath id="clip0_821_868">
        <rect width="16" height="16" fill="white"/>
      </clipPath>
    </defs>
  </svg>
  <svg width="16" height="16" viewBox="0 0 16 16" fill="none" x="744" y="40">
    <path d="M15 11.6C15 11.904 14.8367 12.168 14.5878 12.304L8.44333 15.856C8.31889 15.952 8.16333 16 8 16C7.83667 16 7.68111 15.952 7.55667 15.856L1.41223 12.304C1.28753 12.2366 1.18318 12.1353 1.1105 12.0112C1.03783 11.8871 0.999612 11.7449 1 11.6V4.4C1 4.096 1.16334 3.832 1.41223 3.696L7.55667 0.144C7.68111 0.0480001 7.83667 0 8 0C8.16333 0 8.31889 0.0480001 8.44333 0.144L14.5878 3.696C14.8367 3.832 15 4.096 15 4.4V11.6ZM8 1.72L3.36445 4.4L8 7.08L12.6356 4.4L8 1.72ZM2.55556 11.128L7.22222 13.832V8.464L2.55556 5.768V11.128Z" fill="#42A5F5"/>
  </svg>
  <svg width="16" height="16" viewBox="0 0 16 16" fill="none" x="776" y="40">
    <g clip-path="url(#clip0_821_1124)">
      <path fill-rule="evenodd" clip-rule="evenodd" d="M4.27245 3.96153L0.754519 9.99226C-0.023247 11.3256 0.938497 13 2.48208 13H6.29456C5.47464 12.0757 5.23397 10.6664 5.95992 9.45651L8.42754 5.34381C8.44546 5.31395 8.46376 5.28455 8.48245 5.25561L7.72756 3.96152C6.9558 2.63851 5.0442 2.63852 4.27245 3.96153ZM9.05635 6.23945L6.81742 9.97101C6.01759 11.3041 6.97781 13 8.5324 13H9.51793C11.0615 13 12.0233 11.3256 11.2455 9.99226L9.05635 6.23945Z" fill="#8BC34A"/>
      <path d="M6.81741 9.97101L9.28503 5.85831C10.0618 4.56363 11.9382 4.56363 12.715 5.85831L15.1826 9.97101C15.9824 11.3041 15.0222 13 13.4676 13H8.5324C6.97781 13 6.01758 11.3041 6.81741 9.97101Z" fill="#8BC34A"/>
    </g>
    <defs>
      <clipPath id="clip0_821_1124">
        <rect width="16" height="16" fill="white"/>
      </clipPath>
    </defs>
  </svg>
  <svg width="16" height="16" viewBox="0 0 16 16" fill="none" x="808" y="40">
    <g clip-path="url(#clip0_821_729)">
      <path fill-rule="evenodd" clip-rule="evenodd" d="M9 2C9 0.895431 8.10457 0 7 0C5.89543 0 5 0.895431 5 2H2C0.895431 2 0 2.89543 0 4V7C1.10457 7 2 7.89543 2 9C2 10.1046 1.10457 11 0 11V14C0 15.1046 0.89543 16 2 16H5C5 14.8954 5.89543 14 7 14C8.10457 14 9 14.8954 9 16H12C13.1046 16 14 15.1046 14 14V11C15.1046 11 16 10.1046 16 9C16 7.89543 15.1046 7 14 7V4C14 2.89543 13.1046 2 12 2H9Z" fill="#6C7780"/>
    </g>
    <defs>
      <clipPath id="clip0_821_729">
        <rect width="16" height="16" fill="white"/>
      </clipPath>
    </defs>
  </svg>
  <svg width="16" height="16" viewBox="0 0 16 16" fill="none" x="840" y="40">
    <g clip-path="url(#clip0_901_36)">
      <circle cx="8" cy="8" r="7" stroke="#A56FFF" stroke-width="2"/>
      <circle cx="8" cy="8" r="3" stroke="#A56FFF" stroke-width="2"/>
      <path d="M8 16C5.87827 16 3.84344 15.1571 2.34315 13.6569C0.842855 12.1566 -5.90226e-08 10.1217 0 8C5.90226e-08 5.87827 0.842855 3.84344 2.34315 2.34315C3.84344 0.842855 5.87827 -2.53014e-08 8 0L8 8L8 16Z" fill="#A56FFF"/>
    </g>
    <defs>
      <clipPath id="clip0_901_36">
        <rect width="16" height="16" fill="white"/>
      </clipPath>
    </defs>
  </svg>
  <svg width="16" height="16" viewBox="0 0 16 16" fill="none" x="8" y="72">
    <path d="M0 7V12C0 12.5523 0.447715 13 1 13C1.55228 13 2 12.5523 2 12V8H4V13H6V14H9V11H11V13H13V14H16V6C16 3.79086 14.2091 2 12 2H7.94427C7.32329 2 6.71084 2.14458 6.15542 2.42229L5.84458 2.57771C5.28916 2.85542 4.67671 3 4.05573 3H4C1.79086 3 0 4.79086 0 7Z" fill="#42A5F5"/>
  </svg>
  <svg width="16" height="16" viewBox="0 0 16 16" fill="none" x="40" y="72">
    <path fill-rule="evenodd" clip-rule="evenodd" d="M4 16C2.89543 16 2 15.1046 2 14V2C2 0.895431 2.89543 0 4 0H10L14 4V14C14 15.1046 13.1046 16 12 16H4ZM4 2V14H12V7H9C7.89543 7 7 6.10457 7 5V2H4ZM9 5V2L12 5H9Z" fill="#42A5F5"/>
    <rect x="5" y="11" width="6" height="2" fill="#42A5F5"/>
    <rect x="5" y="8" width="6" height="2" fill="#42A5F5"/>
  </svg>
  <svg width="16" height="16" viewBox="0 0 16 16" fill="none" x="72" y="72">
    <g clip-path="url(#clip0_821_1054)">
      <path fill-rule="evenodd" clip-rule="evenodd" d="M12 13C12 14.6569 10.6569 16 9 16H7C5.34315 16 4 14.6569 4 13V11.5C4 9.84315 5.34315 8.5 7 8.5H9C11.2091 8.5 13 6.70914 13 4.5V4C14.6569 4 16 5.34315 16 7V7.5C16 9.70914 14.2091 11.5 12 11.5H8C8 12.0523 8.44772 12.5 9 12.5H12V13ZM9 14V15H10V14H9Z" fill="#FFCC4A"/>
      <path fill-rule="evenodd" clip-rule="evenodd" d="M7 0H9C10.6569 0 12 1.34315 12 3V4.5C12 6.15685 10.6569 7.5 9 7.5H7C4.79086 7.5 3 9.29086 3 11.5V12C1.34315 12 0 10.6569 0 9V8.5C0 6.29086 1.79086 4.5 4 4.5H8C8 3.94772 7.55228 3.5 7 3.5H4V3C4 1.34315 5.34315 0 7 0ZM6 1V2H7V1H6Z" fill="#42A5F5"/>
    </g>
    <defs>
      <clipPath id="clip0_821_1054">
        <rect width="16" height="16" fill="white"/>
      </clipPath>
    </defs>
  </svg>
  <svg width="16" height="16" viewBox="0 0 16 16" fill="none" x="104" y="72">
    <path fill-rule="evenodd" clip-rule="evenodd" d="M12.3801 10.9004C13.9775 9.98404 15 8.57732 15 7C15 4.23858 11.866 2 8 2C4.13401 2 1 4.23858 1 7C1 8.99457 2.63505 10.7164 5 11.5188V4H10C11.6569 4 13 5.34315 13 7C13 7.86907 12.6305 8.65182 12.0399 9.19971L12.3801 10.9004ZM10.5325 11.6627L10.1987 9.99352C10.133 9.99782 10.0668 10 10 10H7V11.9494C7.3266 11.9827 7.66048 12 8 12C8.89312 12 9.74718 11.8805 10.5325 11.6627ZM10 8H7V6H10C10.5523 6 11 6.44772 11 7C11 7.55228 10.5523 8 10 8Z" fill="#42A5F5"/>
    <path fill-rule="evenodd" clip-rule="evenodd" d="M12.3801 10.9005C11.827 11.2178 11.2049 11.4763 10.5325 11.6627L11 14H13L12.3801 10.9005ZM7 11.9494C6.29385 11.8772 5.62171 11.7298 5 11.5188V14H7V11.9494Z" fill="#42A5F5"/>
  </svg>
  <svg width="16" height="16" viewBox="0 0 16 16" fill="none" x="136" y="72">
    <path fill-rule="evenodd" clip-rule="evenodd" d="M2 2C2 0.895431 2.89543 0 4 0H10L14 4V14C14 15.1046 13.1046 16 12 16H4C2.89543 16 2 15.1046 2 14V2ZM7 4H9V6H7V4ZM7 8H9V13H7V8Z" fill="#42A5F5"/>
  </svg>
  <svg width="16" height="16" viewBox="0 0 16 16" fill="none" x="168" y="72">
    <path fill-rule="evenodd" clip-rule="evenodd" d="M4 16C2.89543 16 2 15.1046 2 14V2C2 0.895431 2.89543 0 4 0H10L14 4V14C14 15.1046 13.1046 16 12 16H4ZM4 2V14H12V7H9C7.89543 7 7 6.10457 7 5V2H4ZM9 5V2L12 5H9Z" fill="#42A5F5"/>
    <rect x="5" y="11" width="6" height="2" fill="#42A5F5"/>
    <rect x="5" y="8" width="3" height="2" fill="#42A5F5"/>
    <rect x="9" y="8" width="2" height="2" fill="#42A5F5"/>
  </svg>
  <svg width="16" height="16" viewBox="0 0 16 16" fill="none" x="200" y="72">
    <path fill-rule="evenodd" clip-rule="evenodd" d="M2 1H7V0H9V1H14V4H15V6H14V9H2V6H1V4H2V1ZM5 3V7H7V3H5ZM9 7V3H11V7H9Z" fill="#6C7780"/>
    <path d="M4 16H12V13H14V11H12V10H4V11H2V13H4V16Z" fill="#6C7780"/>
  </svg>
  <svg width="16" height="16" viewBox="0 0 16 16" fill="none" x="232" y="72">
    <g clip-path="url(#clip0_821_665)">
      <path fill-rule="evenodd" clip-rule="evenodd" d="M8 16C12.4183 16 16 12.4183 16 8C16 3.58172 12.4183 0 8 0C3.58172 0 0 3.58172 0 8C0 12.4183 3.58172 16 8 16ZM8 14C11.3137 14 14 11.3137 14 8C14 4.68629 11.3137 2 8 2C4.68629 2 2 4.68629 2 8C2 11.3137 4.68629 14 8 14Z" fill="#A3B2BF"/>
      <circle cx="8" cy="8" r="4" fill="#A3B2BF"/>
    </g>
    <defs>
      <clipPath id="clip0_821_665">
        <rect width="16" height="16" fill="white"/>
      </clipPath>
    </defs>
  </svg>
  <svg width="16" height="16" viewBox="0 0 16 16" fill="none" x="264" y="72">
    <g clip-path="url(#clip0_821_670)">
      <path fill-rule="evenodd" clip-rule="evenodd" d="M8 16C12.4183 16 16 12.4183 16 8C16 3.58172 12.4183 0 8 0C3.58172 0 0 3.58172 0 8C0 12.4183 3.58172 16 8 16ZM8 14C11.3137 14 14 11.3137 14 8C14 4.68629 11.3137 2 8 2C4.68629 2 2 4.68629 2 8C2 11.3137 4.68629 14 8 14Z" fill="#A3B2BF"/>
    </g>
    <defs>
      <clipPath id="clip0_821_670">
        <rect width="16" height="16" fill="white"/>
      </clipPath>
    </defs>
  </svg>
  <svg width="16" height="16" viewBox="0 0 16 16" fill="none" x="296" y="72">
    <path fill-rule="evenodd" clip-rule="evenodd" d="M8 14.5556L0 6.55556L3.55556 3H12.4444L16 6.55556L8 14.5556ZM4.44444 3.88889L2.22222 6.11111H6.66667L4.44444 3.88889ZM5.77778 3.88889L8 6.11111L10.2222 3.88889H5.77778ZM9.33334 6.11112L11.5556 3.8889L13.7778 6.11112H9.33334ZM11.1111 7L8.44444 12.3333L13.7778 7H11.1111ZM5.77778 7H10.2222L8 12.3333L5.77778 7ZM7.55555 12.3333L2.22222 7H4.88889L7.55555 12.3333Z" fill="#FF5252"/>
  </svg>
  <svg width="16" height="16" viewBox="0 0 16 16" fill="none" x="328" y="72">
    <path fill-rule="evenodd" clip-rule="evenodd" d="M8 9V16H2C0.895431 16 0 15.1046 0 14V2C0 0.895431 0.895431 0 2 0H8V3H4V13H6V9H8ZM8 5V7H6V5H8Z" fill="#FF5252"/>
    <path fill-rule="evenodd" clip-rule="evenodd" d="M8 9H9C9.06677 9 9.13303 8.99782 9.19871 8.99352L10 13H12L11.0399 8.19971C11.6305 7.65182 12 6.86907 12 6C12 4.34315 10.6569 3 9 3H8V5H9C9.55228 5 10 5.44772 10 6C10 6.55228 9.55228 7 9 7H8V9Z" fill="#FF5252"/>
  </svg>
  <svg width="16" height="16" viewBox="0 0 16 16" fill="none" x="360" y="72">
    <path d="M2 6L14 4V0L2 2V6Z" fill="#FF5252"/>
    <path d="M2 11L14 9V5L2 7V11Z" fill="#FF5252"/>
    <path d="M2 16L14 14V10L2 12V16Z" fill="#FF5252"/>
  </svg>
  <svg width="16" height="16" viewBox="0 0 16 16" fill="none" x="392" y="72">
    <path fill-rule="evenodd" clip-rule="evenodd" d="M16 3C16 1.89543 15.1046 1 14 1H2C0.895431 1 0 1.89543 0 3V13C0 14.1046 0.895431 15 2 15H14C15.1046 15 16 14.1046 16 13V3ZM2 13V5H14V13H2ZM8 11H12V12H8V11ZM4 6L7 9L4 12V10L5 9L4 8V6Z" fill="#EF652F"/>
  </svg>
  <svg width="16" height="16" viewBox="0 0 16 16" fill="none" x="424" y="72">
    <path d="M8 16L15 14V8L4 6V4L8 3L12 4V5H15V2L8 0L1 2V8L12 10V12L8 13L4 12V11H1V14L8 16Z" fill="#FF5252"/>
  </svg>
  <svg width="16" height="16" viewBox="0 0 16 16" fill="none" x="456" y="72">
    <path fill-rule="evenodd" clip-rule="evenodd" d="M2 2C2 0.895431 2.89543 0 4 0H10L14 4V14C14 15.1046 13.1046 16 12 16H4C2.89543 16 2 15.1046 2 14V2ZM5 7C5 6.20435 5.31607 5.44129 5.87868 4.87868C6.44129 4.31607 7.20435 4 8 4C8.79565 4 9.55871 4.31607 10.1213 4.87868C10.6839 5.44129 11 6.20435 11 7L8.9999 7C8.9999 6.73481 8.89455 6.48048 8.70704 6.29296C8.51952 6.10545 8.26519 6.0001 8 6.0001C7.73481 6.0001 7.48048 6.10545 7.29296 6.29296C7.10545 6.48048 7.0001 6.73481 7.0001 7C7.0001 7.13131 7.02596 7.26133 7.07621 7.38265C7.12646 7.50396 7.20011 7.61419 7.29296 7.70704C7.38581 7.79989 7.49604 7.87354 7.61735 7.92379C7.73867 7.97404 7.86869 7.9999 8 7.9999V8C8.39397 8 8.78407 8.0776 9.14805 8.22836C9.51203 8.37913 9.84274 8.6001 10.1213 8.87868C10.3999 9.15726 10.6209 9.48797 10.7716 9.85195C10.9224 10.2159 11 10.606 11 11C11 11.7957 10.6839 12.5587 10.1213 13.1213C9.55871 13.6839 8.79565 14 8 14C7.20435 14 6.44129 13.6839 5.87868 13.1213C5.31607 12.5587 5 11.7956 5 11H7.0001C7.0001 11.2652 7.10545 11.5195 7.29296 11.707C7.48048 11.8946 7.73481 11.9999 8 11.9999C8.26519 11.9999 8.51952 11.8946 8.70704 11.707C8.89455 11.5195 8.9999 11.2652 8.9999 11C8.9999 10.8687 8.97404 10.7387 8.92379 10.6174C8.87354 10.496 8.79989 10.3858 8.70704 10.293C8.61419 10.2001 8.50396 10.1265 8.38265 10.0762C8.26133 10.026 8.13131 10.0001 8 10.0001V10C7.60603 10 7.21593 9.9224 6.85195 9.77164C6.48797 9.62087 6.15726 9.3999 5.87868 9.12132C5.6001 8.84274 5.37913 8.51203 5.22836 8.14805C5.0776 7.78407 5 7.39397 5 7Z" fill="url(#paint0_linear_821_1167)"/>
    <defs>
      <linearGradient id="paint0_linear_821_1167" x1="8" y1="0" x2="8" y2="16" gradientUnits="userSpaceOnUse">
        <stop stop-color="#FF5252"/>
        <stop offset="0.187433" stop-color="#FF9800"/>
        <stop offset="0.375377" stop-color="#FFCC4A"/>
        <stop offset="0.625204" stop-color="#8BC34A"/>
        <stop offset="0.812451" stop-color="#42A5F5"/>
        <stop offset="1" stop-color="#A56FFF"/>
      </linearGradient>
    </defs>
  </svg>
  <svg width="16" height="16" viewBox="0 0 16 16" fill="none" x="488" y="72">
    <path fill-rule="evenodd" clip-rule="evenodd" d="M2 2C2 0.895431 2.89543 0 4 0H10L14 4V14C14 15.1046 13.1046 16 12 16H4C2.89543 16 2 15.1046 2 14V2ZM6 4H7V5H9V4H10V5H12V7H13V8H12V10H13V11H12V13H10V14H9V13H7V14H6V13H4V11H3V10H4V8H3V7H4V5H6V4ZM5 6H11V12H5V6Z" fill="url(#paint0_linear_821_1200)"/>
    <defs>
      <linearGradient id="paint0_linear_821_1200" x1="8" y1="0" x2="8" y2="16" gradientUnits="userSpaceOnUse">
        <stop stop-color="#FF5252"/>
        <stop offset="0.187433" stop-color="#FF9800"/>
        <stop offset="0.375377" stop-color="#FFCC4A"/>
        <stop offset="0.625204" stop-color="#8BC34A"/>
        <stop offset="0.812451" stop-color="#42A5F5"/>
        <stop offset="1" stop-color="#A56FFF"/>
      </linearGradient>
    </defs>
  </svg>
  <svg width="16" height="16" viewBox="0 0 16 16" fill="none" x="520" y="72">
    <path fill-rule="evenodd" clip-rule="evenodd" d="M2 2C2 0.895431 2.89543 0 4 0H10L14 4V14C14 15.1046 13.1046 16 12 16H4C2.89543 16 2 15.1046 2 14V2ZM9 3H7V5H9V3ZM10 6H12V8H10V6ZM12 9H10V11H12V9ZM4 12H6V14H4V12ZM9 12H7V14H9V12ZM12 12H10V14H12V12ZM7 9H9V11H7V9ZM6 9H4V11H6V9ZM9 6H7V8H9V6ZM4 6H6V8H4V6ZM4 3H6V5H4V3Z" fill="url(#paint0_linear_821_1181)"/>
    <defs>
      <linearGradient id="paint0_linear_821_1181" x1="8" y1="0" x2="8" y2="16" gradientUnits="userSpaceOnUse">
        <stop stop-color="#FF5252"/>
        <stop offset="0.187433" stop-color="#FF9800"/>
        <stop offset="0.375377" stop-color="#FFCC4A"/>
        <stop offset="0.625204" stop-color="#8BC34A"/>
        <stop offset="0.812451" stop-color="#42A5F5"/>
        <stop offset="1" stop-color="#A56FFF"/>
      </linearGradient>
    </defs>
  </svg>
  <svg width="16" height="16" viewBox="0 0 16 16" fill="none" x="552" y="72">
    <path fill-rule="evenodd" clip-rule="evenodd" d="M2 2C2 0.895431 2.89543 0 4 0H10L14 4V14C14 15.1046 13.1046 16 12 16H4C2.89543 16 2 15.1046 2 14V2ZM11.7644 11.0309C11.9067 10.9531 12 10.8023 12 10.6286V6.51429C12 6.34057 11.9067 6.18971 11.7644 6.112L8.25333 4.08229C8.18222 4.02743 8.09333 4 8 4C7.90667 4 7.81778 4.02743 7.74667 4.08229L4.23556 6.112C4.09333 6.18971 4 6.34057 4 6.51429V10.6286C3.99978 10.7114 4.02162 10.7926 4.06315 10.8636C4.10467 10.9345 4.1643 10.9923 4.23556 11.0309L7.74667 13.0606C7.81778 13.1154 7.90667 13.1429 8 13.1429C8.09333 13.1429 8.18222 13.1154 8.25333 13.0606L11.7644 11.0309ZM5.35111 6.51429L8 4.98286L10.6489 6.51429L8 8.04572L5.35111 6.51429ZM7.55556 11.904L4.88889 10.3589V7.296L7.55556 8.83657V11.904Z" fill="url(#paint0_linear_821_1196)"/>
    <defs>
      <linearGradient id="paint0_linear_821_1196" x1="8" y1="0" x2="8" y2="16" gradientUnits="userSpaceOnUse">
        <stop stop-color="#FF5252"/>
        <stop offset="0.187433" stop-color="#FF9800"/>
        <stop offset="0.375377" stop-color="#FFCC4A"/>
        <stop offset="0.625204" stop-color="#8BC34A"/>
        <stop offset="0.812451" stop-color="#42A5F5"/>
        <stop offset="1" stop-color="#A56FFF"/>
      </linearGradient>
    </defs>
  </svg>
  <svg width="16" height="16" viewBox="0 0 16 16" fill="none" x="584" y="72">
    <path fill-rule="evenodd" clip-rule="evenodd" d="M4 0C2.89543 0 2 0.895431 2 2V14C2 15.1046 2.89543 16 4 16H12C13.1046 16 14 15.1046 14 14V4L10 0H4ZM12 12V13H11H5H4V12V6V5H5H11H12V6V12ZM11 12L5 6H11V12Z" fill="url(#paint0_linear_821_1176)"/>
    <defs>
      <linearGradient id="paint0_linear_821_1176" x1="8" y1="0" x2="8" y2="16" gradientUnits="userSpaceOnUse">
        <stop stop-color="#FF5252"/>
        <stop offset="0.187433" stop-color="#FF9800"/>
        <stop offset="0.375377" stop-color="#FFCC4A"/>
        <stop offset="0.625204" stop-color="#8BC34A"/>
        <stop offset="0.812451" stop-color="#42A5F5"/>
        <stop offset="1" stop-color="#A56FFF"/>
      </linearGradient>
    </defs>
  </svg>
  <svg width="16" height="16" viewBox="0 0 16 16" fill="none" x="616" y="72">
    <path fill-rule="evenodd" clip-rule="evenodd" d="M2 2C2 0.895431 2.89543 0 4 0H10L14 4V14C14 15.1046 13.1046 16 12 16H4C2.89543 16 2 15.1046 2 14V2ZM6 4H7V5H9V4H10V5H12V7H13V8H12V10H13V11H12V13H10V14H9V13H7V14H6V13H4V11H3V10H4V8H3V7H4V5H6V4ZM5 6H11V12H5V6Z" fill="url(#paint0_linear_821_1212)"/>
    <defs>
      <linearGradient id="paint0_linear_821_1212" x1="8" y1="0" x2="8" y2="16" gradientUnits="userSpaceOnUse">
        <stop stop-color="#FF5252"/>
        <stop offset="0.187433" stop-color="#FF9800"/>
        <stop offset="0.375377" stop-color="#FFCC4A"/>
        <stop offset="0.625204" stop-color="#8BC34A"/>
        <stop offset="0.812451" stop-color="#42A5F5"/>
        <stop offset="1" stop-color="#A56FFF"/>
      </linearGradient>
    </defs>
  </svg>
  <svg width="16" height="16" viewBox="0 0 16 16" fill="none" x="648" y="72">
    <path fill-rule="evenodd" clip-rule="evenodd" d="M2 16V2L10 0.666667V3H12V0.333333L14 0V16H2ZM5.87868 4.87868C5.31607 5.44129 5 6.20435 5 7C5 7.39397 5.0776 7.78407 5.22836 8.14805C5.37913 8.51203 5.6001 8.84274 5.87868 9.12132C6.15726 9.3999 6.48797 9.62087 6.85195 9.77164C7.21593 9.9224 7.60603 10 8 10V10.0001C8.13131 10.0001 8.26133 10.026 8.38265 10.0762C8.50396 10.1265 8.61419 10.2001 8.70704 10.293C8.79989 10.3858 8.87354 10.496 8.92379 10.6174C8.97404 10.7387 8.9999 10.8687 8.9999 11C8.9999 11.2652 8.89455 11.5195 8.70704 11.707C8.51952 11.8946 8.26519 11.9999 8 11.9999C7.73481 11.9999 7.48048 11.8946 7.29296 11.707C7.10545 11.5195 7.0001 11.2652 7.0001 11H5C5 11.7956 5.31607 12.5587 5.87868 13.1213C6.44129 13.6839 7.20435 14 8 14C8.79565 14 9.55871 13.6839 10.1213 13.1213C10.6839 12.5587 11 11.7957 11 11C11 10.606 10.9224 10.2159 10.7716 9.85195C10.6209 9.48797 10.3999 9.15726 10.1213 8.87868C9.84274 8.6001 9.51203 8.37913 9.14805 8.22836C8.78407 8.0776 8.39397 8 8 8V7.9999C7.86869 7.9999 7.73867 7.97404 7.61735 7.92379C7.49604 7.87354 7.38581 7.79989 7.29296 7.70704C7.20011 7.61419 7.12646 7.50396 7.07621 7.38265C7.02596 7.26133 7.0001 7.13131 7.0001 7C7.0001 6.73481 7.10545 6.48048 7.29296 6.29296C7.48048 6.10545 7.73481 6.0001 8 6.0001C8.26519 6.0001 8.51952 6.10545 8.70704 6.29296C8.89455 6.48048 8.9999 6.73481 8.9999 7L11 7C11 6.20435 10.6839 5.44129 10.1213 4.87868C9.55871 4.31607 8.79565 4 8 4C7.20435 4 6.44129 4.31607 5.87868 4.87868Z" fill="#FF5252"/>
  </svg>
  <svg width="16" height="16" viewBox="0 0 16 16" fill="none" x="680" y="72">
    <g clip-path="url(#clip0_821_1129)">
      <path fill-rule="evenodd" clip-rule="evenodd" d="M6.91187 0.705096C9.02713 -0.637277 11.9695 -0.0135479 13.4475 2.11527C14.1661 3.1051 14.4509 4.35255 14.2203 5.57289C14.1254 6.14238 13.9085 6.68476 13.5831 7.17289C14.0576 8.05425 14.2068 9.0712 14.0305 10.061C13.8271 11.2407 13.122 12.2848 12.1051 12.922L8.37628 15.2949C6.26102 16.6373 3.33221 16.0136 1.84069 13.8848C1.1356 12.8949 0.850855 11.6475 1.0678 10.4407C1.16272 9.8712 1.37967 9.32882 1.70509 8.84069C1.23052 7.95933 1.08136 6.94238 1.25763 5.95255C1.46102 4.77289 2.16611 3.72882 3.18306 3.09154L6.91187 0.705096ZM3.37288 12.9085C4.07797 13.9254 5.33899 14.4 6.54577 14.0881C6.81695 14.0068 7.07458 13.8983 7.30509 13.7491L11.0339 11.3763C11.6441 10.9966 12.078 10.3593 12.2 9.65423C12.322 8.92203 12.1593 8.17626 11.7254 7.57965C11.0203 6.56271 9.75933 6.08813 8.55255 6.39999C8.28136 6.48135 8.02373 6.58982 7.79322 6.73898L6.36949 7.64745C6.3017 7.68813 6.22034 7.71525 6.13899 7.74236L6.13899 7.74237C5.77288 7.83728 5.39322 7.70169 5.17627 7.38982C5.05424 7.21355 5 6.98304 5.04068 6.76609C5.08136 6.54915 5.20339 6.37287 5.39322 6.25084L9.10848 3.87796C9.17627 3.83728 9.25763 3.81016 9.33899 3.78304C9.70509 3.68813 10.0847 3.82372 10.3017 4.13559C10.4102 4.2983 10.4644 4.50169 10.4508 4.69152L10.4373 4.82711L10.5729 4.86779C11.1017 5.0305 11.5898 5.27457 12.0373 5.59999L12.2271 5.73559L12.2949 5.51864C12.3356 5.3966 12.3627 5.28813 12.3898 5.16609C12.5119 4.43389 12.3492 3.68813 11.9153 3.09152C11.2102 2.07457 9.94915 1.59999 8.74238 1.91186C8.47119 1.99321 8.21356 2.10169 7.98305 2.25084L4.25424 4.62372C3.64407 5.00338 3.21017 5.64067 3.08814 6.34576C2.95254 7.07796 3.12882 7.82372 3.54915 8.42033C4.25424 9.43728 5.51526 9.91186 6.72204 9.59999C6.99322 9.5322 7.25085 9.42372 7.48136 9.27457L8.90509 8.36609C8.97288 8.32542 9.05424 8.2983 9.1356 8.27118C9.5017 8.17626 9.88136 8.31186 10.0983 8.62372C10.2203 8.79999 10.2746 9.0305 10.2339 9.24745C10.1932 9.4644 10.0712 9.64067 9.88136 9.7627L6.1661 12.1356C6.09831 12.1763 6.01696 12.2034 5.93561 12.2305L5.9356 12.2305C5.56949 12.3254 5.18983 12.1763 4.97288 11.8644C4.86441 11.7017 4.81017 11.4983 4.82373 11.3085L4.83729 11.1729L4.7017 11.1322C4.17288 10.9695 3.68475 10.7254 3.23729 10.4L3.04746 10.2644L2.97966 10.4813C2.9661 10.5424 2.95255 10.6 2.93899 10.6576C2.92543 10.7152 2.91187 10.7729 2.89831 10.8339C2.77627 11.5661 2.93899 12.3119 3.37288 12.9085Z" fill="#EF652F"/>
    </g>
    <defs>
      <clipPath id="clip0_821_1129">
        <rect width="16" height="16" fill="white"/>
      </clipPath>
    </defs>
  </svg>
  <svg width="16" height="16" viewBox="0 0 16 16" fill="none" x="712" y="72">
    <path fill-rule="evenodd" clip-rule="evenodd" d="M2 1C0.895431 1 0 1.89543 0 3V13C0 14.1046 0.895431 15 2 15H14C15.1046 15 16 14.1046 16 13V3C16 1.89543 15.1046 1 14 1H2ZM4 6C4.55228 6 5 5.55228 5 5C5 4.44772 4.55228 4 4 4C3.44772 4 3 4.44772 3 5C3 5.55228 3.44772 6 4 6ZM4 7C5.10457 7 6 6.10457 6 5C6 3.89543 5.10457 3 4 3C2.89543 3 2 3.89543 2 5C2 6.10457 2.89543 7 4 7ZM8.29289 9.29289L7.70711 8.70711L7 8L6.29289 8.70711L3 12L2 13H3.41421H13H14V12V6.41421V5L13 6L9.70711 9.29289L9 10L8.29289 9.29289ZM13 7.41421L9.70711 10.7071L9 11.4142L8.29289 10.7071L7 9.41421L4.41421 12H13V7.41421Z" fill="#FFCC4A"/>
  </svg>
  <svg width="16" height="16" viewBox="0 0 16 16" fill="none" x="744" y="72">
    <rect x="7" y="12" width="8" height="2" fill="#42A5F5"/>
    <rect x="1.5" y="11.5" width="3" height="3" stroke="#42A5F5"/>
    <rect x="7" y="7" width="8" height="2" fill="#42A5F5"/>
    <rect x="1" y="6" width="4" height="4" fill="#42A5F5"/>
    <rect x="7" y="2" width="8" height="2" fill="#42A5F5"/>
    <rect x="1" y="1" width="4" height="4" fill="#42A5F5"/>
  </svg>
  <svg width="16" height="16" viewBox="0 0 16 16" fill="none" x="776" y="72">
    <g clip-path="url(#clip0_821_864)">
      <path d="M11 0H14C15.1046 0 16 0.895431 16 2V14C16 15.1046 15.1046 16 14 16H11V14H14V2H11V0Z" fill="#EF652F"/>
      <path d="M4 6V4H12V6H9V12H7V6H4Z" fill="#EF652F"/>
      <path d="M5 0H2C0.895431 0 0 0.895431 0 2V14C0 15.1046 0.89543 16 2 16H5V14H2V2H5V0Z" fill="#EF652F"/>
    </g>
    <defs>
      <clipPath id="clip0_821_864">
        <rect width="16" height="16" fill="white"/>
      </clipPath>
    </defs>
  </svg>
  <svg width="16" height="16" viewBox="0 0 16 16" fill="none" x="808" y="72">
    <g clip-path="url(#clip0_901_99)">
      <path d="M11 7L2.5 15.5C1.94772 16.0523 1.05228 16.0523 0.5 15.5C-0.0522848 14.9477 -0.0522841 14.0523 0.500001 13.5L9 5L11 7Z" fill="#6C7780"/>
      <path fill-rule="evenodd" clip-rule="evenodd" d="M13.6465 0.353502L10.5 3.49999L12.5 5.5L15.6465 2.3535C15.8736 2.85564 16 3.41306 16 4C16 6.20914 14.2091 8 12 8C9.79086 8 8 6.20914 8 4C8 1.79086 9.79086 0 12 0C12.5869 0 13.1443 0.126415 13.6465 0.353502Z" fill="#6C7780"/>
      <path d="M11 9L15.5 13.5C16.0523 14.0523 16.0523 14.9477 15.5 15.5C14.9477 16.0523 14.0523 16.0523 13.5 15.5L9 11L11 9Z" fill="#6C7780"/>
      <path d="M0 1L3 7H5L7 5V3L1 0L0 1Z" fill="#6C7780"/>
    </g>
    <defs>
      <clipPath id="clip0_901_99">
        <rect width="16" height="16" fill="white"/>
      </clipPath>
    </defs>
  </svg>
  <svg width="16" height="16" viewBox="0 0 16 16" fill="none" x="840" y="72">
    <g clip-path="url(#clip0_821_1102)">
      <path fill-rule="evenodd" clip-rule="evenodd" d="M11.3586 13.5902L11.3599 13.59L11.3601 13.5899C11.36 13.5897 11.3568 13.5896 11.3509 13.5904C11.3546 13.5905 11.3571 13.5904 11.3586 13.5902ZM11.2274 13.4993C11.2224 13.5234 11.2175 13.545 11.2126 13.5643C11.1934 13.5589 11.1722 13.5524 11.1488 13.5446C10.8716 13.4522 10.4601 13.2256 9.94429 12.8013C9.66857 12.5744 9.38124 12.3061 9.08824 12H6.91177C6.61877 12.3062 6.33143 12.5744 6.05571 12.8013C5.53986 13.2257 5.12836 13.4522 4.85117 13.5446C4.82778 13.5524 4.80657 13.5589 4.78743 13.5643C4.78254 13.5451 4.77756 13.5234 4.77262 13.4993C4.71407 13.213 4.70452 12.7434 4.81413 12.0844C4.8795 11.6914 4.98234 11.2601 5.12247 10.8001C5.40746 10.8413 5.70033 10.8765 6 10.9055V8L4.61364 8C4.43855 8.36907 4.27929 8.73397 4.1363 9.09197C3.66785 8.98331 3.24287 8.8567 2.86983 8.71681C2.24438 8.48227 1.84243 8.23917 1.62379 8.04533C1.60534 8.02898 1.58912 8.01386 1.57487 7.99998C1.58912 7.98611 1.60534 7.97099 1.62379 7.95464C1.84243 7.76079 2.24438 7.5177 2.86983 7.28316C3.20636 7.15696 3.58515 7.04157 4 6.94042V4H4.82864C4.82362 3.97166 4.81878 3.94351 4.81413 3.91555C4.70452 3.25662 4.71407 2.78698 4.77262 2.50071C4.77756 2.47655 4.78254 2.45494 4.78743 2.43567C4.80657 2.44107 4.82778 2.44756 4.85117 2.45536C5.12836 2.54778 5.53986 2.77434 6.05571 3.19872C6.33143 3.42556 6.61877 3.69385 6.91177 4H9.08824C9.38124 3.69385 9.66857 3.42557 9.94429 3.19873C10.4601 2.77435 10.8716 2.54779 11.1488 2.45537C11.1722 2.44757 11.1934 2.44108 11.2126 2.43568C11.2175 2.45495 11.2224 2.47656 11.2274 2.50071C11.2859 2.78698 11.2955 3.25663 11.1859 3.91556C11.1812 3.94351 11.1764 3.97166 11.1714 4H12V6.94042C12.4148 7.04157 12.7936 7.15696 13.1302 7.28316C13.7556 7.5177 14.1576 7.76079 14.3762 7.95464C14.3947 7.97099 14.4109 7.98611 14.4251 7.99999C14.4109 8.01386 14.3947 8.02898 14.3762 8.04533C14.1576 8.23917 13.7556 8.48227 13.1302 8.71681C12.7571 8.8567 12.3322 8.98331 11.8637 9.09197C11.7207 8.73397 11.5615 8.36907 11.3864 8L10 8V10.9055C10.2997 10.8765 10.5925 10.8413 10.8775 10.8001C11.0177 11.2601 11.1205 11.6914 11.1859 12.0844C11.2955 12.7434 11.2859 13.213 11.2274 13.4993ZM12 14.9282C11.0872 15.4552 9.55955 14.6634 8 13.0324C6.44045 14.6634 4.91282 15.4552 4 14.9282C3.08718 14.4012 3.00909 12.6823 3.64186 10.5162C1.44954 9.98109 0 9.05402 0 7.99998C0 6.94595 1.44954 6.01888 3.64185 5.48381C3.00908 3.31768 3.08718 1.59881 4 1.07179C4.91282 0.544776 6.44046 1.33658 8.00001 2.96765C9.55955 1.33659 11.0872 0.544784 12 1.0718C12.9128 1.59881 12.9909 3.31768 12.3581 5.48381C14.5505 6.01888 16 6.94595 16 7.99998C16 9.05402 14.5505 9.98108 12.3581 10.5162C12.9909 12.6823 12.9128 14.4012 12 14.9282ZM4.83904 2.29513C4.83917 2.29534 4.83762 2.29811 4.83401 2.3028C4.8371 2.29725 4.8389 2.29491 4.83904 2.29513ZM4.63992 2.41008C4.6398 2.40986 4.64273 2.40947 4.64908 2.40957C4.64321 2.41036 4.64004 2.41031 4.63992 2.41008ZM11.166 13.6972C11.1629 13.7027 11.1611 13.7051 11.161 13.7049C11.1608 13.7046 11.1624 13.7019 11.166 13.6972ZM14.521 7.88503C14.5213 7.88503 14.5202 7.88777 14.5169 7.89321C14.5192 7.88774 14.5208 7.88502 14.521 7.88503ZM1.47896 7.88503C1.47921 7.88502 1.48084 7.88774 1.48309 7.89321C1.47983 7.88777 1.4787 7.88503 1.47896 7.88503ZM1.47896 8.11494C1.4787 8.11494 1.47983 8.1122 1.48309 8.10676C1.48084 8.11223 1.47921 8.11495 1.47896 8.11494ZM14.5169 8.10676C14.5202 8.1122 14.5213 8.11494 14.521 8.11494C14.5208 8.11495 14.5192 8.11223 14.5169 8.10676ZM11.161 2.29513C11.1611 2.29492 11.1629 2.29726 11.166 2.3028C11.1624 2.29812 11.1608 2.29535 11.161 2.29513ZM4.63992 13.5899C4.64004 13.5897 4.64321 13.5896 4.64908 13.5904C4.64273 13.5905 4.6398 13.5901 4.63992 13.5899ZM4.83904 13.7049C4.8389 13.7051 4.8371 13.7027 4.83401 13.6972C4.83762 13.7019 4.83917 13.7047 4.83904 13.7049ZM11.3509 2.40957C11.3573 2.40948 11.3602 2.40987 11.3601 2.41009C11.36 2.41031 11.3568 2.41036 11.3509 2.40957Z" fill="#42A5F5"/>
      <path d="M9 7H11V5H5V7H7V11H9V7Z" fill="#42A5F5"/>
    </g>
    <defs>
      <clipPath id="clip0_821_1102">
        <rect width="16" height="16" fill="white"/>
      </clipPath>
    </defs>
  </svg>
  <svg width="16" height="16" viewBox="0 0 16 16" fill="none" x="8" y="104">
    <g clip-path="url(#clip0_821_899)">
      <path fill-rule="evenodd" clip-rule="evenodd" d="M0 2C0 0.895431 0.895431 0 2 0H14C15.1046 0 16 0.895431 16 2V14C16 15.1046 15.1046 16 14 16H2C0.895431 16 0 15.1046 0 14V2ZM9.87868 4.87868C9.31607 5.44129 9 6.20435 9 7C9 7.39397 9.0776 7.78407 9.22836 8.14805C9.37913 8.51203 9.6001 8.84274 9.87868 9.12132C10.1573 9.3999 10.488 9.62087 10.8519 9.77164C11.2159 9.9224 11.606 10 12 10V10.0001C12.1313 10.0001 12.2613 10.026 12.3826 10.0762C12.504 10.1265 12.6142 10.2001 12.707 10.293C12.7999 10.3858 12.8735 10.496 12.9238 10.6174C12.974 10.7387 12.9999 10.8687 12.9999 11C12.9999 11.2652 12.8946 11.5195 12.707 11.707C12.5195 11.8946 12.2652 11.9999 12 11.9999C11.7348 11.9999 11.4805 11.8946 11.293 11.707C11.1054 11.5195 11.0001 11.2652 11.0001 11H9C9 11.7956 9.31607 12.5587 9.87868 13.1213C10.4413 13.6839 11.2043 14 12 14C12.7956 14 13.5587 13.6839 14.1213 13.1213C14.6839 12.5587 15 11.7957 15 11C15 10.606 14.9224 10.2159 14.7716 9.85195C14.6209 9.48797 14.3999 9.15726 14.1213 8.87868C13.8427 8.6001 13.512 8.37913 13.1481 8.22836C12.7841 8.0776 12.394 8 12 8V7.9999C11.8687 7.9999 11.7387 7.97404 11.6174 7.92379C11.496 7.87354 11.3858 7.79989 11.293 7.70704C11.2001 7.61419 11.1265 7.50396 11.0762 7.38265C11.026 7.26133 11.0001 7.13131 11.0001 7C11.0001 6.73481 11.1054 6.48048 11.293 6.29296C11.4805 6.10545 11.7348 6.0001 12 6.0001C12.2652 6.0001 12.5195 6.10545 12.707 6.29296C12.8946 6.48048 12.9999 6.73481 12.9999 7L15 7C15 6.20435 14.6839 5.44129 14.1213 4.87868C13.5587 4.31607 12.7956 4 12 4C11.2043 4 10.4413 4.31607 9.87868 4.87868ZM2 4H8V6H6V14H4V6H2V4Z" fill="#42A5F5"/>
    </g>
    <defs>
      <clipPath id="clip0_821_899">
        <rect width="16" height="16" fill="white"/>
      </clipPath>
    </defs>
  </svg>
  <svg width="16" height="16" viewBox="0 0 16 16" fill="none" x="40" y="104">
    <path fill-rule="evenodd" clip-rule="evenodd" d="M2 1C0.895431 1 0 1.89543 0 3V13C0 14.1046 0.895431 15 2 15H14C15.1046 15 16 14.1046 16 13V3C16 1.89543 15.1046 1 14 1H2ZM12 3H14V5H12V3ZM14 7H12V9H14V7ZM14 11H12V13H14V11ZM4 11H2V13H4V11ZM2 7H4V9H2V7ZM4 3H2V5H4V3ZM6 5L10 8L6 11V5Z" fill="#EF652F"/>
  </svg>
  <svg width="16" height="16" viewBox="0 0 16 16" fill="none" x="72" y="104">
    <path d="M0 1L8 15L16 1H11L8 7L5 1H0Z" fill="#8BC34A"/>
    <path fill-rule="evenodd" clip-rule="evenodd" d="M13.7143 1H11L8 7L5 1H2.28571L8 11L13.7143 1Z" fill="#8BC34A"/>
  </svg>
  <svg width="16" height="16" viewBox="0 0 16 16" fill="none" x="104" y="104">
    <g clip-path="url(#clip0_821_910)">
      <path fill-rule="evenodd" clip-rule="evenodd" d="M8 2C9.10457 2 10 1.10457 10 0H14C15.1046 0 16 0.895431 16 2V14C16 15.1046 15.1046 16 14 16H2C0.895431 16 0 15.1046 0 14V2C0 0.895431 0.895431 0 2 0H6C6 1.10457 6.89543 2 8 2ZM12.9 8C12.4367 5.71776 10.419 4 8 4L7.29288 4.70711C7.10535 4.89464 6.99999 5.149 6.99999 5.41421V6.29289C6.99999 6.68342 7.31658 7 7.7071 7C7.89464 7 8.0745 7.0745 8.20711 7.20711L9.70711 8.70711C9.89464 8.89464 10.149 9 10.4142 9H10.5858C10.851 9 11.1053 8.89464 11.2929 8.70711L11.7071 8.29289C11.8946 8.10536 12.149 8 12.4142 8H12.9ZM3 9C3 11.0478 4.23104 12.808 5.99345 13.5811C5.99775 13.5547 6 13.5276 6 13.5C6 13.2239 6.22386 13 6.5 13H7C7.55228 13 8 12.5523 8 12V11.4142C8 11.149 7.89464 10.8946 7.70711 10.7071L6.29289 9.29289C6.10536 9.10535 5.851 9 5.58578 9L3 9ZM8 15C11.3137 15 14 12.3137 14 9C14 5.68629 11.3137 3 8 3C4.68629 3 2 5.68629 2 9C2 12.3137 4.68629 15 8 15Z" fill="#6C7780"/>
    </g>
    <defs>
      <clipPath id="clip0_821_910">
        <rect width="16" height="16" fill="white"/>
      </clipPath>
    </defs>
  </svg>
  <svg width="16" height="16" viewBox="0 0 16 16" fill="none" x="136" y="104">
    <path fill-rule="evenodd" clip-rule="evenodd" d="M8 16L2 14L1 0H15L14 14L8 16ZM4 3.99999L5 2.99999L8 6L11 3L12 4L9 7L12 10L11 11L8 8L5 11L4 10L7 7L4 3.99999Z" fill="#EF652F"/>
  </svg>
  <svg width="16" height="16" viewBox="0 0 16 16" fill="none" x="168" y="104">
    <path d="M16 8L11.5 3.5L10 5L13 8L10 11L11.5 12.5L16 8Z" fill="#8BC34A"/>
    <path d="M8 14H6L8 2H10L8 14Z" fill="#8BC34A"/>
    <path d="M0 8L4.5 3.5L6 5L3 8L6 11L4.5 12.5L0 8Z" fill="#8BC34A"/>
  </svg>
  <svg width="16" height="16" viewBox="0 0 16 16" fill="none" x="200" y="104">
    <g clip-path="url(#clip0_821_847)">
      <path d="M10 6L13 0H16L13 6H10Z" fill="#FF5252"/>
      <path d="M3 16H0L4 8L0 0H3L5.5 5L8 0H11L3 16Z" fill="#FF5252"/>
    </g>
    <defs>
      <clipPath id="clip0_821_847">
        <rect width="16" height="16" fill="white"/>
      </clipPath>
    </defs>
  </svg>
  <svg width="16" height="16" viewBox="0 0 16 16" fill="none" x="232" y="104">
    <path fill-rule="evenodd" clip-rule="evenodd" d="M14 1C15.1046 1 16 1.89543 16 3V13C16 14.1046 15.1046 15 14 15H2C0.895431 15 0 14.1046 0 13V3C0 1.89543 0.895431 1 2 1H14ZM2 5V13H14V5H2ZM3 4C3.55228 4 4 3.55228 4 3C4 2.44772 3.55228 2 3 2C2.44772 2 2 2.44772 2 3C2 3.55228 2.44772 4 3 4ZM6 4C6.55228 4 7 3.55228 7 3C7 2.44772 6.55228 2 6 2C5.44772 2 5 2.44772 5 3C5 3.55228 5.44772 4 6 4ZM10 3C10 3.55228 9.55228 4 9 4C8.44772 4 8 3.55228 8 3C8 2.44772 8.44772 2 9 2C9.55228 2 10 2.44772 10 3Z" fill="#EF652F"/>
  </svg>
  <svg width="16" height="16" viewBox="0 0 16 16" fill="none" x="264" y="104">
    <g clip-path="url(#clip0_821_695)">
      <path fill-rule="evenodd" clip-rule="evenodd" d="M8 16C12.4183 16 16 12.4183 16 8C16 3.58172 12.4183 0 8 0C3.58172 0 0 3.58172 0 8C0 12.4183 3.58172 16 8 16ZM9 4H8V8.26756C7.70583 8.09739 7.36429 8 7 8C5.89543 8 5 8.89543 5 10C5 11.1046 5.89543 12 7 12C8.10457 12 9 11.1046 9 10V6H11V4H9Z" fill="#FF5252"/>
    </g>
    <defs>
      <clipPath id="clip0_821_695">
        <rect width="16" height="16" fill="white"/>
      </clipPath>
    </defs>
  </svg>
  <svg width="16" height="16" viewBox="0 0 16 16" fill="none" x="296" y="104">
    <g clip-path="url(#clip0_821_935)">
      <path d="M13.6569 13.6569C12.538 14.7757 11.1126 15.5376 9.56072 15.8463C8.00887 16.155 6.40034 15.9965 4.93853 15.391C3.47672 14.7855 2.22729 13.7602 1.34824 12.4446C0.469192 11.129 9.7449e-08 9.58225 0 8C-9.74489e-08 6.41775 0.469192 4.87103 1.34824 3.55544C2.22729 2.23985 3.47672 1.21447 4.93853 0.608964C6.40034 0.00346286 8.00887 -0.154964 9.56072 0.153718C11.1126 0.462399 12.538 1.22433 13.6569 2.34314L12.5255 3.47452C11.6304 2.57946 10.4901 1.96992 9.24858 1.72297C8.0071 1.47603 6.72027 1.60277 5.55083 2.08717C4.38138 2.57157 3.38184 3.39188 2.67859 4.44435C1.97535 5.49683 1.6 6.7342 1.6 8C1.6 9.2658 1.97535 10.5032 2.67859 11.5556C3.38184 12.6081 4.38138 13.4284 5.55083 13.9128C6.72027 14.3972 8.0071 14.524 9.24858 14.277C10.4901 14.0301 11.6304 13.4205 12.5255 12.5255L13.6569 13.6569Z" fill="#42A5F5"/>
      <path fill-rule="evenodd" clip-rule="evenodd" d="M12 5H14V7H16V9H14V11H12V9H10V7H12V5Z" fill="#42A5F5"/>
      <path fill-rule="evenodd" clip-rule="evenodd" d="M5 5H7V7H9V9H7V11H5V9H3V7H5V5Z" fill="#42A5F5"/>
    </g>
    <defs>
      <clipPath id="clip0_821_935">
        <rect width="16" height="16" fill="white"/>
      </clipPath>
    </defs>
  </svg>
  <svg width="16" height="16" viewBox="0 0 16 16" fill="none" x="328" y="104">
    <g filter="url(#filter0_i_821_1112)">
      <path d="M1.40171 8.33049L4 4H5V13L1.55209 9.55209C1.22762 9.22762 1.16562 8.72397 1.40171 8.33049Z" fill="#42A5F5"/>
    </g>
    <path d="M8.33049 1.40171L4 4V5H13L12 4L9.55209 1.55209C9.22762 1.22762 8.72397 1.16562 8.33049 1.40171Z" fill="#42A5F5"/>
    <path d="M4 11.5858V4L12 12V15H7L4.29289 12.2929C4.10536 12.1054 4 11.851 4 11.5858Z" fill="#42A5F5"/>
    <g filter="url(#filter1_i_821_1112)">
      <path d="M12.2929 4.29289C12.1054 4.10536 11.851 4 11.5858 4H4L12 12H15V7L12.2929 4.29289Z" fill="#42A5F5"/>
    </g>
    <defs>
      <filter id="filter0_i_821_1112" x="1.25918" y="4" width="3.74082" height="9" filterUnits="userSpaceOnUse" color-interpolation-filters="sRGB">
        <feFlood flood-opacity="0" result="BackgroundImageFix"/>
        <feBlend mode="normal" in="SourceGraphic" in2="BackgroundImageFix" result="shape"/>
        <feColorMatrix in="SourceAlpha" type="matrix" values="0 0 0 0 0 0 0 0 0 0 0 0 0 0 0 0 0 0 127 0" result="hardAlpha"/>
        <feOffset dy="16"/>
        <feComposite in2="hardAlpha" operator="arithmetic" k2="-1" k3="1"/>
        <feColorMatrix type="matrix" values="0 0 0 0 0 0 0 0 0 0 0 0 0 0 0 0 0 0 0.35 0"/>
        <feBlend mode="normal" in2="shape" result="effect1_innerShadow_821_1112"/>
      </filter>
      <filter id="filter1_i_821_1112" x="4" y="4" width="11" height="8" filterUnits="userSpaceOnUse" color-interpolation-filters="sRGB">
        <feFlood flood-opacity="0" result="BackgroundImageFix"/>
        <feBlend mode="normal" in="SourceGraphic" in2="BackgroundImageFix" result="shape"/>
        <feColorMatrix in="SourceAlpha" type="matrix" values="0 0 0 0 0 0 0 0 0 0 0 0 0 0 0 0 0 0 127 0" result="hardAlpha"/>
        <feOffset dy="16"/>
        <feComposite in2="hardAlpha" operator="arithmetic" k2="-1" k3="1"/>
        <feColorMatrix type="matrix" values="0 0 0 0 0 0 0 0 0 0 0 0 0 0 0 0 0 0 0.35 0"/>
        <feBlend mode="normal" in2="shape" result="effect1_innerShadow_821_1112"/>
      </filter>
    </defs>
  </svg>
  <svg width="16" height="16" viewBox="0 0 16 16" fill="none" x="360" y="104">
    <path d="M12 8H0C0 12.4183 3.58172 16 8 16C12.4183 16 16 12.4183 16 8V4C13.7909 4 12 5.79086 12 8Z" fill="#42A5F5"/>
    <path d="M3 5V7H5V5H3Z" fill="#42A5F5"/>
    <path d="M0 7V5H2V7H0Z" fill="#42A5F5"/>
    <path d="M6 7V5H8V7H6Z" fill="#42A5F5"/>
    <path d="M3 2V4H5V2H3Z" fill="#42A5F5"/>
    <path d="M6 4V2H8V4H6Z" fill="#42A5F5"/>
    <path d="M9 7V5H11V7H9Z" fill="#42A5F5"/>
  </svg>
  <svg width="16" height="16" viewBox="0 0 16 16" fill="none" x="392" y="104">
    <path d="M14 15H2C0.895431 15 0 14.1046 0 13V3C0 1.89543 0.89543 1 2 1H7L9 3H14C15.1046 3 16 3.89543 16 5V13C16 14.1046 15.1046 15 14 15Z" fill="#A3B2BF"/>
  </svg>
  <svg width="16" height="16" viewBox="0 0 16 16" fill="none" x="424" y="104">
    <g clip-path="url(#clip0_821_789)">
      <path d="M3 16V7H5V16H3Z" fill="#EF652F"/>
      <path d="M9 5V3H11C12.1046 3 13 3.89543 13 5V9H11V5H9Z" fill="#EF652F"/>
      <circle cx="4" cy="4" r="3" stroke="#EF652F" stroke-width="2"/>
      <circle cx="12" cy="12" r="3" stroke="#EF652F" stroke-width="2"/>
    </g>
    <defs>
      <clipPath id="clip0_821_789">
        <rect width="16" height="16" fill="white"/>
      </clipPath>
    </defs>
  </svg>
  <svg width="16" height="16" viewBox="0 0 16 16" fill="none" x="456" y="104">
    <g clip-path="url(#clip0_901_46)">
      <path d="M16 4V0H12L0 12V16H4L16 4Z" fill="#EF652F"/>
      <path d="M0 4V0H4L16 12V16H12L0 4Z" fill="#FFCC4A"/>
    </g>
    <defs>
      <clipPath id="clip0_901_46">
        <rect width="16" height="16" fill="white"/>
      </clipPath>
    </defs>
  </svg>
  <svg width="16" height="16" viewBox="0 0 16 16" fill="none" x="488" y="104">
    <path fill-rule="evenodd" clip-rule="evenodd" d="M2 1C0.895431 1 0 1.89543 0 3V13C0 14.1046 0.895431 15 2 15H14C15.1046 15 16 14.1046 16 13V3C16 1.89543 15.1046 1 14 1H2ZM6 5C6 6.10457 5.10457 7 4 7C2.89543 7 2 6.10457 2 5C2 3.89543 2.89543 3 4 3C5.10457 3 6 3.89543 6 5ZM2 13H14V5L9 10L7 8L2 13Z" fill="#8BC34A"/>
  </svg>
  <svg width="16" height="16" viewBox="0 0 16 16" fill="none" x="520" y="104">
    <g clip-path="url(#clip0_821_825)">
      <path d="M11 0H13C14.1046 0 15 0.89543 15 2V6L16 7.5V8.5L15 10V14C15 15.1046 14.1046 16 13 16H11V14H13V10L14 8.5V7.5L13 6V2H11V0Z" fill="#FFCC4A"/>
      <rect x="4" y="7" width="2" height="2" fill="#FFCC4A"/>
      <rect x="7" y="7" width="2" height="2" fill="#FFCC4A"/>
      <rect x="10" y="7" width="2" height="2" fill="#FFCC4A"/>
      <path d="M5 0H3C1.89543 0 1 0.89543 1 2V6L0 7.5V8.5L1 10V14C1 15.1046 1.89543 16 3 16H5V14H3V10L2 8.5V7.5L3 6V2H5V0Z" fill="#FFCC4A"/>
    </g>
    <defs>
      <clipPath id="clip0_821_825">
        <rect width="16" height="16" fill="white"/>
      </clipPath>
    </defs>
  </svg>
  <svg width="16" height="16" viewBox="0 0 16 16" fill="none" x="552" y="104">
    <path fill-rule="evenodd" clip-rule="evenodd" d="M2 1C0.895431 1 0 1.89543 0 3V13C0 14.1046 0.895431 15 2 15H14C15.1046 15 16 14.1046 16 13V3C16 1.89543 15.1046 1 14 1H2ZM11 2L12 4.26795L14.4641 4L13 6L14.4641 8L12 7.73205L11 10L10 7.73205L7.5359 8L9 6L7.5359 4L10 4.26795L11 2ZM6 3H2V5H6V3ZM2 7H6V9H2V7ZM2 11H14V13H2V11Z" fill="#EF652F"/>
  </svg>
  <svg width="16" height="16" viewBox="0 0 16 16" fill="none" x="584" y="104">
    <g clip-path="url(#clip0_1002_36)">
      <path d="M1.5 1.5L8 8L14.5 1.5" stroke="#42A5F5" stroke-width="3"/>
      <path d="M1.5 14.5L6 10M14.5 14.5L10 10" stroke="#6C7780" stroke-width="3"/>
    </g>
    <defs>
      <clipPath id="clip0_1002_36">
        <rect width="16" height="16" fill="white"/>
      </clipPath>
    </defs>
  </svg>
  <svg width="16" height="16" viewBox="0 0 16 16" fill="none" x="616" y="104">
    <g clip-path="url(#clip0_821_729)">
      <path fill-rule="evenodd" clip-rule="evenodd" d="M9 2C9 0.895431 8.10457 0 7 0C5.89543 0 5 0.895431 5 2H2C0.895431 2 0 2.89543 0 4V7C1.10457 7 2 7.89543 2 9C2 10.1046 1.10457 11 0 11V14C0 15.1046 0.89543 16 2 16H5C5 14.8954 5.89543 14 7 14C8.10457 14 9 14.8954 9 16H12C13.1046 16 14 15.1046 14 14V11C15.1046 11 16 10.1046 16 9C16 7.89543 15.1046 7 14 7V4C14 2.89543 13.1046 2 12 2H9Z" fill="#6C7780"/>
    </g>
    <defs>
      <clipPath id="clip0_821_729">
        <rect width="16" height="16" fill="white"/>
      </clipPath>
    </defs>
  </svg>
  <svg width="16" height="16" viewBox="0 0 16 16" fill="none" x="648" y="104">
    <path fill-rule="evenodd" clip-rule="evenodd" d="M12.3801 10.9004C13.9775 9.98404 15 8.57732 15 7C15 4.23858 11.866 2 8 2C4.13401 2 1 4.23858 1 7C1 8.99457 2.63505 10.7164 5 11.5188V4H10C11.6569 4 13 5.34315 13 7C13 7.86907 12.6305 8.65182 12.0399 9.19971L12.3801 10.9004ZM10.5325 11.6627L10.1987 9.99352C10.133 9.99782 10.0668 10 10 10H7V11.9494C7.3266 11.9827 7.66048 12 8 12C8.89312 12 9.74718 11.8805 10.5325 11.6627ZM10 8H7V6H10C10.5523 6 11 6.44772 11 7C11 7.55228 10.5523 8 10 8Z" fill="#42A5F5"/>
    <path fill-rule="evenodd" clip-rule="evenodd" d="M12.3801 10.9005C11.827 11.2178 11.2049 11.4763 10.5325 11.6627L11 14H13L12.3801 10.9005ZM7 11.9494C6.29385 11.8772 5.62171 11.7298 5 11.5188V14H7V11.9494Z" fill="#42A5F5"/>
  </svg>
  <svg width="16" height="16" viewBox="0 0 16 16" fill="none" x="680" y="104">
    <g clip-path="url(#clip0_821_665)">
      <path fill-rule="evenodd" clip-rule="evenodd" d="M8 16C12.4183 16 16 12.4183 16 8C16 3.58172 12.4183 0 8 0C3.58172 0 0 3.58172 0 8C0 12.4183 3.58172 16 8 16ZM8 14C11.3137 14 14 11.3137 14 8C14 4.68629 11.3137 2 8 2C4.68629 2 2 4.68629 2 8C2 11.3137 4.68629 14 8 14Z" fill="#A3B2BF"/>
      <circle cx="8" cy="8" r="4" fill="#A3B2BF"/>
    </g>
    <defs>
      <clipPath id="clip0_821_665">
        <rect width="16" height="16" fill="white"/>
      </clipPath>
    </defs>
  </svg>
  <svg width="16" height="16" viewBox="0 0 16 16" fill="none" x="712" y="104">
    <path fill-rule="evenodd" clip-rule="evenodd" d="M16 3C16 1.89543 15.1046 1 14 1H2C0.895431 1 0 1.89543 0 3V13C0 14.1046 0.895431 15 2 15H14C15.1046 15 16 14.1046 16 13V3ZM2 13V5H14V13H2ZM8 11H12V12H8V11ZM4 6L7 9L4 12V10L5 9L4 8V6Z" fill="#EF652F"/>
  </svg>
  <svg width="16" height="16" viewBox="0 0 16 16" fill="none" x="744" y="104">
    <path fill-rule="evenodd" clip-rule="evenodd" d="M2 2C2 0.895431 2.89543 0 4 0H10L14 4V14C14 15.1046 13.1046 16 12 16H4C2.89543 16 2 15.1046 2 14V2ZM9 3H7V5H9V3ZM10 6H12V8H10V6ZM12 9H10V11H12V9ZM4 12H6V14H4V12ZM9 12H7V14H9V12ZM12 12H10V14H12V12ZM7 9H9V11H7V9ZM6 9H4V11H6V9ZM9 6H7V8H9V6ZM4 6H6V8H4V6ZM4 3H6V5H4V3Z" fill="url(#paint0_linear_821_1181)"/>
    <defs>
      <linearGradient id="paint0_linear_821_1181" x1="8" y1="0" x2="8" y2="16" gradientUnits="userSpaceOnUse">
        <stop stop-color="#FF5252"/>
        <stop offset="0.187433" stop-color="#FF9800"/>
        <stop offset="0.375377" stop-color="#FFCC4A"/>
        <stop offset="0.625204" stop-color="#8BC34A"/>
        <stop offset="0.812451" stop-color="#42A5F5"/>
        <stop offset="1" stop-color="#A56FFF"/>
      </linearGradient>
    </defs>
  </svg>
  <svg width="16" height="16" viewBox="0 0 16 16" fill="none" x="776" y="104">
    <path fill-rule="evenodd" clip-rule="evenodd" d="M2 16V2L10 0.666667V3H12V0.333333L14 0V16H2ZM5.87868 4.87868C5.31607 5.44129 5 6.20435 5 7C5 7.39397 5.0776 7.78407 5.22836 8.14805C5.37913 8.51203 5.6001 8.84274 5.87868 9.12132C6.15726 9.3999 6.48797 9.62087 6.85195 9.77164C7.21593 9.9224 7.60603 10 8 10V10.0001C8.13131 10.0001 8.26133 10.026 8.38265 10.0762C8.50396 10.1265 8.61419 10.2001 8.70704 10.293C8.79989 10.3858 8.87354 10.496 8.92379 10.6174C8.97404 10.7387 8.9999 10.8687 8.9999 11C8.9999 11.2652 8.89455 11.5195 8.70704 11.707C8.51952 11.8946 8.26519 11.9999 8 11.9999C7.73481 11.9999 7.48048 11.8946 7.29296 11.707C7.10545 11.5195 7.0001 11.2652 7.0001 11H5C5 11.7956 5.31607 12.5587 5.87868 13.1213C6.44129 13.6839 7.20435 14 8 14C8.79565 14 9.55871 13.6839 10.1213 13.1213C10.6839 12.5587 11 11.7957 11 11C11 10.606 10.9224 10.2159 10.7716 9.85195C10.6209 9.48797 10.3999 9.15726 10.1213 8.87868C9.84274 8.6001 9.51203 8.37913 9.14805 8.22836C8.78407 8.0776 8.39397 8 8 8V7.9999C7.86869 7.9999 7.73867 7.97404 7.61735 7.92379C7.49604 7.87354 7.38581 7.79989 7.29296 7.70704C7.20011 7.61419 7.12646 7.50396 7.07621 7.38265C7.02596 7.26133 7.0001 7.13131 7.0001 7C7.0001 6.73481 7.10545 6.48048 7.29296 6.29296C7.48048 6.10545 7.73481 6.0001 8 6.0001C8.26519 6.0001 8.51952 6.10545 8.70704 6.29296C8.89455 6.48048 8.9999 6.73481 8.9999 7L11 7C11 6.20435 10.6839 5.44129 10.1213 4.87868C9.55871 4.31607 8.79565 4 8 4C7.20435 4 6.44129 4.31607 5.87868 4.87868Z" fill="#FF5252"/>
  </svg>
  <svg width="16" height="16" viewBox="0 0 16 16" fill="none" x="808" y="104">
    <g clip-path="url(#clip0_901_99)">
      <path d="M11 7L2.5 15.5C1.94772 16.0523 1.05228 16.0523 0.5 15.5C-0.0522848 14.9477 -0.0522841 14.0523 0.500001 13.5L9 5L11 7Z" fill="#6C7780"/>
      <path fill-rule="evenodd" clip-rule="evenodd" d="M13.6465 0.353502L10.5 3.49999L12.5 5.5L15.6465 2.3535C15.8736 2.85564 16 3.41306 16 4C16 6.20914 14.2091 8 12 8C9.79086 8 8 6.20914 8 4C8 1.79086 9.79086 0 12 0C12.5869 0 13.1443 0.126415 13.6465 0.353502Z" fill="#6C7780"/>
      <path d="M11 9L15.5 13.5C16.0523 14.0523 16.0523 14.9477 15.5 15.5C14.9477 16.0523 14.0523 16.0523 13.5 15.5L9 11L11 9Z" fill="#6C7780"/>
      <path d="M0 1L3 7H5L7 5V3L1 0L0 1Z" fill="#6C7780"/>
    </g>
    <defs>
      <clipPath id="clip0_901_99">
        <rect width="16" height="16" fill="white"/>
      </clipPath>
    </defs>
  </svg>
  <svg width="16" height="16" viewBox="0 0 16 16" fill="none" x="840" y="104">
    <path d="M0 1L8 15L16 1H11L8 7L5 1H0Z" fill="#8BC34A"/>
    <path fill-rule="evenodd" clip-rule="evenodd" d="M13.7143 1H11L8 7L5 1H2.28571L8 11L13.7143 1Z" fill="#8BC34A"/>
  </svg>
</svg>