<svg width="58" height="14" viewBox="0 0 58 14" fill="none" xmlns="http://www.w3.org/2000/svg">
<path fill-rule="evenodd" clip-rule="evenodd" d="M2 0H4V4H6V0H8V4H10V6H8V8H10V10H8V14H6V10H4V14H2V10H0V8H2V6H0V4H2V0ZM4 8V6H6V8H4ZM16 0H10V2H16V0ZM14 2V12L16 12V14H10V12L12 12V2H14ZM23 0C24.5985 0 26.0718 0.535794 27.2502 1.43759C26.7632 1.94088 26.3417 2.50793 25.9994 3.125C25.1706 2.48247 24.1299 2.1 23 2.1C20.2938 2.1 18.1 4.2938 18.1 7C18.1 9.7062 20.2938 11.9 23 11.9C24.1299 11.9 25.1706 11.5175 25.9994 10.875C26.3417 11.4921 26.7632 12.0591 27.2502 12.5624C26.0718 13.4642 24.5985 14 23 14C19.134 14 16 10.866 16 7C16 3.13401 19.134 0 23 0ZM40 7C40 10.866 36.866 14 33 14C29.134 14 26 10.866 26 7C26 3.13401 29.134 0 33 0C36.866 0 40 3.13401 40 7ZM28.1 7C28.1 9.70619 30.2938 11.9 33 11.9C35.7062 11.9 37.9 9.70619 37.9 7C37.9 4.2938 35.7062 2.1 33 2.1C30.2938 2.1 28.1 4.2938 28.1 7ZM41 14H43V4L47 14H49V0H47V9L43.5 0H41V14ZM50 4C50 2.93913 50.4214 1.92172 51.1716 1.17157C51.9217 0.421427 52.9391 0 54 0C55.0609 0 56.0783 0.421427 56.8284 1.17157C57.5786 1.92172 58 2.93913 58 4L56 4C56 3.46957 55.7893 2.96086 55.4142 2.58579C55.0391 2.21071 54.5304 2 54 2C53.4696 2 52.9609 2.21071 52.5858 2.58579C52.2107 2.96086 52 3.46957 52 4H50ZM58 10C58 10.5253 57.8965 11.0454 57.6955 11.5307C57.4945 12.016 57.1999 12.457 56.8284 12.8284C56.457 13.1999 56.016 13.4945 55.5307 13.6955C55.0454 13.8965 54.5253 14 54 14C53.4747 14 52.9546 13.8965 52.4693 13.6955C51.984 13.4945 51.543 13.1999 51.1716 12.8284C50.8001 12.457 50.5055 12.016 50.3045 11.5307C50.1035 11.0454 50 10.5253 50 10H52C52 10.2626 52.0517 10.5227 52.1522 10.7654C52.2528 11.008 52.4001 11.2285 52.5858 11.4142C52.7715 11.5999 52.992 11.7473 53.2346 11.8478C53.4773 11.9483 53.7374 12 54 12C54.2626 12 54.5227 11.9483 54.7654 11.8478C55.008 11.7473 55.2285 11.5999 55.4142 11.4142C55.5999 11.2285 55.7472 11.008 55.8478 10.7654C55.9483 10.5227 56 10.2626 56 10C56 9.73736 55.9483 9.47729 55.8478 9.23464C55.7472 8.99199 55.5999 8.77151 55.4142 8.58579C55.2285 8.40007 55.008 8.25275 54.7654 8.15224C54.5227 8.05173 54.2626 8 54 8C52.9391 8 51.9217 7.57857 51.1716 6.82843C50.4214 6.07829 50 5.06088 50 4.00001L52 4.00001C52 4.53044 52.2107 5.03914 52.5858 5.41422C52.9609 5.78929 53.4696 6 54 6C54.5253 6 55.0454 6.10347 55.5307 6.30449C56.016 6.5055 56.457 6.80014 56.8284 7.17158C57.1999 7.54301 57.4945 7.98397 57.6955 8.46927C57.8965 8.95457 58 9.47472 58 10Z" fill="#42A5F5"/>
</svg>
